<?xml version="1.0" encoding="UTF-8"?>
<svg id="logosandtypes_com" xmlns="http://www.w3.org/2000/svg" version="1.1" viewBox="0 0 150 150">
  <!-- Generator: Adobe Illustrator 29.0.1, SVG Export Plug-In . SVG Version: 2.1.0 Build 192)  -->
  <defs>
    <style>
      .st0 {
        fill: #1e1c1c;
      }

      .st1 {
        fill: #4a6cf7;
      }
    </style>
  </defs>
  <circle class="st0" cx="75" cy="75" r="75"/>
  <g>
    <path class="st1" d="M55.6,63c0-.3,0-.5.3-.6,3.7-2.2,7.3-4.3,11.1-6.4.2-.2.4-.2.6,0,2.7,1.5,5.4,3.2,8.1,4.7.5.2.4.2,0,.5-3.2,1.9-6.5,3.8-9.8,5.6-1,.6-1.5,1.5-1.5,2.6v33.6c0,1.2.5,2,1.5,2.6,4.8,2.8,9.6,5.6,14.4,8.3,2.2,1.2,4.5-.5,4.3-2.6v-14.6c0-.3,0-.5.4-.6,2.7-1.5,5.4-3.1,8-4.6q.5-.2.5.3v26.1c0,.3,0,.5-.4.6-3.6,2.1-7.3,4.3-10.9,6.3-.3.2-.5.2-.9,0-8.4-4.9-16.9-9.7-25.3-14.7-.6-.4-.5-.2-.5-.9v-46.3h0Z"/>
    <path class="st1" d="M26.5,46.3c0-.4,0-.6.5-.9,7.8-4.5,15.6-9,23.5-13.6.9-.3,1.8-1.5,2.6-1.2,3.7,2.2,30.4,17.7,40.1,23.3.3.2.4.4.4.8v12.5c0,.4-.2.5-.5.8-2.7,1.5-5.3,3.1-8,4.6q-.5.2-.5-.3c0-4,0-8,0-12-.5-2.1-2.9-2.6-4.5-3.6-6-3.4-23.2-13.5-25.9-15-1-.6-2-.6-3.1,0-2.8,1.6-5.6,3.2-8.3,4.8-2.3,1.5-5.2,2.5-7.1,4.5-.9,1.3-.5,3,.8,3.9,4.3,2.6,8.7,5,12.9,7.5.2.2.3.3.3.6v9.4q0,.4-.4.2c-7.6-4.4-15.2-8.8-22.7-13.1-.2-.2-.3-.3-.3-.6v-12.6h.2Z"/>
    <path class="st1" d="M122.7,67.4c-6.9,5-34.3,19.9-40.4,23.8-.3.2-.5.2-.9,0-3.6-2.1-7.1-4.2-10.7-6.3-.7-.4-.6-.2-.6-1v-9q0-.6.5-.3c3.2,1.9,6.5,3.8,9.7,5.6,1,.5,1.9.5,2.9,0,6.7-3.9,26.1-15.1,28.9-16.8,1-.6,1.5-1.5,1.5-2.6v-16.6c.2-1.9-2.2-3.7-4.1-2.7-4.4,2.5-8.7,5-13.1,7.6-1.1.2-3.1-1.7-4.4-2.2-1.5-.9-2.9-1.7-4.4-2.6q-.4-.2,0-.5c6.5-3.8,13-7.5,19.5-11.3,1.1-.4,2.9-2.2,3.9-1.9,3.6,2.1,7.3,4.3,11,6.3.3.2.4.4.4.7v29.6h.2Z"/>
  </g>
</svg>