<?xml version="1.0" encoding="UTF-8"?>
<svg id="Layer_1" xmlns="http://www.w3.org/2000/svg" version="1.1" xmlns:xlink="http://www.w3.org/1999/xlink" viewBox="0 0 1000 1000">
  <!-- Generator: Adobe Illustrator 29.0.1, SVG Export Plug-In . SVG Version: 2.1.0 Build 192)  -->
  <defs>
    <style>
      .st0 {
        fill: url(#linear-gradient2);
      }

      .st1 {
        fill: url(#linear-gradient10);
      }

      .st2 {
        fill: url(#linear-gradient21);
      }

      .st3 {
        fill: url(#linear-gradient27);
      }

      .st4 {
        fill: #fff;
      }

      .st5 {
        fill: url(#linear-gradient26);
      }

      .st6 {
        fill: url(#linear-gradient1);
      }

      .st7 {
        fill: url(#linear-gradient9);
      }

      .st8 {
        fill: url(#linear-gradient18);
      }

      .st9 {
        fill: url(#linear-gradient23);
      }

      .st10 {
        fill: url(#linear-gradient8);
      }

      .st11 {
        fill: url(#linear-gradient11);
      }

      .st12 {
        fill: url(#linear-gradient16);
      }

      .st13 {
        fill: url(#linear-gradient24);
      }

      .st14 {
        fill: url(#linear-gradient22);
      }

      .st15 {
        fill: url(#linear-gradient19);
      }

      .st16 {
        fill: url(#linear-gradient12);
      }

      .st17 {
        fill: url(#linear-gradient7);
      }

      .st18 {
        fill: url(#linear-gradient20);
      }

      .st19 {
        fill: url(#linear-gradient4);
      }

      .st20 {
        fill: url(#linear-gradient14);
      }

      .st21 {
        fill: url(#linear-gradient5);
      }

      .st22 {
        fill: url(#linear-gradient3);
      }

      .st23 {
        fill: url(#linear-gradient25);
      }

      .st24 {
        fill: url(#linear-gradient15);
      }

      .st25 {
        fill: url(#linear-gradient17);
      }

      .st26 {
        fill: url(#linear-gradient6);
      }

      .st27 {
        fill: #4a6cf7;
      }

      .st28 {
        fill: url(#linear-gradient13);
      }

      .st29 {
        fill: url(#linear-gradient);
      }
    </style>
    <linearGradient id="linear-gradient" x1="484.4" y1="511.8" x2="504.6" y2="491.5" gradientUnits="userSpaceOnUse">
      <stop offset="0" stop-color="#003a7f"/>
      <stop offset="1" stop-color="#000"/>
    </linearGradient>
    <linearGradient id="linear-gradient1" x1="484.4" y1="511.8" x2="504.6" y2="491.5" xlink:href="#linear-gradient"/>
    <linearGradient id="linear-gradient2" x1="488.3" y1="515.7" x2="508.6" y2="495.5" xlink:href="#linear-gradient"/>
    <linearGradient id="linear-gradient3" x1="488.3" y1="515.7" x2="508.6" y2="495.5" xlink:href="#linear-gradient"/>
    <linearGradient id="linear-gradient4" x1="484.4" y1="511.8" x2="504.6" y2="491.5" gradientTransform="translate(-200.4 500.5) rotate(-45)" xlink:href="#linear-gradient"/>
    <linearGradient id="linear-gradient5" x1="486.4" y1="513.8" x2="506.6" y2="493.5" gradientTransform="translate(518.2 1199.7) rotate(-135)" xlink:href="#linear-gradient"/>
    <linearGradient id="linear-gradient6" x1="488.3" y1="515.7" x2="508.6" y2="495.5" gradientTransform="translate(-202.1 504.5) rotate(-45)" xlink:href="#linear-gradient"/>
    <linearGradient id="linear-gradient7" x1="490.4" y1="517.8" x2="510.7" y2="497.6" xlink:href="#linear-gradient"/>
    <linearGradient id="linear-gradient8" x1="494.2" y1="521.6" x2="514.5" y2="501.4" xlink:href="#linear-gradient"/>
    <linearGradient id="linear-gradient9" x1="490.4" y1="517.8" x2="510.7" y2="497.6" xlink:href="#linear-gradient"/>
    <linearGradient id="linear-gradient10" x1="494.2" y1="521.6" x2="514.5" y2="501.4" xlink:href="#linear-gradient"/>
    <linearGradient id="linear-gradient11" x1="492.6" y1="520" x2="512.8" y2="499.8" gradientTransform="translate(510.3 1220.6) rotate(-135)" xlink:href="#linear-gradient"/>
    <linearGradient id="linear-gradient12" x1="494.2" y1="521.6" x2="514.5" y2="501.4" gradientTransform="translate(1226 508.7) rotate(135)" xlink:href="#linear-gradient"/>
    <linearGradient id="linear-gradient13" x1="492.6" y1="520" x2="512.8" y2="499.8" gradientTransform="translate(500.8 1224.6) rotate(-135)" xlink:href="#linear-gradient"/>
    <linearGradient id="linear-gradient14" x1="488.4" y1="515.8" x2="508.7" y2="495.6" xlink:href="#linear-gradient"/>
    <linearGradient id="linear-gradient15" x1="488.4" y1="515.8" x2="508.7" y2="495.6" xlink:href="#linear-gradient"/>
    <linearGradient id="linear-gradient16" x1="484.4" y1="511.9" x2="504.7" y2="491.6" xlink:href="#linear-gradient"/>
    <linearGradient id="linear-gradient17" x1="484.4" y1="511.9" x2="504.7" y2="491.6" xlink:href="#linear-gradient"/>
    <linearGradient id="linear-gradient18" x1="488.4" y1="515.8" x2="508.6" y2="495.6" gradientTransform="translate(1205.7 517.7) rotate(135)" xlink:href="#linear-gradient"/>
    <linearGradient id="linear-gradient19" x1="486.4" y1="513.8" x2="506.7" y2="493.6" gradientTransform="translate(503.5 -199) rotate(45)" xlink:href="#linear-gradient"/>
    <linearGradient id="linear-gradient20" x1="484.4" y1="511.9" x2="504.7" y2="491.6" gradientTransform="translate(1196.2 513.8) rotate(135)" xlink:href="#linear-gradient"/>
    <linearGradient id="linear-gradient21" x1="482.3" y1="509.8" x2="502.6" y2="489.5" xlink:href="#linear-gradient"/>
    <linearGradient id="linear-gradient22" x1="478.5" y1="505.9" x2="498.8" y2="485.7" xlink:href="#linear-gradient"/>
    <linearGradient id="linear-gradient23" x1="482.3" y1="509.8" x2="502.6" y2="489.5" xlink:href="#linear-gradient"/>
    <linearGradient id="linear-gradient24" x1="478.5" y1="505.9" x2="498.8" y2="485.7" xlink:href="#linear-gradient"/>
    <linearGradient id="linear-gradient25" x1="480.2" y1="507.6" x2="500.4" y2="487.3" gradientTransform="translate(494.8 -202.3) rotate(45)" xlink:href="#linear-gradient"/>
    <linearGradient id="linear-gradient26" x1="478.5" y1="505.9" x2="498.8" y2="485.7" gradientTransform="translate(-204.2 492.1) rotate(-45)" xlink:href="#linear-gradient"/>
    <linearGradient id="linear-gradient27" x1="480.2" y1="507.6" x2="500.4" y2="487.3" gradientTransform="translate(493.2 -206.3) rotate(45)" xlink:href="#linear-gradient"/>
  </defs>
  <rect class="st4" x="485.5" y="486.1" width="28.5" height="28.5" transform="translate(500.2 -206.9) rotate(45)"/>
  <g>
    <g>
      <path class="st27" d="M510.7,501l2.2,2.2c.3.3.9.3,1.2,0l2.2-2.2c.3-.3.3-.9,0-1.2l-2.2-2.2c-.3-.3-.9-.3-1.2,0l-2.2,2.2c-.1.1-.2.3-.2.4h-6.3c0-.3-.2-.5-.3-.7l-3.2-3.2c-.2-.2-.4-.3-.7-.3v-6.3c.1,0,.3-.1.4-.2l2.2-2.2c.3-.3.3-.9,0-1.2l-2.2-2.2c-.3-.3-.9-.3-1.2,0l-2.2,2.2c-.3.3-.3.9,0,1.2l2.2,2.2c.1.1.3.2.4.2v6.3c-.3,0-.5.2-.7.3l-3.2,3.2c-.2.2-.3.4-.3.7h-6.3c0-.1-.1-.3-.2-.4l-2.2-2.2c-.3-.3-.9-.3-1.2,0l-2.2,2.2c-.3.3-.3.9,0,1.2l2.2,2.2c.3.3.9.3,1.2,0l2.2-2.2c.1-.1.2-.3.2-.4h6.3c0,.3.2.5.3.7l3.2,3.2c.2.2.4.3.7.3v6.3c-.1,0-.3.1-.4.2l-2.2,2.2c-.3.3-.3.9,0,1.2l2.2,2.2c.3.3.9.3,1.2,0l2.2-2.2c.3-.3.3-.9,0-1.2l-2.2-2.2c-.1-.1-.3-.2-.4-.2v-6.3c.3,0,.5-.2.7-.3l3.2-3.2c.2-.2.3-.4.3-.7h6.3c0,.1.1.3.2.4Z"/>
      <g>
        <circle class="st29" cx="501.8" cy="494.4" r="1.4"/>
        <circle class="st6" cx="505.6" cy="490.6" r="1.4"/>
        <circle class="st0" cx="505.7" cy="498.3" r="1.4"/>
        <circle class="st22" cx="509.5" cy="494.5" r="1.4"/>
        <rect class="st19" x="503.6" y="489.6" width=".6" height="5.3" transform="translate(495.6 -212.2) rotate(45)"/>
        <rect class="st21" x="507.3" y="489.4" width=".6" height="6.2" transform="translate(1214.8 481.9) rotate(135)"/>
        <rect class="st26" x="507.6" y="493.5" width=".6" height="5.3" transform="translate(499.6 -213.8) rotate(45)"/>
      </g>
      <g>
        <circle class="st17" cx="505.8" cy="502.4" r="1.4"/>
        <circle class="st10" cx="509.6" cy="506.3" r="1.4"/>
        <circle class="st7" cx="501.8" cy="506.4" r="1.4"/>
        <circle class="st1" cx="505.7" cy="510.2" r="1.4"/>
        <rect class="st11" x="507.7" y="502" width=".6" height="5.3" transform="translate(1224 502.3) rotate(135)"/>
        <rect class="st16" x="507.3" y="505.1" width=".6" height="6.2" transform="translate(507.2 1226.6) rotate(-135)"/>
        <rect class="st28" x="503.7" y="505.9" width=".6" height="5.3" transform="translate(1220 511.8) rotate(135)"/>
      </g>
      <g>
        <circle class="st20" cx="497.8" cy="506.4" r="1.4"/>
        <circle class="st24" cx="494" cy="510.2" r="1.4"/>
        <circle class="st12" cx="493.8" cy="502.5" r="1.4"/>
        <circle class="st25" cx="490" cy="506.3" r="1.4"/>
        <rect class="st8" x="495.3" y="505.9" width=".6" height="5.3" transform="translate(486.5 1218.7) rotate(-135)"/>
        <rect class="st15" x="491.7" y="505.1" width=".6" height="6.2" transform="translate(-215.3 496.8) rotate(-45)"/>
        <rect class="st18" x="491.4" y="502" width=".6" height="5.3" transform="translate(482.5 1209.1) rotate(-135)"/>
      </g>
      <g>
        <circle class="st2" cx="493.8" cy="498.3" r="1.4"/>
        <circle class="st14" cx="489.9" cy="494.5" r="1.4"/>
        <circle class="st9" cx="497.7" cy="494.4" r="1.4"/>
        <circle class="st13" cx="493.9" cy="490.6" r="1.4"/>
        <rect class="st23" x="491.3" y="493.5" width=".6" height="5.3" transform="translate(-206.8 492.9) rotate(-45)"/>
        <rect class="st5" x="491.6" y="489.4" width=".6" height="6.2" transform="translate(492.4 -203.6) rotate(45)"/>
        <rect class="st3" x="495.2" y="489.6" width=".6" height="5.3" transform="translate(-202.9 494.6) rotate(-45)"/>
      </g>
    </g>
    <path class="st4" d="M499.5,501.4v-2h-1.3c0,0-.2,0-.3,0s0-.1,0-.3,0-.2,0-.3.2,0,.3,0h3.3c0,0,.2,0,.3,0,0,0,0,.1,0,.3s0,.2,0,.3c0,0-.2,0-.3,0h-1.3v4c0,0,0,.2-.1.3,0,0-.2,0-.3,0s-.2,0-.3,0c0,0-.1-.2-.1-.3v-1.9"/>
  </g>
</svg>