<?xml version="1.0" encoding="UTF-8"?>
<svg id="Layer_1" xmlns="http://www.w3.org/2000/svg" version="1.1" xmlns:xlink="http://www.w3.org/1999/xlink" viewBox="0 0 138 27">
  <!-- Generator: Adobe Illustrator 29.0.1, SVG Export Plug-In . SVG Version: 2.1.0 Build 192)  -->
  <defs>
    <style>
      .st0 {
        fill: url(#linear-gradient2);
      }

      .st1 {
        fill: url(#linear-gradient10);
      }

      .st2 {
        fill: url(#linear-gradient21);
      }

      .st3 {
        fill: url(#linear-gradient27);
      }

      .st4 {
        fill: #fff;
      }

      .st5 {
        fill: url(#linear-gradient26);
      }

      .st6 {
        fill: url(#linear-gradient1);
      }

      .st7 {
        fill: url(#linear-gradient9);
      }

      .st8 {
        fill: url(#linear-gradient18);
      }

      .st9 {
        fill: url(#linear-gradient23);
      }

      .st10 {
        fill: url(#linear-gradient8);
      }

      .st11 {
        fill: url(#linear-gradient11);
      }

      .st12 {
        fill: url(#linear-gradient16);
      }

      .st13 {
        fill: url(#linear-gradient24);
      }

      .st14 {
        fill: url(#linear-gradient22);
      }

      .st15 {
        fill: url(#linear-gradient19);
      }

      .st16 {
        fill: url(#linear-gradient12);
      }

      .st17 {
        fill: url(#linear-gradient7);
      }

      .st18 {
        fill: url(#linear-gradient20);
      }

      .st19 {
        fill: url(#linear-gradient4);
      }

      .st20 {
        fill: url(#linear-gradient14);
      }

      .st21 {
        fill: url(#linear-gradient5);
      }

      .st22 {
        fill: url(#linear-gradient3);
      }

      .st23 {
        fill: #003049;
      }

      .st24 {
        fill: url(#linear-gradient25);
      }

      .st25 {
        fill: url(#linear-gradient15);
      }

      .st26 {
        fill: url(#linear-gradient17);
      }

      .st27 {
        fill: url(#linear-gradient6);
      }

      .st28 {
        fill: #4a6cf7;
      }

      .st29 {
        fill: url(#linear-gradient13);
      }

      .st30 {
        fill: url(#linear-gradient);
      }
    </style>
    <linearGradient id="linear-gradient" x1="4.5" y1="20.7" x2="17.9" y2="7.3" gradientUnits="userSpaceOnUse">
      <stop offset="0" stop-color="#003a7f"/>
      <stop offset="1" stop-color="#000"/>
    </linearGradient>
    <linearGradient id="linear-gradient1" x1="4.5" y1="20.7" x2="17.9" y2="7.3" xlink:href="#linear-gradient"/>
    <linearGradient id="linear-gradient2" x1="7.1" y1="23.4" x2="20.6" y2="9.9" xlink:href="#linear-gradient"/>
    <linearGradient id="linear-gradient3" x1="7.1" y1="23.4" x2="20.6" y2="9.9" xlink:href="#linear-gradient"/>
    <linearGradient id="linear-gradient4" x1="4.5" y1="20.7" x2="17.9" y2="7.3" gradientTransform="translate(-.4 14.6) rotate(-45)" xlink:href="#linear-gradient"/>
    <linearGradient id="linear-gradient5" x1="5.8" y1="22" x2="19.3" y2="8.6" gradientTransform="translate(28.3 27.7) rotate(-135)" xlink:href="#linear-gradient"/>
    <linearGradient id="linear-gradient6" x1="7.1" y1="23.4" x2="20.6" y2="9.9" gradientTransform="translate(-1.4 17.3) rotate(-45)" xlink:href="#linear-gradient"/>
    <linearGradient id="linear-gradient7" x1="8.5" y1="24.7" x2="22" y2="11.3" xlink:href="#linear-gradient"/>
    <linearGradient id="linear-gradient8" x1="11.1" y1="27.3" x2="24.5" y2="13.8" xlink:href="#linear-gradient"/>
    <linearGradient id="linear-gradient9" x1="8.5" y1="24.7" x2="22" y2="11.3" xlink:href="#linear-gradient"/>
    <linearGradient id="linear-gradient10" x1="11.1" y1="27.3" x2="24.5" y2="13.8" xlink:href="#linear-gradient"/>
    <linearGradient id="linear-gradient11" x1="10" y1="26.2" x2="23.4" y2="12.8" gradientTransform="translate(23.1 41.5) rotate(-135)" xlink:href="#linear-gradient"/>
    <linearGradient id="linear-gradient12" x1="11.1" y1="27.3" x2="24.5" y2="13.8" gradientTransform="translate(47 17.3) rotate(135)" xlink:href="#linear-gradient"/>
    <linearGradient id="linear-gradient13" x1="10" y1="26.2" x2="23.4" y2="12.8" gradientTransform="translate(16.8 44.2) rotate(-135)" xlink:href="#linear-gradient"/>
    <linearGradient id="linear-gradient14" x1="7.2" y1="23.4" x2="20.6" y2="10" xlink:href="#linear-gradient"/>
    <linearGradient id="linear-gradient15" x1="7.2" y1="23.4" x2="20.6" y2="10" xlink:href="#linear-gradient"/>
    <linearGradient id="linear-gradient16" x1="4.6" y1="20.8" x2="18" y2="7.4" xlink:href="#linear-gradient"/>
    <linearGradient id="linear-gradient17" x1="4.6" y1="20.8" x2="18" y2="7.4" xlink:href="#linear-gradient"/>
    <linearGradient id="linear-gradient18" x1="7.2" y1="23.4" x2="20.6" y2="10" gradientTransform="translate(33.6 23.3) rotate(135)" xlink:href="#linear-gradient"/>
    <linearGradient id="linear-gradient19" x1="5.9" y1="22.1" x2="19.3" y2="8.7" gradientTransform="translate(15.8 -1.4) rotate(45)" xlink:href="#linear-gradient"/>
    <linearGradient id="linear-gradient20" x1="4.6" y1="20.8" x2="18" y2="7.4" gradientTransform="translate(27.3 20.7) rotate(135)" xlink:href="#linear-gradient"/>
    <linearGradient id="linear-gradient21" x1="3.2" y1="19.4" x2="16.6" y2="6" xlink:href="#linear-gradient"/>
    <linearGradient id="linear-gradient22" x1=".6" y1="16.9" x2="14.1" y2="3.4" xlink:href="#linear-gradient"/>
    <linearGradient id="linear-gradient23" x1="3.2" y1="19.4" x2="16.6" y2="6" xlink:href="#linear-gradient"/>
    <linearGradient id="linear-gradient24" x1=".6" y1="16.9" x2="14.1" y2="3.4" xlink:href="#linear-gradient"/>
    <linearGradient id="linear-gradient25" x1="1.7" y1="17.9" x2="15.2" y2="4.5" gradientTransform="translate(10.1 -3.6) rotate(45)" xlink:href="#linear-gradient"/>
    <linearGradient id="linear-gradient26" x1=".6" y1="16.9" x2="14.1" y2="3.4" gradientTransform="translate(-2.8 9.1) rotate(-45)" xlink:href="#linear-gradient"/>
    <linearGradient id="linear-gradient27" x1="1.7" y1="17.9" x2="15.2" y2="4.5" gradientTransform="translate(9 -6.2) rotate(45)" xlink:href="#linear-gradient"/>
  </defs>
  <g>
    <path class="st23" d="M41.3,18.3c-.8,0-1.5-.2-2.2-.6-.6-.4-1.1-.9-1.5-1.6s-.5-1.4-.5-2.3,0-1.3.3-1.8c.2-.5.5-1,.9-1.4.4-.4.8-.7,1.4-.9s1.1-.3,1.7-.3,1.2,0,1.7.3,1,.5,1.4.9.7.9.9,1.4.3,1.1.3,1.8-.2,1.7-.5,2.4-.9,1.2-1.5,1.6-1.4.5-2.2.5h0ZM41.3,17.1c.5,0,.8,0,1.2-.2.7-.3,1.2-.8,1.6-1.7.2-.4.2-.8.2-1.4s-.2-1.2-.4-1.7c-.2-.5-.6-.8-1.1-1.1-.5-.3-1-.4-1.5-.4s-1.1.2-1.6.5c-.5.3-.8.7-1.1,1.1-.2.5-.4,1.1-.4,1.7s.2,1.2.4,1.7c.2.5.6.8,1.1,1.1.5.3,1,.4,1.5.4Z"/>
    <path class="st23" d="M51.5,18.2c-.2,0-.5-.2-.6-.4l-1.6-3.3h-.9v3c0,.2,0,.3-.2.5s-.2.2-.5.2-.3,0-.5-.2c-.2-.2-.2-.3-.2-.5v-7.4c0-.2,0-.3.2-.5.2-.2.3-.2.5-.2h1.9c.4,0,.7,0,1,.2s.6.3.8.5c.2.2.4.5.5.8.2.3.2.6.2,1s0,.7-.2,1c-.2.3-.3.6-.5.8s-.5.4-.8.5h0l1.4,2.9v.3c0,.2,0,.3-.2.5s-.3.2-.5.2h0ZM49.7,13.4c.4,0,.7-.2.9-.4s.3-.6.3-1,0-.5-.2-.7-.2-.4-.4-.5c-.2-.2-.4-.2-.7-.2h-1.3v2.7h1.3Z"/>
    <path class="st23" d="M60.4,18.2c-.3,0-.5-.2-.6-.4l-.8-1.9h-3.2l-.8,1.9c-.2.2-.3.4-.5.4s-.3,0-.5-.2c-.2-.2-.2-.2-.2-.5s0-.2,0-.2l3.1-7.6c0-.2.2-.3.5-.3s.3,0,.5.3l3.1,7.6v.2c0,.2,0,.3-.2.5s-.2.2-.5.2h0ZM58.6,14.7l-1.1-2.8-1.1,2.8h2.3Z"/>
    <path class="st28" d="M63.3,18.2c-.2,0-.3,0-.5-.2-.2,0-.2-.2-.2-.5v-7.4c0-.2,0-.3.2-.5.2-.2.3-.2.5-.2h3.3c.2,0,.3,0,.5.2s.2.2.2.5,0,.3-.2.5-.2.2-.5.2h-2.7v2.6h2.5c.2,0,.3,0,.5.2s.2.2.2.4,0,.3-.2.5c-.2.2-.2.2-.5.2h-2.5v3.1c0,.2,0,.3-.2.5s-.2.2-.5.2Z"/>
    <path class="st28" d="M72.9,18.2h-3.4c-.2,0-.3,0-.5-.2s-.2-.3-.2-.5v-7.4c0-.2,0-.3.2-.5.2-.2.3-.2.5-.2s.3,0,.5.2.2.3.2.5v6.9h2.8c.2,0,.3,0,.5.2s.2.2.2.5,0,.3-.2.5-.2.2-.5.2h0Z"/>
    <path class="st28" d="M78,18.3c-.8,0-1.5-.2-2.2-.6-.6-.4-1.1-.9-1.5-1.6s-.5-1.4-.5-2.3,0-1.3.3-1.8.5-1,.9-1.4c.4-.4.8-.7,1.4-.9.5-.2,1.1-.3,1.7-.3s1.2,0,1.7.3,1,.5,1.4.9.7.9.9,1.4c.2.5.3,1.1.3,1.8s-.2,1.7-.5,2.4-.9,1.2-1.5,1.6-1.4.5-2.2.5h0ZM78,17.1c.5,0,.8,0,1.2-.2.7-.3,1.2-.8,1.6-1.7.2-.4.2-.8.2-1.4s-.2-1.2-.4-1.7c-.2-.5-.6-.8-1.1-1.1s-1-.4-1.5-.4-1.1.2-1.6.5c-.5.3-.8.7-1.1,1.1s-.4,1.1-.4,1.7.2,1.2.4,1.7c.2.5.6.8,1.1,1.1s1,.4,1.5.4Z"/>
    <path class="st28" d="M90.6,18.2c-.2,0-.3,0-.5-.3l-1.8-5.5-1.9,5.5c0,.2-.2.3-.5.3s-.3,0-.5-.3l-2.7-7.6v-.2c0-.2,0-.3.2-.5.2-.2.2-.2.5-.2s.3,0,.4,0c0,0,.2.2.2.3l1.9,5.6,1.9-5.7c0-.2.2-.3.5-.3s.3,0,.5.3l1.8,5.6,2-5.5c.2-.3.3-.4.6-.4s.3,0,.5.2.2.2.2.5v.2l-2.7,7.6c0,.2-.2.3-.5.3h0Z"/>
  </g>
  <path class="st23" d="M32.7,14.2v-3.6h-2.3c-.2,0-.3,0-.5-.2s-.2-.2-.2-.5,0-.3.2-.5.3-.2.5-.2h5.8c.2,0,.3,0,.5.2.2.2.2.2.2.5s0,.3-.2.5c-.2.2-.3.2-.5.2h-2.2v6.9c0,.2,0,.3-.2.5-.2.2-.3.2-.5.2s-.3,0-.5-.2c-.2-.2-.2-.3-.2-.5v-3.3"/>
  <g>
    <path class="st28" d="M22,13.6l1.4,1.4c.2.2.6.2.8,0l1.4-1.4c.2-.2.2-.6,0-.8l-1.4-1.4c-.2-.2-.6-.2-.8,0l-1.4,1.4c0,0-.1.2-.1.3h-4.2c0-.2-.1-.3-.2-.5l-2.1-2.1c-.1-.1-.3-.2-.5-.2v-4.2c0,0,.2,0,.3-.1l1.4-1.4c.2-.2.2-.6,0-.8l-1.4-1.4c-.2-.2-.6-.2-.8,0l-1.4,1.4c-.2.2-.2.6,0,.8l1.4,1.4c0,0,.2.1.3.1v4.2c-.2,0-.3.1-.5.2l-2.1,2.1c-.1.1-.2.3-.2.5h-4.2c0,0,0-.2-.1-.3l-1.4-1.4c-.2-.2-.6-.2-.8,0l-1.4,1.4c-.2.2-.2.6,0,.8l1.4,1.4c.2.2.6.2.8,0l1.4-1.4c0,0,.1-.2.1-.3h4.2c0,.2.1.3.2.5l2.1,2.1c.1.1.3.2.5.2v4.2c0,0-.2,0-.3.1l-1.4,1.4c-.2.2-.2.6,0,.8l1.4,1.4c.2.2.6.2.8,0l1.4-1.4c.2-.2.2-.6,0-.8l-1.4-1.4c0,0-.2-.1-.3-.1v-4.2c.2,0,.3-.1.5-.2l2.1-2.1c.1-.1.2-.3.2-.5h4.2c0,0,0,.2.1.3Z"/>
    <g>
      <circle class="st30" cx="16.1" cy="9.2" r=".9"/>
      <circle class="st6" cx="18.6" cy="6.7" r=".9"/>
      <circle class="st0" cx="18.7" cy="11.8" r=".9"/>
      <circle class="st22" cx="21.2" cy="9.3" r=".9"/>
      <rect class="st19" x="17.3" y="6" width=".4" height="3.5" transform="translate(10.6 -10.1) rotate(45)"/>
      <rect class="st21" x="19.7" y="5.9" width=".4" height="4.1" transform="translate(39.6 -.5) rotate(135)"/>
      <rect class="st27" x="19.9" y="8.6" width=".4" height="3.5" transform="translate(13.2 -11.2) rotate(45)"/>
    </g>
    <g>
      <circle class="st17" cx="18.7" cy="14.5" r=".9"/>
      <circle class="st10" cx="21.3" cy="17.1" r=".9"/>
      <circle class="st7" cx="16.1" cy="17.2" r=".9"/>
      <circle class="st1" cx="18.6" cy="19.7" r=".9"/>
      <rect class="st11" x="20" y="14.2" width=".4" height="3.5" transform="translate(45.7 13) rotate(135)"/>
      <rect class="st16" x="19.7" y="16.3" width=".4" height="4.1" transform="translate(21 45.5) rotate(-135)"/>
      <rect class="st29" x="17.3" y="16.9" width=".4" height="3.5" transform="translate(43.1 19.4) rotate(135)"/>
    </g>
    <g>
      <circle class="st20" cx="13.4" cy="17.2" r=".9"/>
      <circle class="st25" cx="10.9" cy="19.7" r=".9"/>
      <circle class="st12" cx="10.8" cy="14.5" r=".9"/>
      <circle class="st26" cx="8.3" cy="17.1" r=".9"/>
      <rect class="st8" x="11.8" y="16.9" width=".4" height="3.5" transform="translate(7.3 40.2) rotate(-135)"/>
      <rect class="st15" x="9.4" y="16.3" width=".4" height="4.1" transform="translate(-10.2 12.2) rotate(-45)"/>
      <rect class="st18" x="9.2" y="14.2" width=".4" height="3.5" transform="translate(4.7 33.9) rotate(-135)"/>
    </g>
    <g>
      <circle class="st2" cx="10.7" cy="11.8" r=".9"/>
      <circle class="st14" cx="8.2" cy="9.3" r=".9"/>
      <circle class="st9" cx="13.4" cy="9.2" r=".9"/>
      <circle class="st13" cx="10.9" cy="6.7" r=".9"/>
      <rect class="st24" x="9.1" y="8.6" width=".4" height="3.5" transform="translate(-4.6 9.6) rotate(-45)"/>
      <rect class="st5" x="9.3" y="5.9" width=".4" height="4.1" transform="translate(8.4 -4.4) rotate(45)"/>
      <rect class="st3" x="11.7" y="6" width=".4" height="3.5" transform="translate(-2 10.7) rotate(-45)"/>
    </g>
  </g>
  <path class="st4" d="M14.5,13.8v-1.4h-.9c0,0-.1,0-.2,0s0,0,0-.2,0-.1,0-.2.1,0,.2,0h2.2c0,0,.1,0,.2,0,0,0,0,0,0,.2s0,.1,0,.2c0,0-.1,0-.2,0h-.8v2.6c0,0,0,.1,0,.2,0,0-.1,0-.2,0s-.1,0-.2,0c0,0,0-.1,0-.2v-1.2"/>
</svg>