<?xml version="1.0" encoding="UTF-8"?>
<svg id="Layer_1" xmlns="http://www.w3.org/2000/svg" version="1.1" viewBox="0 0 1000 1000">
  <!-- Generator: Adobe Illustrator 29.0.1, SVG Export Plug-In . SVG Version: 2.1.0 Build 192)  -->
  <defs>
    <style>
      .st0 {
        fill: #005c39;
      }

      .st1 {
        fill: #fff;
      }

      .st2 {
        fill: #19005c;
      }

      .st3 {
        display: none;
      }

      .st4 {
        fill: #ffb000;
      }

      .st5 {
        fill: #3e005c;
      }
    </style>
  </defs>
  <g class="st3">
    <rect class="st0" width="500" height="500"/>
    <rect class="st5" x="500" width="500" height="500"/>
    <rect class="st4" y="500" width="500" height="500"/>
    <rect class="st2" x="500" y="500" width="500" height="500"/>
  </g>
  <g>
    <path class="st1" d="M311,447.9v-3.6c31.2-19.2,62.3-34.8,93.5-55h3.6c23.8,11.9,46.8,27.5,70.5,39.4v3.6c-27.5,15.6-55,31.2-82.5,46.8-8.3,3.6-11.9,11.9-11.9,23.8v285.9c0,11.9,3.6,15.6,11.9,23.8,39.4,23.8,82.5,46.8,120.9,70.5,38.5,23.8,39.4-3.6,34.8-23.8v-129.2c23.8-11.9,46.8-27.5,70.5-39.4h3.6v227.3c-31.2,19.2-62.3,34.8-93.5,55h-8.3c-70.5-43.1-144.8-82.5-215.4-125.6-2.5,0-3.6-2.7-3.6-8.3v-395h0l3.6,3.6h1.8l.2.2Z"/>
    <path class="st1" d="M64.5,306.7s0-3.6,3.6-8.3c66.9-39.4,132.9-77.9,199.8-117.3,8.3,0,15.6-11.9,23.8-11.9,31.2,19.2,258.5,148.5,340,195.2v120.9c-23.8,11.9-46.8,27.5-66.9,39.4h-3.6v-101.7c-3.6-15.6-23.8-23.8-39.4-31.2-51.3-27.5-195.2-113.6-219-129.2-8.3-3.6-15.6-3.6-27.5,0-23.8,11.9-46.8,27.5-70.5,39.4-19.2,11.9-43.1,19.2-58.7,39.4-8.3,11.9-3.6,27.5,8.3,31.2,34.8,23.8,74.3,43.1,110,62.3v86.1h0c-62.3-39.4-129.2-74.3-191.6-113.6v-110h0l-8.3,8.3v1.1Z"/>
    <path class="st1" d="M882,486.4c-58.7,43.1-293.3,168.6-344.6,203.4h-8.3c-31.2-19.2-62.3-34.8-89.8-55-2.5,0-3.6-2.7-3.6-8.3v-74.3c0-2.5,1.2-2.5,3.6,0,27.5,15.6,55,31.2,82.5,46.8,8.3,3.6,15.6,3.6,23.8,0,58.7-31.2,222.7-129.2,246.5-141.2,8.3-3.6,11.9-11.9,11.9-23.8v-141.2c0-15.6-19.2-31.2-34.8-23.8-39.4,19.2-74.3,43.1-110,62.3-8.3,0-27.5-15.6-34.8-19.2-11.9-8.3-23.8-15.6-34.8-23.8v-3.6c55-31.2,110-62.3,164-93.5,8.3,0,23.8-19.2,31.2-15.6,31.2,19.2,62.3,34.8,93.5,55v258.5h0l3.6-3.6v.9h0Z"/>
  </g>
</svg>