<?xml version="1.0" encoding="UTF-8"?>
<svg id="Layer_1" data-name="Layer 1" xmlns="http://www.w3.org/2000/svg" xmlns:xlink="http://www.w3.org/1999/xlink" viewBox="0 0 35.76 35.76">
  <defs>
    <style>
      .cls-1 {
        fill: url(#linear-gradient-15);
      }

      .cls-2 {
        fill: url(#linear-gradient-13);
      }

      .cls-3 {
        fill: url(#linear-gradient-28);
      }

      .cls-4 {
        fill: url(#linear-gradient-2);
      }

      .cls-5 {
        fill: #050a19;
      }

      .cls-6 {
        fill: url(#linear-gradient-25);
      }

      .cls-7 {
        fill: url(#linear-gradient-10);
      }

      .cls-8 {
        fill: url(#linear-gradient-12);
      }

      .cls-9 {
        fill: url(#linear-gradient-27);
      }

      .cls-10 {
        fill: url(#linear-gradient-26);
      }

      .cls-11 {
        fill: url(#linear-gradient-4);
      }

      .cls-12 {
        fill: url(#radial-gradient);
      }

      .cls-13 {
        fill: url(#linear-gradient-3);
      }

      .cls-14 {
        fill: url(#linear-gradient-5);
      }

      .cls-15 {
        fill: url(#linear-gradient-22);
      }

      .cls-16 {
        fill: url(#linear-gradient-24);
      }

      .cls-17 {
        fill: url(#linear-gradient-8);
      }

      .cls-18 {
        fill: url(#linear-gradient-14);
      }

      .cls-19 {
        fill: url(#linear-gradient-20);
      }

      .cls-20 {
        fill: url(#linear-gradient-17);
      }

      .cls-21 {
        fill: url(#linear-gradient-7);
      }

      .cls-22 {
        fill: url(#linear-gradient-9);
      }

      .cls-23 {
        fill: url(#linear-gradient-11);
      }

      .cls-24 {
        fill: url(#linear-gradient-19);
      }

      .cls-25 {
        fill: url(#linear-gradient-6);
      }

      .cls-26 {
        fill: url(#linear-gradient-21);
      }

      .cls-27 {
        fill: url(#linear-gradient-16);
      }

      .cls-28 {
        fill: url(#linear-gradient);
      }

      .cls-29 {
        fill: url(#linear-gradient-23);
      }

      .cls-30 {
        fill: url(#linear-gradient-18);
      }
    </style>
    <radialGradient id="radial-gradient" cx="1.96" cy="-20.89" fx="1.96" fy="-20.89" r="36.37" gradientTransform="translate(1.73 31.26) rotate(45)" gradientUnits="userSpaceOnUse">
      <stop offset="0" stop-color="#fff"/>
      <stop offset=".15" stop-color="#fafbfe"/>
      <stop offset=".3" stop-color="#eef1fe"/>
      <stop offset=".45" stop-color="#dae1fd"/>
      <stop offset=".6" stop-color="#becafc"/>
      <stop offset=".75" stop-color="#99acfa"/>
      <stop offset=".9" stop-color="#6d88f8"/>
      <stop offset="1" stop-color="#4a6cf7"/>
    </radialGradient>
    <linearGradient id="linear-gradient" x1="-12.98" y1="-15.79" x2="15.17" y2="-42.19" gradientTransform="translate(1.73 31.26) rotate(45)" gradientUnits="userSpaceOnUse">
      <stop offset="0" stop-color="#49baff"/>
      <stop offset=".2" stop-color="#49b3fe"/>
      <stop offset=".5" stop-color="#49a1fc"/>
      <stop offset=".8" stop-color="#4983f9"/>
      <stop offset="1" stop-color="#4a6cf7"/>
    </linearGradient>
    <linearGradient id="linear-gradient-2" x1="-15.86" y1="-18.86" x2="12.29" y2="-45.26" xlink:href="#linear-gradient"/>
    <linearGradient id="linear-gradient-3" x1="-10.17" y1="-12.8" x2="17.98" y2="-39.2" xlink:href="#linear-gradient"/>
    <linearGradient id="linear-gradient-4" x1="-13.05" y1="-15.87" x2="15.1" y2="-42.26" xlink:href="#linear-gradient"/>
    <linearGradient id="linear-gradient-5" x1="-14.61" y1="-17.53" x2="13.54" y2="-43.93" gradientTransform="translate(23.41 39.35)" xlink:href="#linear-gradient"/>
    <linearGradient id="linear-gradient-6" x1="-14.45" y1="-17.36" x2="13.7" y2="-43.76" gradientTransform="translate(58.9 11.4) rotate(-90)" xlink:href="#linear-gradient"/>
    <linearGradient id="linear-gradient-7" x1="-11.81" y1="-14.54" x2="16.34" y2="-40.94" gradientTransform="translate(21.66 43.58)" xlink:href="#linear-gradient"/>
    <linearGradient id="linear-gradient-8" x1="-7.17" y1="-9.6" x2="20.97" y2="-36" xlink:href="#linear-gradient"/>
    <linearGradient id="linear-gradient-9" x1="-4.47" y1="-6.72" x2="23.68" y2="-33.12" xlink:href="#linear-gradient"/>
    <linearGradient id="linear-gradient-10" x1="-4.18" y1="-6.41" x2="23.97" y2="-32.81" xlink:href="#linear-gradient"/>
    <linearGradient id="linear-gradient-11" x1="-1.48" y1="-3.53" x2="26.67" y2="-29.93" xlink:href="#linear-gradient"/>
    <linearGradient id="linear-gradient-12" x1="-5.62" y1="-7.95" x2="22.52" y2="-34.35" gradientTransform="translate(50.49 33.76) rotate(-90)" xlink:href="#linear-gradient"/>
    <linearGradient id="linear-gradient-13" x1="-2.97" y1="-5.12" x2="25.18" y2="-31.52" gradientTransform="translate(40.1 5.41) rotate(-180)" xlink:href="#linear-gradient"/>
    <linearGradient id="linear-gradient-14" x1="-2.64" y1="-4.77" x2="25.51" y2="-31.17" gradientTransform="translate(40.28 37.99) rotate(-90)" xlink:href="#linear-gradient"/>
    <linearGradient id="linear-gradient-15" x1="-4.08" y1="-6.3" x2="24.07" y2="-32.7" xlink:href="#linear-gradient"/>
    <linearGradient id="linear-gradient-16" x1="-1.2" y1="-3.23" x2="26.95" y2="-29.63" xlink:href="#linear-gradient"/>
    <linearGradient id="linear-gradient-17" x1="-6.89" y1="-9.29" x2="21.26" y2="-35.69" xlink:href="#linear-gradient"/>
    <linearGradient id="linear-gradient-18" x1="-4.01" y1="-6.23" x2="24.14" y2="-32.62" xlink:href="#linear-gradient"/>
    <linearGradient id="linear-gradient-19" x1="-2.45" y1="-4.56" x2="25.7" y2="-30.96" gradientTransform="translate(18.44 15.08) rotate(-180)" xlink:href="#linear-gradient"/>
    <linearGradient id="linear-gradient-20" x1="-2.61" y1="-4.73" x2="25.54" y2="-31.13" gradientTransform="translate(.49 24.26) rotate(90)" xlink:href="#linear-gradient"/>
    <linearGradient id="linear-gradient-21" x1="-5.25" y1="-7.55" x2="22.9" y2="-33.95" gradientTransform="translate(8.24 10.85) rotate(-180)" xlink:href="#linear-gradient"/>
    <linearGradient id="linear-gradient-22" x1="-9.89" y1="-12.5" x2="18.26" y2="-38.9" xlink:href="#linear-gradient"/>
    <linearGradient id="linear-gradient-23" x1="-12.59" y1="-15.38" x2="15.56" y2="-41.78" xlink:href="#linear-gradient"/>
    <linearGradient id="linear-gradient-24" x1="-12.88" y1="-15.69" x2="15.26" y2="-42.09" xlink:href="#linear-gradient"/>
    <linearGradient id="linear-gradient-25" x1="-15.58" y1="-18.57" x2="12.56" y2="-44.97" xlink:href="#linear-gradient"/>
    <linearGradient id="linear-gradient-26" x1="-11.44" y1="-14.15" x2="16.71" y2="-40.55" gradientTransform="translate(-8.77 20.78) rotate(90)" xlink:href="#linear-gradient"/>
    <linearGradient id="linear-gradient-27" x1="-14.09" y1="-16.98" x2="14.05" y2="-43.38" gradientTransform="translate(19.41 30.37)" xlink:href="#linear-gradient"/>
    <linearGradient id="linear-gradient-28" x1="-14.42" y1="-17.33" x2="13.72" y2="-43.73" gradientTransform="translate(-10.52 16.55) rotate(90)" xlink:href="#linear-gradient"/>
  </defs>
  <g>
    <path class="cls-12" d="M29.56,18.52l2.33,2.33c.35.35.93.35,1.28,0l2.33-2.33c.35-.35.35-.93,0-1.28l-2.33-2.33c-.35-.35-.93-.35-1.28,0l-2.33,2.33c-.12.12-.2.27-.24.43h-6.7c-.04-.27-.16-.53-.37-.73l-3.43-3.43c-.21-.21-.47-.33-.73-.37v-6.7c.16-.04.31-.11.43-.24l2.33-2.33c.35-.35.35-.93,0-1.28l-2.33-2.33c-.35-.35-.93-.35-1.28,0l-2.33,2.33c-.35.35-.35.93,0,1.28l2.33,2.33c.12.12.27.2.43.24v6.7c-.27.04-.53.16-.73.37l-3.43,3.43c-.21.21-.33.47-.37.73h-6.7c-.04-.16-.11-.31-.24-.43l-2.33-2.33c-.35-.35-.93-.35-1.28,0l-2.33,2.33c-.35.35-.35.93,0,1.28l2.33,2.33c.35.35.93.35,1.28,0l2.33-2.33c.12-.12.2-.27.24-.43h6.7c.04.27.16.53.37.73l3.43,3.43c.21.21.47.33.73.37v6.7c-.16.04-.31.11-.43.24l-2.33,2.33c-.35.35-.35.93,0,1.28l2.33,2.33c.35.35.93.35,1.28,0l2.33-2.33c.35-.35.35-.93,0-1.28l-2.33-2.33c-.12-.12-.27-.2-.43-.24v-6.7c.27-.04.53-.16.73-.37l3.43-3.43c.21-.21.33-.47.37-.73h6.7c.04.16.11.31.24.43Z"/>
    <g>
      <circle class="cls-28" cx="19.99" cy="11.44" r="1.52"/>
      <circle class="cls-4" cx="24.07" cy="7.36" r="1.52"/>
      <circle class="cls-13" cx="24.24" cy="15.69" r="1.52"/>
      <circle class="cls-11" cx="28.32" cy="11.61" r="1.52"/>
      <rect class="cls-14" x="22" y="6.31" width=".67" height="5.64" transform="translate(13 -13.12) rotate(45)"/>
      <rect class="cls-25" x="25.87" y="6.17" width=".67" height="6.65" transform="translate(51.44 -2.32) rotate(135)"/>
      <rect class="cls-21" x="26.22" y="10.54" width=".67" height="5.64" transform="translate(17.23 -14.87) rotate(45)"/>
    </g>
    <g>
      <circle class="cls-17" cx="24.32" cy="20.07" r="1.52"/>
      <circle class="cls-22" cx="28.4" cy="24.15" r="1.52"/>
      <circle class="cls-7" cx="20.07" cy="24.32" r="1.52"/>
      <circle class="cls-23" cx="24.15" cy="28.4" r="1.52"/>
      <rect class="cls-8" x="26.29" y="19.59" width=".67" height="5.64" transform="translate(61.3 19.43) rotate(135)"/>
      <rect class="cls-2" x="25.93" y="22.96" width=".67" height="6.65" transform="translate(26.26 63.44) rotate(-135)"/>
      <rect class="cls-18" x="22.06" y="23.82" width=".67" height="5.64" transform="translate(57.07 29.64) rotate(135)"/>
    </g>
    <g>
      <circle class="cls-1" cx="15.77" cy="24.32" r="1.52"/>
      <circle class="cls-27" cx="11.69" cy="28.4" r="1.52"/>
      <circle class="cls-20" cx="11.53" cy="20.08" r="1.52"/>
      <circle class="cls-30" cx="7.45" cy="24.16" r="1.52"/>
      <rect class="cls-24" x="13.1" y="23.81" width=".67" height="5.64" transform="translate(4.1 54.96) rotate(-135)"/>
      <rect class="cls-19" x="9.23" y="22.95" width=".67" height="6.65" transform="translate(-15.78 14.46) rotate(-45)"/>
      <rect class="cls-26" x="8.87" y="19.58" width=".67" height="5.64" transform="translate(-.12 44.76) rotate(-135)"/>
    </g>
    <g>
      <circle class="cls-15" cx="11.44" cy="15.69" r="1.52"/>
      <circle class="cls-29" cx="7.36" cy="11.61" r="1.52"/>
      <circle class="cls-16" cx="15.69" cy="11.44" r="1.52"/>
      <circle class="cls-6" cx="11.61" cy="7.36" r="1.52"/>
      <rect class="cls-10" x="8.8" y="10.53" width=".67" height="5.64" transform="translate(-6.76 10.37) rotate(-45)"/>
      <rect class="cls-9" x="9.16" y="6.15" width=".67" height="6.65" transform="translate(9.48 -3.94) rotate(45)"/>
      <rect class="cls-3" x="13.03" y="6.3" width=".67" height="5.64" transform="translate(-2.53 12.12) rotate(-45)"/>
    </g>
  </g>
  <path class="cls-5" d="M17.54,18.95v-2.18h-1.39c-.09,0-.19,0-.28-.09s-.09-.14-.09-.28,0-.19.09-.28.19-.09.28-.09h3.53c.09,0,.19,0,.28.09.09.09.09.14.09.28s0,.19-.09.28c-.09.09-.19.09-.28.09h-1.35v4.23c0,.09,0,.19-.14.28-.09.09-.19.09-.28.09s-.19,0-.28-.09c-.09-.09-.14-.19-.14-.28v-2"/>
</svg>