<?xml version="1.0" encoding="UTF-8"?>
<svg id="Layer_1" xmlns="http://www.w3.org/2000/svg" version="1.1" xmlns:xlink="http://www.w3.org/1999/xlink" viewBox="0 0 138 27">
  <!-- Generator: Adobe Illustrator 29.0.1, SVG Export Plug-In . SVG Version: 2.1.0 Build 192)  -->
  <defs>
    <style>
      .st0, .st1 {
        font-family: ToadstoolRound, 'Toadstool Round';
        font-size: 35.3px;
      }

      .st0, .st1, .st2, .st3 {
        isolation: isolate;
      }

      .st0, .st4 {
        fill: #4a6cf7;
      }

      .st5 {
        fill: url(#linear-gradient2);
      }

      .st6 {
        fill: url(#linear-gradient36);
      }

      .st7 {
        fill: url(#linear-gradient39);
      }

      .st8 {
        fill: url(#linear-gradient34);
      }

      .st9 {
        fill: url(#linear-gradient11);
      }

      .st9, .st10, .st11, .st12, .st13, .st14 {
        stroke-miterlimit: 10;
      }

      .st9, .st10, .st12, .st13, .st14 {
        stroke: #2cffea;
        stroke-width: .2px;
      }

      .st15 {
        fill: url(#linear-gradient33);
      }

      .st16, .st11, .st17 {
        fill: #050a19;
      }

      .st18 {
        fill: #0a216d;
      }

      .st19 {
        fill: url(#linear-gradient32);
      }

      .st20 {
        fill: url(#linear-gradient21);
      }

      .st21 {
        fill: url(#linear-gradient37);
      }

      .st22 {
        fill: url(#linear-gradient27);
      }

      .st10 {
        fill: url(#linear-gradient12);
      }

      .st1, .st23, .st24 {
        fill: #fff;
      }

      .st2, .st25, .st17 {
        display: none;
      }

      .st26 {
        fill: url(#linear-gradient35);
      }

      .st27 {
        fill: url(#linear-gradient26);
      }

      .st28 {
        fill: url(#linear-gradient1);
      }

      .st29 {
        fill: url(#linear-gradient18);
      }

      .st24 {
        font-family: Montserrat-ExtraBold, 'Montserrat ExtraBold';
        font-size: 21.7px;
        font-weight: 700;
        letter-spacing: 0em;
      }

      .st30 {
        fill: url(#linear-gradient23);
      }

      .st31 {
        fill: url(#linear-gradient8);
      }

      .st32 {
        font-family: Montserrat-Medium, 'Montserrat Medium';
        font-size: 12.1px;
        font-weight: 500;
      }

      .st32, .st33 {
        fill: #f69f05;
      }

      .st34 {
        fill: url(#radial-gradient);
      }

      .st35 {
        fill: url(#linear-gradient16);
      }

      .st36 {
        fill: url(#linear-gradient24);
      }

      .st37 {
        fill: url(#linear-gradient30);
      }

      .st38 {
        fill: url(#radial-gradient1);
      }

      .st11 {
        stroke: #fff;
      }

      .st39 {
        fill: url(#linear-gradient22);
      }

      .st40 {
        fill: url(#linear-gradient29);
      }

      .st12 {
        fill: url(#linear-gradient9);
      }

      .st41 {
        fill: url(#linear-gradient19);
      }

      .st13 {
        fill: url(#linear-gradient10);
      }

      .st42 {
        fill: url(#linear-gradient28);
      }

      .st43 {
        fill: url(#linear-gradient40);
      }

      .st44 {
        fill: url(#linear-gradient7);
      }

      .st45 {
        fill: url(#linear-gradient20);
      }

      .st46 {
        fill: url(#linear-gradient4);
      }

      .st47 {
        fill: url(#linear-gradient31);
      }

      .st48 {
        fill: url(#linear-gradient14);
      }

      .st49 {
        fill: url(#linear-gradient5);
      }

      .st50 {
        fill: url(#linear-gradient3);
      }

      .st51 {
        fill: url(#linear-gradient38);
      }

      .st52 {
        fill: url(#linear-gradient25);
      }

      .st53 {
        fill: #304698;
      }

      .st54 {
        fill: url(#linear-gradient15);
      }

      .st55 {
        fill: url(#linear-gradient17);
      }

      .st56 {
        fill: url(#radial-gradient2);
      }

      .st14 {
        fill: url(#linear-gradient13);
      }

      .st57 {
        fill: url(#linear-gradient6);
      }

      .st58 {
        fill: url(#linear-gradient);
      }

      .st59 {
        fill: url(#linear-gradient41);
      }
    </style>
    <linearGradient id="linear-gradient" x1=".6" y1="8.2" x2="19.4" y2="27" gradientTransform="translate(0 28) scale(1 -1)" gradientUnits="userSpaceOnUse">
      <stop offset="0" stop-color="#49baff"/>
      <stop offset=".2" stop-color="#49b3fe"/>
      <stop offset=".5" stop-color="#49a1fc"/>
      <stop offset=".8" stop-color="#4983f9"/>
      <stop offset="1" stop-color="#4a6cf7"/>
    </linearGradient>
    <linearGradient id="linear-gradient1" x1="-2.6" y1="11.4" x2="16.2" y2="30.2" gradientTransform="translate(0 28) scale(1 -1)" gradientUnits="userSpaceOnUse">
      <stop offset="0" stop-color="#49baff"/>
      <stop offset=".2" stop-color="#49b3fe"/>
      <stop offset=".5" stop-color="#49a1fc"/>
      <stop offset=".8" stop-color="#4983f9"/>
      <stop offset="1" stop-color="#4a6cf7"/>
    </linearGradient>
    <linearGradient id="linear-gradient2" x1="1.5" y1="7.3" x2="20.3" y2="26.1" gradientTransform="translate(0 28) scale(1 -1)" gradientUnits="userSpaceOnUse">
      <stop offset="0" stop-color="#49baff"/>
      <stop offset=".2" stop-color="#49b3fe"/>
      <stop offset=".5" stop-color="#49a1fc"/>
      <stop offset=".8" stop-color="#4983f9"/>
      <stop offset="1" stop-color="#4a6cf7"/>
    </linearGradient>
    <linearGradient id="linear-gradient3" x1="10.9" y1="-2.1" x2="29.7" y2="16.6" gradientTransform="translate(0 28) scale(1 -1)" gradientUnits="userSpaceOnUse">
      <stop offset="0" stop-color="#49baff"/>
      <stop offset=".2" stop-color="#49b3fe"/>
      <stop offset=".5" stop-color="#49a1fc"/>
      <stop offset=".8" stop-color="#4983f9"/>
      <stop offset="1" stop-color="#4a6cf7"/>
    </linearGradient>
    <linearGradient id="linear-gradient4" x1="7.7" y1="1" x2="26.6" y2="19.8" gradientTransform="translate(0 28) scale(1 -1)" gradientUnits="userSpaceOnUse">
      <stop offset="0" stop-color="#49baff"/>
      <stop offset=".2" stop-color="#49b3fe"/>
      <stop offset=".5" stop-color="#49a1fc"/>
      <stop offset=".8" stop-color="#4983f9"/>
      <stop offset="1" stop-color="#4a6cf7"/>
    </linearGradient>
    <linearGradient id="linear-gradient5" x1="6.8" y1="2" x2="25.6" y2="20.8" gradientTransform="translate(0 28) scale(1 -1)" gradientUnits="userSpaceOnUse">
      <stop offset="0" stop-color="#49baff"/>
      <stop offset=".2" stop-color="#49b3fe"/>
      <stop offset=".5" stop-color="#49a1fc"/>
      <stop offset=".8" stop-color="#4983f9"/>
      <stop offset="1" stop-color="#4a6cf7"/>
    </linearGradient>
    <linearGradient id="linear-gradient6" x1="7.8" y1=".9" x2="26.7" y2="19.7" gradientTransform="translate(0 28) scale(1 -1)" gradientUnits="userSpaceOnUse">
      <stop offset="0" stop-color="#49baff"/>
      <stop offset=".2" stop-color="#49b3fe"/>
      <stop offset=".5" stop-color="#49a1fc"/>
      <stop offset=".8" stop-color="#4983f9"/>
      <stop offset="1" stop-color="#4a6cf7"/>
    </linearGradient>
    <linearGradient id="linear-gradient7" x1=".7" y1="8.1" x2="19.5" y2="26.9" gradientTransform="translate(0 28) scale(1 -1)" gradientUnits="userSpaceOnUse">
      <stop offset="0" stop-color="#49baff"/>
      <stop offset=".2" stop-color="#49b3fe"/>
      <stop offset=".5" stop-color="#49a1fc"/>
      <stop offset=".8" stop-color="#4983f9"/>
      <stop offset="1" stop-color="#4a6cf7"/>
    </linearGradient>
    <linearGradient id="linear-gradient8" x1=".6" y1="8.2" x2="19.5" y2="26.9" gradientTransform="translate(0 28) scale(1 -1)" gradientUnits="userSpaceOnUse">
      <stop offset="0" stop-color="#49baff"/>
      <stop offset=".2" stop-color="#49b3fe"/>
      <stop offset=".5" stop-color="#49a1fc"/>
      <stop offset=".8" stop-color="#4983f9"/>
      <stop offset="1" stop-color="#4a6cf7"/>
    </linearGradient>
    <radialGradient id="radial-gradient" cx="14" cy="14.5" fx="14" fy="14.5" r="27.8" gradientTransform="translate(0 28) scale(1 -1)" gradientUnits="userSpaceOnUse">
      <stop offset="0" stop-color="#fff"/>
      <stop offset="0" stop-color="#f8f9fe"/>
      <stop offset=".3" stop-color="#e6ebfd"/>
      <stop offset=".5" stop-color="#c8d2fc"/>
      <stop offset=".7" stop-color="#9fb1fa"/>
      <stop offset=".9" stop-color="#6a86f8"/>
      <stop offset="1" stop-color="#4a6cf7"/>
    </radialGradient>
    <linearGradient id="linear-gradient9" x1="10.1" y1="9.4" x2="16.5" y2="4.7" gradientTransform="matrix(1,0,0,1,0,0)" xlink:href="#linear-gradient6"/>
    <linearGradient id="linear-gradient10" x1="10.1" y1="22.3" x2="16.5" y2="17.6" gradientTransform="matrix(1,0,0,1,0,0)" xlink:href="#linear-gradient6"/>
    <linearGradient id="linear-gradient11" x1="16.5" y1="15.8" x2="22.9" y2="11.2" gradientTransform="matrix(1,0,0,1,0,0)" xlink:href="#linear-gradient6"/>
    <linearGradient id="linear-gradient12" x1="22.7" y1="10.9" x2="22.7" y2="10.9" gradientTransform="matrix(1,0,0,1,0,0)" xlink:href="#linear-gradient6"/>
    <linearGradient id="linear-gradient13" x1="3.6" y1="15.8" x2="10.1" y2="11.2" gradientTransform="matrix(1,0,0,1,0,0)" xlink:href="#linear-gradient6"/>
    <radialGradient id="radial-gradient1" cx="13.3" cy="13.5" fx="13.3" fy="13.5" r="22.6" gradientUnits="userSpaceOnUse">
      <stop offset="0" stop-color="#fff"/>
      <stop offset=".1" stop-color="#fafbfe"/>
      <stop offset=".3" stop-color="#eef1fe"/>
      <stop offset=".4" stop-color="#dae1fd"/>
      <stop offset=".6" stop-color="#becafc"/>
      <stop offset=".7" stop-color="#99acfa"/>
      <stop offset=".9" stop-color="#6d88f8"/>
      <stop offset="1" stop-color="#4a6cf7"/>
    </radialGradient>
    <radialGradient id="radial-gradient2" cx="14.7" cy="13.2" fx="14.7" fy="13.2" gradientTransform="translate(13.6 -6.6) rotate(45)" xlink:href="#radial-gradient1"/>
    <linearGradient id="linear-gradient14" x1="5.5" y1="16.3" x2="22.9" y2="0" gradientTransform="translate(13.6 -6.6) rotate(45)" xlink:href="#linear-gradient"/>
    <linearGradient id="linear-gradient15" x1="3.7" y1="14.4" x2="21.1" y2="-1.9" gradientTransform="translate(13.6 -6.6) rotate(45)" xlink:href="#linear-gradient"/>
    <linearGradient id="linear-gradient16" x1="7.2" y1="18.2" x2="24.7" y2="1.8" gradientTransform="translate(13.6 -6.6) rotate(45)" xlink:href="#linear-gradient"/>
    <linearGradient id="linear-gradient17" x1="5.4" y1="16.3" x2="22.9" y2="0" gradientTransform="translate(13.6 -6.6) rotate(45)" xlink:href="#linear-gradient"/>
    <linearGradient id="linear-gradient18" x1="4.5" y1="15.3" x2="21.9" y2="-1.1" gradientTransform="translate(4.6 .4)" xlink:href="#linear-gradient"/>
    <linearGradient id="linear-gradient19" x1="4.6" y1="15.4" x2="22" y2="-1" gradientTransform="translate(14.1 22.7) rotate(-90)" xlink:href="#linear-gradient"/>
    <linearGradient id="linear-gradient20" x1="6.2" y1="17.1" x2="23.7" y2=".7" gradientTransform="translate(3.6 3)" xlink:href="#linear-gradient"/>
    <linearGradient id="linear-gradient21" x1="9.1" y1="20.2" x2="26.5" y2="3.8" gradientTransform="translate(13.6 -6.6) rotate(45)" xlink:href="#linear-gradient"/>
    <linearGradient id="linear-gradient22" x1="10.8" y1="22" x2="28.2" y2="5.6" gradientTransform="translate(13.6 -6.6) rotate(45)" xlink:href="#linear-gradient"/>
    <linearGradient id="linear-gradient23" x1="10.9" y1="22.2" x2="28.4" y2="5.8" gradientTransform="translate(13.6 -6.6) rotate(45)" xlink:href="#linear-gradient"/>
    <linearGradient id="linear-gradient24" x1="12.6" y1="23.9" x2="30.1" y2="7.6" gradientTransform="translate(13.6 -6.6) rotate(45)" xlink:href="#linear-gradient"/>
    <linearGradient id="linear-gradient25" x1="10" y1="21.2" x2="27.5" y2="4.8" gradientTransform="translate(8.8 36.6) rotate(-90)" xlink:href="#linear-gradient"/>
    <linearGradient id="linear-gradient26" x1="11.7" y1="23" x2="29.1" y2="6.6" gradientTransform="translate(42.1 31.6) rotate(-180)" xlink:href="#linear-gradient"/>
    <linearGradient id="linear-gradient27" x1="11.9" y1="23.2" x2="29.3" y2="6.8" gradientTransform="translate(2.5 39.2) rotate(-90)" xlink:href="#linear-gradient"/>
    <linearGradient id="linear-gradient28" x1="11" y1="22.2" x2="28.5" y2="5.8" gradientTransform="translate(13.6 -6.6) rotate(45)" xlink:href="#linear-gradient"/>
    <linearGradient id="linear-gradient29" x1="12.8" y1="24.1" x2="30.2" y2="7.8" gradientTransform="translate(13.6 -6.6) rotate(45)" xlink:href="#linear-gradient"/>
    <linearGradient id="linear-gradient30" x1="9.3" y1="20.4" x2="26.7" y2="4" gradientTransform="translate(13.6 -6.6) rotate(45)" xlink:href="#linear-gradient"/>
    <linearGradient id="linear-gradient31" x1="11" y1="22.3" x2="28.5" y2="5.9" gradientTransform="translate(13.6 -6.6) rotate(45)" xlink:href="#linear-gradient"/>
    <linearGradient id="linear-gradient32" x1="12" y1="23.3" x2="29.5" y2="6.9" gradientTransform="translate(28.6 37.6) rotate(-180)" xlink:href="#linear-gradient"/>
    <linearGradient id="linear-gradient33" x1="11.9" y1="23.2" x2="29.4" y2="6.8" gradientTransform="translate(30.1 3.6) rotate(90)" xlink:href="#linear-gradient"/>
    <linearGradient id="linear-gradient34" x1="10.3" y1="21.4" x2="27.7" y2="5.1" gradientTransform="translate(22.3 34.9) rotate(-180)" xlink:href="#linear-gradient"/>
    <linearGradient id="linear-gradient35" x1="7.4" y1="18.4" x2="24.9" y2="2" gradientTransform="translate(13.6 -6.6) rotate(45)" xlink:href="#linear-gradient"/>
    <linearGradient id="linear-gradient36" x1="5.7" y1="16.6" x2="23.2" y2=".2" gradientTransform="translate(13.6 -6.6) rotate(45)" xlink:href="#linear-gradient"/>
    <linearGradient id="linear-gradient37" x1="5.5" y1="16.4" x2="23" y2="0" gradientTransform="translate(13.6 -6.6) rotate(45)" xlink:href="#linear-gradient"/>
    <linearGradient id="linear-gradient38" x1="3.9" y1="14.6" x2="21.3" y2="-1.8" gradientTransform="translate(13.6 -6.6) rotate(45)" xlink:href="#linear-gradient"/>
    <linearGradient id="linear-gradient39" x1="6.4" y1="17.4" x2="23.9" y2="1" gradientTransform="translate(24.3 1.4) rotate(90)" xlink:href="#linear-gradient"/>
    <linearGradient id="linear-gradient40" x1="4.8" y1="15.6" x2="22.2" y2="-.8" gradientTransform="translate(2.2 -5.2)" xlink:href="#linear-gradient"/>
    <linearGradient id="linear-gradient41" x1="4.6" y1="15.4" x2="22" y2="-1" gradientTransform="translate(23.3 -1.2) rotate(90)" xlink:href="#linear-gradient"/>
  </defs>
  <rect class="st17" x="-98.9" y="-63.7" width="290.3" height="145.7"/>
  <g class="st25">
    <g class="st2">
      <text class="st1" transform="translate(-23.4 -165)"><tspan x="0" y="0">LORAFLOW</tspan></text>
    </g>
    <g class="st2">
      <text class="st0" transform="translate(-24.5 -165)"><tspan x="0" y="0">LORA</tspan></text>
    </g>
    <circle class="st11" cx="75.3" cy="-187.9" r="1.7"/>
    <circle class="st11" cx="83.7" cy="-187.9" r="1.7"/>
    <circle class="st11" cx="107.9" cy="-177.2" r="1.7"/>
    <circle class="st11" cx="123.4" cy="-188.4" r="1.7"/>
    <circle class="st11" cx="137.5" cy="-188.4" r="1.7"/>
    <circle class="st11" cx="151.1" cy="-188.4" r="1.7"/>
    <circle class="st11" cx="75.3" cy="-177.2" r="1.7"/>
    <circle class="st11" cx="93.8" cy="-166.7" r="1.7"/>
    <circle class="st11" cx="66.2" cy="-166.3" r="1.7"/>
  </g>
  <g>
    <path class="st23" d="M44.9,20c-1.1,0-2-.3-2.9-.8-.8-.5-1.5-1.2-2-2.1s-.7-1.9-.7-3,0-1.7.4-2.4c.3-.7.7-1.3,1.2-1.9.5-.5,1.1-.9,1.8-1.2s1.4-.4,2.2-.4,1.6.1,2.3.4,1.3.7,1.8,1.2.9,1.2,1.2,1.9.4,1.5.4,2.4-.2,2.2-.7,3.1-1.2,1.6-2,2.1-1.8.7-2.9.7h0ZM44.9,18.5c.6,0,1.1-.1,1.6-.3.9-.4,1.6-1.1,2.1-2.2.2-.5.3-1.1.3-1.8s-.2-1.6-.5-2.3c-.3-.6-.8-1.1-1.4-1.5-.6-.4-1.3-.5-2-.5s-1.5.2-2.1.6c-.6.4-1.1.9-1.4,1.5-.3.6-.5,1.4-.5,2.2s.2,1.6.5,2.3c.3.6.8,1.1,1.4,1.5.6.4,1.3.5,2,.5Z"/>
    <path class="st23" d="M58.4,19.9c-.3,0-.6-.2-.8-.5l-2.1-4.3h-1.2v3.9c0,.2,0,.4-.2.6s-.3.2-.6.2-.4,0-.6-.2c-.2-.2-.2-.4-.2-.6v-9.8c0-.2,0-.4.2-.6.2-.2.4-.2.6-.2h2.5c.5,0,.9,0,1.3.3s.8.4,1,.7c.3.3.5.7.7,1.1.2.4.2.8.2,1.3s0,.9-.2,1.3c-.2.4-.4.8-.7,1.1s-.6.5-1,.7h0l1.9,3.8v.4c0,.2,0,.4-.2.6s-.4.3-.6.3h0ZM56,13.5c.5,0,.9-.2,1.2-.5s.4-.8.4-1.3,0-.6-.2-.9-.3-.5-.5-.6c-.2-.2-.5-.2-.9-.2h-1.7v3.5h1.7Z"/>
    <path class="st23" d="M70.1,19.9c-.4,0-.7-.2-.8-.5l-1-2.5h-4.2l-1,2.5c-.2.3-.4.5-.7.5s-.4,0-.6-.2c-.2-.2-.2-.3-.2-.6s0-.2,0-.3l4.1-10c0-.3.3-.4.6-.4s.4.1.6.4l4.1,10v.3c0,.2,0,.4-.2.6s-.3.2-.6.2h0ZM67.7,15.3l-1.5-3.7-1.5,3.7h3Z"/>
    <path class="st4" d="M74,19.9c-.2,0-.4,0-.6-.2-.2-.1-.2-.3-.2-.6v-9.8c0-.2,0-.4.2-.6.2-.2.4-.2.6-.2h4.3c.2,0,.4,0,.6.2s.2.3.2.6,0,.4-.2.6-.3.2-.6.2h-3.5v3.4h3.3c.2,0,.4,0,.6.2s.2.3.2.5,0,.4-.2.6c-.2.2-.3.2-.6.2h-3.3v4.1c0,.2,0,.4-.2.6s-.3.2-.6.2Z"/>
    <path class="st4" d="M86.6,19.9h-4.5c-.2,0-.4,0-.6-.2s-.2-.4-.2-.6v-9.8c0-.2,0-.4.2-.6.2-.2.4-.2.6-.2s.4,0,.6.2.2.4.2.6v9.1h3.7c.2,0,.4,0,.6.2s.2.3.2.6,0,.4-.2.6-.3.2-.6.2h0Z"/>
    <path class="st4" d="M93.3,20c-1.1,0-2-.3-2.9-.8-.8-.5-1.5-1.2-2-2.1s-.7-1.9-.7-3,0-1.7.4-2.4.7-1.3,1.2-1.9c.5-.5,1.1-.9,1.8-1.2.7-.3,1.4-.4,2.2-.4s1.6.1,2.3.4,1.3.7,1.8,1.2.9,1.2,1.2,1.9c.3.7.4,1.5.4,2.4s-.2,2.2-.7,3.1-1.2,1.6-2,2.1-1.8.7-2.9.7h-.1ZM93.3,18.5c.6,0,1.1-.1,1.6-.3.9-.4,1.6-1.1,2.1-2.2.2-.5.3-1.1.3-1.8s-.2-1.6-.5-2.3c-.3-.6-.8-1.1-1.4-1.5s-1.3-.5-2-.5-1.5.2-2.1.6c-.6.4-1.1.9-1.4,1.5s-.5,1.4-.5,2.2.2,1.6.5,2.3c.3.7.8,1.1,1.4,1.5s1.3.5,2,.5Z"/>
    <path class="st4" d="M109.9,19.9c-.3,0-.4-.1-.6-.4l-2.4-7.2-2.5,7.3c0,.3-.3.4-.6.4s-.4-.1-.6-.4l-3.5-10v-.3c0-.2,0-.4.2-.6.2-.2.3-.2.6-.2s.4,0,.5.1c0,0,.2.2.3.4l2.5,7.4,2.5-7.5c0-.3.3-.4.6-.4s.4.1.6.4l2.4,7.4,2.7-7.3c.2-.4.4-.5.8-.5s.4,0,.6.2.2.3.2.6v.3l-3.6,10c0,.3-.3.4-.6.4h0Z"/>
  </g>
  <path class="st53" d="M106.5-30.8h.3-.3Z"/>
  <path class="st23" d="M33.6,14.7v-4.7h-3c-.2,0-.4,0-.6-.2s-.2-.3-.2-.6,0-.4.2-.6.4-.2.6-.2h7.6c.2,0,.4,0,.6.2.2.2.2.3.2.6s0,.4-.2.6c-.2.2-.4.2-.6.2h-2.9v9.1c0,.2,0,.4-.3.6-.2.2-.4.2-.6.2s-.4,0-.6-.2c-.2-.2-.3-.4-.3-.6v-4.3"/>
  <g class="st25">
    <g>
      <g>
        <g class="st3">
          <path class="st58" d="M17.2,7.3c.3.3.5.7.5,1.1,0,.9-.7,1.6-1.6,1.5-.8,0-1.5-.7-1.5-1.5s.2-.8.4-1.1.4-.6.4-1h0c0-.4-.1-.8-.4-1q-.2-.1,0,0c-.3-.3-.6-.4-1-.4h0c-.4,0-.7,0-1,.4s-.2.2,0,0c-.3.3-.4.6-.4,1h0c0,.4.1.8.4,1,.3.3.5.7.5,1.1,0,.9-.7,1.6-1.6,1.5-.8,0-1.5-.7-1.5-1.5s.2-.8.4-1.1.4-.6.4-1h0c0-.4-.1-.8-.4-1h0s-.1,0-.2-.2c0,0,0-.2-.1-.2h0c0-.2-.1-.4-.1-.6h0v-.6c0,0,.1-.2.2-.3.2-.2.4-.4.6-.5.2,0,.4,0,.6,0,.3,0,.7,0,.9.3,0,0,.1,0,.2,0,.3.3.6.4,1,.4h0c.4,0,.7,0,1-.4,0,0,.1,0,.2-.2h.9c.3,0,.7,0,.9.3,0,0,.1,0,.2,0s.2.3.3.5c0,.2.1.4.1.6h0v.2c0,.2-.1.4-.2.5h0s0,0-.1.2c-.3.3-.4.6-.4,1h0c0,.4.1.8.4,1h0Z"/>
          <path class="st28" d="M11.3,2.8c-.2,0-.5.3-.6.5.2-.2.4-.4.6-.5Z"/>
          <path class="st5" d="M17.4,5c0-.2.2-.3.2-.5,0,.2-.1.4-.2.5Z"/>
          <path class="st50" d="M17.3,23.8c-.2.2-.4.4-.6.5.2-.1.5-.3.6-.5Z"/>
          <path class="st46" d="M17.5,22.2c0,.2.1.4.1.6h0v.6c0,.1-.1.2-.2.3-.2.2-.4.4-.6.5-.2,0-.4.1-.6.1-.3,0-.7-.1-.9-.3,0,0-.1,0-.2-.1-.3-.3-.6-.4-1-.4h0c-.4,0-.7.1-1,.4,0,0-.1.1-.2.2h-.9c-.3,0-.7-.1-.9-.3,0,0-.1,0-.2-.1-.1-.1-.2-.3-.3-.5,0-.2-.1-.4-.1-.6h0v-.2c0-.2.1-.4.2-.5h0s0-.1.1-.2c.3-.3.4-.6.4-1h0c0-.4-.1-.8-.4-1-.3-.3-.5-.7-.5-1.1,0-.9.7-1.6,1.6-1.5.8,0,1.5.7,1.5,1.5s-.2.8-.4,1.1c-.3.3-.4.6-.4,1h0c0,.4.1.8.4,1q.2.1,0,0c.3.3.6.4,1,.4h0c.4,0,.7-.1,1-.4q.2-.2,0,0c.3-.3.4-.6.4-1h0c0-.4-.1-.8-.4-1-.3-.3-.5-.7-.5-1.1,0-.9.7-1.6,1.6-1.5.8,0,1.5.7,1.5,1.5s-.2.8-.4,1.1-.4.6-.4,1h0c0,.4.1.8.4,1h0l.2.2s0,.2.1.2h0Z"/>
          <path class="st49" d="M10.4,22.5c0-.2.1-.4.2-.5,0,.2-.2.3-.2.5Z"/>
        </g>
        <g>
          <path class="st57" d="M24.8,15c0,.2.1.4.1.6v.6s-.1.2-.2.3c0,0-.1.2-.2.2l-.2.2s-.2,0-.2.1c-.2,0-.4.1-.6.1h-.2c-.2,0-.4-.1-.5-.2l-.2-.2c-.3-.3-.6-.4-1-.4h0c-.4,0-.7.1-1,.4s-.7.5-1.1.5c-.9,0-1.5-.7-1.5-1.6s.7-1.5,1.6-1.5.8.2,1,.4c.3.3.6.4,1,.4h0c.4,0,.7-.1,1-.4h0c.3-.3.4-.7.4-1h0c0-.4-.1-.8-.4-1q-.2-.1,0,0c-.3-.3-.6-.4-1-.4h0c-.4,0-.7.1-1,.4-.3.3-.7.5-1.1.5-.9,0-1.5-.7-1.5-1.6s.7-1.5,1.6-1.5.8.2,1,.4c.3.3.6.4,1,.4h0c.4,0,.7-.1,1-.4,0,0,.2-.1.2-.2,0,0,.2-.1.3-.2.2,0,.4-.1.7-.1s.5,0,.7.2h.1s.2.1.2.2c0,0,.1.1.2.2,0,0,0,.2.1.2,0,.2.1.4.1.6s0,0,0,.1v.2c0,.2-.1.4-.2.5,0,0,0,.1-.2.2-.3.3-.4.6-.4,1h0c0,.4.1.8.4,1h0s.1.1.2.2h0s.1.2.2.3l-.4.3Z"/>
          <path class="st44" d="M4,17c-.2,0-.3-.2-.5-.3,0,.1.3.3.5.3Z"/>
          <path class="st31" d="M10.4,15.7c0,.8-.7,1.5-1.5,1.5s-.8-.2-1-.4c-.3-.3-.6-.4-1-.4h0c-.4,0-.7.1-1,.4,0,0-.2.1-.2.2h-.2c0,.1-.2.1-.3.1h-1c-.2,0-.3-.2-.5-.3,0-.1-.2-.3-.3-.5,0-.2,0-.4,0-.6s0,0,0-.1v-.2c0-.2,0-.4.2-.5,0,0,0-.1.2-.2.3-.3.4-.6.4-1h0c0-.4,0-.8-.4-1-.3-.3-.5-.7-.5-1.1s0-.3,0-.4v-.2s0-.2,0-.2c0,0,0-.2.2-.2,0,0,.2-.1.2-.2,0,0,.2,0,.2-.1.2,0,.4-.1.6-.1h.2s.2,0,.3.1c0,0,.2,0,.2.1,0,0,0,0,.2.2.3.3.6.4,1,.4h0c.4,0,.7-.1,1-.4.3-.3.7-.5,1.1-.5.9,0,1.6.7,1.5,1.6,0,.8-.7,1.5-1.5,1.5s-.8-.2-1-.4c-.3-.3-.6-.4-1-.4h0c-.4,0-.7.1-1,.4h0c-.3.3-.4.7-.4,1h0c0,.4,0,.8.4,1h0c.3.3.6.5,1,.5h0c.4,0,.7-.1,1-.4.3-.3.7-.5,1.1-.5.9,0,1.6.7,1.5,1.6l.3-.3Z"/>
        </g>
      </g>
      <path class="st34" d="M20.1,8h2.3c.3,0,.6-.3.6-.6v-2.3c0-.3-.3-.6-.6-.6h-2.3c-.3,0-.6.3-.6.6v2.6l-3.3,3.3c-.2-.1-.3-.2-.5-.2h-3.4c-.2,0-.4,0-.5.2l-3.3-3.3v-2.6c0-.3-.3-.6-.6-.6h-2.3c-.3,0-.6.3-.6.6v2.3c0,.3.3.6.6.6h2.6l3.3,3.3c-.1.2-.2.3-.2.5v3.4c0,.2,0,.4.2.5l-3.3,3.3h-2.6c-.3,0-.6.3-.6.6v2.3c0,.3.3.6.6.6h2.3c.3,0,.6-.3.6-.6v-2.6l3.3-3.3c.2.1.3.2.5.2h3.4c.2,0,.4,0,.5-.2l3.3,3.3v2.6c0,.3.3.6.6.6h2.3c.3,0,.6-.3.6-.6v-2.3c0-.3-.3-.6-.6-.6h-2.6l-3.3-3.3c.1-.2.2-.3.2-.5v-3.4c0-.2,0-.4-.2-.5l3.3-3.3s.2,0,.3,0Z"/>
    </g>
    <circle class="st18" cx="8.9" cy="11.4" r=".9"/>
    <circle class="st18" cx="16.1" cy="8.4" r=".9"/>
    <circle class="st18" cx="19.1" cy="15.6" r=".9"/>
    <circle class="st18" cx="11.9" cy="18.6" r=".9"/>
    <path class="st4" d="M14.2,15.5c0-1.1-.9-2-2-2,1.1,0,2-.9,2-2,0,1.1.9,2,2,2-1.1,0-2,.9-2,2Z"/>
  </g>
  <g class="st25">
    <g>
      <g>
        <g>
          <path class="st12" d="M16.1,8c.3.2.4.6.4,1,0,.8-.6,1.4-1.4,1.4-.7,0-1.3-.6-1.3-1.4,0-.4.2-.7.4-.9s.4-.5.4-.9h0c0-.4-.1-.7-.3-.9s0,0,0,0t0,0c-.2-.2-.6-.4-.9-.4h0c-.3,0-.6.1-.9.4h0c-.2.3-.4.6-.4.9h0c0,.4.1.7.4.9.3.2.4.6.4,1,0,.8-.6,1.4-1.4,1.4-.7,0-1.3-.6-1.3-1.4,0-.4.1-.7.4-.9.2-.2.4-.5.4-.9h0c0-.4-.1-.7-.3-.9,0,0,0,0,0,0,0,0-.1-.1-.2-.2-.2-.2-.2-.5-.2-.8,0-.2,0-.4.1-.5,0-.2.2-.3.3-.4.1-.1.3-.2.4-.3,0,0,.2,0,.3,0,0,0,.2,0,.3,0s.2,0,.3,0c0,0,0,0,.1,0,.1,0,.2.1.3.2,0,0,0,0,0,0,0,0,0,0,.1,0,.2.2.5.4.9.4h0c.3,0,.7-.1.9-.4,0,0,.1-.1.2-.2,0,0,.2,0,.2-.1.2,0,.3-.1.5-.1s.4,0,.6.1c.2,0,.3.2.4.3.2.2.4.6.4,1,0,.2,0,.4-.1.5,0,0,0,.1-.1.2,0,0,0,.1-.2.2-.2.2-.4.5-.4.9h0c0,.4.1.7.4.9Z"/>
          <path class="st13" d="M16.2,21c.2.2.3.5.3.9,0,0,0,.2,0,.2,0,0,0,.1,0,.2,0,0,0,0,0,0,0,.2-.2.3-.3.4-.1.1-.3.2-.4.3-.2,0-.3.1-.5.1s-.4,0-.6-.1c0,0-.1,0-.2-.1,0,0-.1,0-.2-.1t0,0c-.2-.2-.6-.4-.9-.4h0c-.3,0-.6.1-.9.4-.2.3-.6.4-1,.4s-.2,0-.3,0c0,0-.2,0-.3,0,0,0,0,0-.1,0,0,0,0,0-.1,0,0,0-.1,0-.2-.2-.3-.3-.4-.6-.4-1,0-.2,0-.4.1-.5,0,0,0-.1.1-.2,0,0,0-.1.2-.2.2-.2.4-.5.4-.9h0c0-.4-.1-.7-.4-.9-.3-.2-.4-.6-.4-1,0-.8.6-1.4,1.4-1.4.7,0,1.3.6,1.3,1.4,0,.4-.2.7-.4.9-.2.2-.4.5-.4.9h0c0,.4.1.7.3.9,0,0,0,0,0,0t0,0c.2.2.5.4.9.4h0c.3,0,.6-.1.9-.3t0,0s0,0,0,0c.2-.2.4-.5.4-.9h0c0-.4-.1-.7-.3-.9-.3-.2-.4-.6-.4-1,0-.8.6-1.4,1.4-1.4.7,0,1.3.6,1.3,1.4,0,.4-.1.7-.4.9-.2.2-.4.5-.4.9h0c0,.4.1.7.3.9h0s0,0,.1.2Z"/>
        </g>
        <g>
          <path class="st9" d="M22.8,14.8c0,.2.1.4.1.6,0,.3,0,.5-.2.8,0,0-.1.1-.2.2-.3.2-.6.4-1,.4,0,0-.2,0-.2,0,0,0-.1,0-.2,0,0,0,0,0,0,0,0,0-.1,0-.2-.1,0,0-.1,0-.2-.1-.2-.2-.6-.4-.9-.4h0c-.3,0-.7.1-.9.3-.2.3-.6.4-1,.4-.8,0-1.4-.6-1.4-1.4,0-.7.7-1.3,1.4-1.3.4,0,.7.1.9.4.2.2.6.4.9.4h0c.3,0,.7-.1.9-.4t0,0s0,0,0,0c.2-.2.4-.5.4-.9h0c0-.4-.1-.7-.4-.9t0,0c-.2-.2-.6-.4-.9-.4h0c-.3,0-.7.1-.9.4-.2.3-.6.4-1,.4-.8,0-1.4-.6-1.4-1.4,0-.7.7-1.3,1.4-1.3.4,0,.7.1.9.4.2.2.6.4.9.4h0c.3,0,.7-.1.9-.3,0,0,.1-.1.2-.2,0,0,.1,0,.2-.1.2,0,.4-.1.6-.1.2,0,.4,0,.5.1,0,0,.2,0,.2.1,0,0,.1.1.2.2.1.1.2.3.3.4,0,.2.1.4.1.6s0,0,0,0c0,0,0,.1,0,.2,0,.1,0,.2,0,.3,0,0,0,.1-.1.2,0,0,0,.1-.1.2-.2.2-.4.6-.4.9h0c0,.4.1.7.3.9,0,0,.1.1.2.2,0,0,0,.1.1.2Z"/>
          <path class="st10" d="M22.8,11.1c0-.1-.2-.3-.3-.4.1.1.2.3.3.4Z"/>
          <path class="st14" d="M10.1,15.4c0,.7-.6,1.3-1.4,1.3-.4,0-.7-.1-.9-.4-.2-.2-.5-.4-.9-.4h0c-.3,0-.6.1-.9.3,0,0-.1.1-.2.2,0,0,0,0-.1,0,0,0,0,0,0,0,0,0,0,0-.1,0-.2,0-.4.1-.6.1,0,0-.2,0-.2,0,0,0-.1,0-.2,0,0,0,0,0,0,0,0,0,0,0,0,0,0,0,0,0-.1,0,0,0-.1-.1-.2-.2-.1-.1-.2-.3-.3-.4,0-.2-.1-.4-.1-.5h0c0-.1,0-.2,0-.3,0,0,0-.2,0-.3,0,0,0-.1.1-.2,0,0,0-.1.1-.2.2-.2.4-.6.4-.9h0c0-.4-.1-.7-.3-.9-.1,0-.2-.2-.2-.3,0,0,0,0,0-.1,0-.2-.1-.3-.1-.5s0-.2,0-.3c0,0,0-.1,0-.2,0,0,0,0,0,0,0-.2.2-.3.3-.4.1-.1.3-.2.4-.3.2,0,.4-.1.6-.1.2,0,.4,0,.5.1,0,0,.1,0,.2.1,0,0,.1,0,.2.1.2.2.6.4.9.4h0c.3,0,.6-.1.9-.3.2-.3.6-.4,1-.4.8,0,1.4.6,1.4,1.4,0,.7-.6,1.3-1.4,1.3-.4,0-.7-.1-.9-.4-.2-.2-.5-.4-.9-.4h0c-.3,0-.6.1-.9.4t0,0s0,0,0,0c-.2.2-.4.6-.4.9h0c0,.4.1.7.4.9t0,0s0,0,0,0,0,0,0,0c.2.2.5.3.9.3h0c.3,0,.6-.1.9-.4.2-.3.6-.4,1-.4.8,0,1.4.6,1.4,1.4Z"/>
        </g>
      </g>
      <path class="st38" d="M18.7,8.7h2c.3,0,.6-.3.6-.6v-2c0-.3-.3-.6-.6-.6h-2c-.3,0-.6.3-.6.6v2c0,.1,0,.2,0,.3l-2.9,2.9c-.1,0-.3-.2-.5-.2h-3c-.2,0-.3,0-.5.2l-2.9-2.9c0,0,0-.2,0-.3v-2c0-.3-.3-.6-.6-.6h-2c-.3,0-.6.3-.6.6v2c0,.3.3.6.6.6h2c.1,0,.2,0,.3,0l2.9,2.9c0,.1-.2.3-.2.5v3c0,.2,0,.3.2.5l-2.9,2.9c0,0-.2,0-.3,0h-2c-.3,0-.6.3-.6.6v2c0,.3.3.6.6.6h2c.3,0,.6-.3.6-.6v-2c0-.1,0-.2,0-.3l2.9-2.9c.1,0,.3.2.5.2h3c.2,0,.3,0,.5-.2l2.9,2.9c0,0,0,.2,0,.3v2c0,.3.3.6.6.6h2c.3,0,.6-.3.6-.6v-2c0-.3-.3-.6-.6-.6h-2c-.1,0-.2,0-.3,0l-2.9-2.9c0-.1.2-.3.2-.5v-3c0-.2,0-.3-.2-.5l2.9-2.9c0,0,.2,0,.3,0Z"/>
    </g>
  </g>
  <g>
    <g>
      <text class="st24" transform="translate(81.8 435.2)"><tspan x="0" y="0">COMPANY</tspan></text>
      <text class="st32" transform="translate(97.2 450.1)"><tspan x="0" y="0">YOUR TAGLINE</tspan></text>
    </g>
    <g>
      <g>
        <g>
          <path class="st33" d="M130.2,345.1h0c0-1.4.6-2.5,1.4-3.4.9-.9,1.4-2.1,1.4-3.4,0-2.7-2.2-5-4.8-5-2.8,0-5.1,2.2-5.1,5s.6,2.7,1.6,3.6c.9.8,1.3,2,1.3,3.2h0c0,1.4-.6,2.5-1.4,3.4-.9.9-1.4,2.1-1.4,3.4,0,2.7,2.2,5,4.8,5,2.8,0,5.1-2.2,5.1-5s-.6-2.7-1.6-3.6c-.9-.8-1.3-2-1.3-3.2Z"/>
          <path class="st33" d="M143.9,345.1h0c0-1.4.6-2.5,1.4-3.4.9-.9,1.4-2.1,1.4-3.4,0-2.7-2.2-5-4.8-5-2.8,0-5.1,2.2-5.1,5s.6,2.7,1.6,3.6c.9.8,1.3,2,1.3,3.2h0c0,1.4-.6,2.5-1.4,3.4-.9.9-1.4,2.1-1.4,3.4,0,2.7,2.2,5,4.8,5,2.8,0,5.1-2.2,5.1-5s-.6-2.7-1.6-3.6c-.9-.8-1.3-2-1.3-3.2Z"/>
          <path class="st33" d="M134.9,340.4h.1c1.2,0,2.4.6,3.3,1.4.9.9,2.1,1.4,3.4,1.4,2.7,0,5-2.2,5-4.8,0-2.8-2.2-5.1-5-5.1s-2.7.6-3.6,1.6c-.8.9-2,1.3-3.2,1.3h-.1c-1.2,0-2.4-.6-3.3-1.4-.9-.9-2.1-1.4-3.4-1.4-2.7,0-5,2.2-5,4.8,0,2.8,2.2,5.1,5,5.1s2.7-.6,3.6-1.6c.8-.9,2-1.3,3.2-1.3Z"/>
          <path class="st33" d="M139.6,392h0c0,1.4-.6,2.5-1.4,3.4-.9.9-1.4,2.1-1.4,3.4,0,2.7,2.2,5,4.8,5,2.8,0,5.1-2.2,5.1-5s-.6-2.7-1.6-3.6c-.9-.8-1.3-2-1.3-3.2h0c0-1.4.6-2.5,1.4-3.4.9-.9,1.4-2.1,1.4-3.4,0-2.7-2.2-5-4.8-5-2.8,0-5.1,2.2-5.1,5s.6,2.7,1.6,3.6c.9.8,1.3,2,1.3,3.2Z"/>
          <path class="st33" d="M125.9,392h0c0,1.4-.6,2.5-1.4,3.4-.9.9-1.4,2.1-1.4,3.4,0,2.7,2.2,5,4.8,5,2.8,0,5.1-2.2,5.1-5s-.6-2.7-1.6-3.6c-.9-.8-1.3-2-1.3-3.2h0c0-1.4.6-2.5,1.4-3.4.9-.9,1.4-2.1,1.4-3.4,0-2.7-2.2-5-4.8-5-2.8,0-5.1,2.2-5.1,5s.6,2.7,1.6,3.6c.9.8,1.3,2,1.3,3.2Z"/>
          <path class="st33" d="M135,396.8h-.1c-1.2,0-2.4-.6-3.3-1.4-.9-.9-2.1-1.4-3.4-1.4-2.7,0-5,2.2-5,4.8,0,2.8,2.2,5.1,5,5.1s2.7-.6,3.6-1.6c.8-.9,2-1.3,3.2-1.3h.1c1.2,0,2.4.6,3.3,1.4.9.9,2.1,1.4,3.4,1.4,2.7,0,5-2.2,5-4.8,0-2.8-2.2-5.1-5-5.1s-2.7.6-3.6,1.6c-.8.9-2,1.3-3.2,1.3Z"/>
        </g>
        <g>
          <path class="st33" d="M158.4,363.8h.1c1.2,0,2.4.6,3.3,1.4.9.9,2.1,1.4,3.4,1.4,2.7,0,5-2.2,5-4.8,0-2.8-2.2-5.1-5-5.1s-2.7.6-3.6,1.6c-.8.9-2,1.3-3.2,1.3h-.1c-1.2,0-2.4-.6-3.3-1.4-.9-.9-2.1-1.4-3.4-1.4-2.7,0-5,2.2-5,4.8,0,2.8,2.2,5.1,5,5.1s2.7-.6,3.6-1.6c.8-.9,2-1.3,3.2-1.3Z"/>
          <path class="st33" d="M158.4,377.5h.1c1.2,0,2.4.6,3.3,1.4.9.9,2.1,1.4,3.4,1.4,2.7,0,5-2.2,5-4.8,0-2.8-2.2-5.1-5-5.1s-2.7.6-3.6,1.6c-.8.9-2,1.3-3.2,1.3h-.1c-1.2,0-2.4-.6-3.3-1.4-.9-.9-2.1-1.4-3.4-1.4-2.7,0-5,2.2-5,4.8,0,2.8,2.2,5.1,5,5.1s2.7-.6,3.6-1.6c.8-.9,2-1.3,3.2-1.3Z"/>
          <path class="st33" d="M163.1,368.5h0c0,1.4-.6,2.5-1.4,3.4-.9.9-1.4,2.1-1.4,3.4,0,2.7,2.2,5,4.8,5,2.8,0,5.1-2.2,5.1-5s-.6-2.7-1.6-3.6c-.9-.8-1.3-2-1.3-3.2h0c0-1.4.6-2.5,1.4-3.4.9-.9,1.4-2.1,1.4-3.4,0-2.7-2.2-5-4.8-5-2.8,0-5.1,2.2-5.1,5s.6,2.7,1.6,3.6c.9.8,1.3,2,1.3,3.2Z"/>
          <path class="st33" d="M111.5,373.3h-.1c-1.2,0-2.4-.6-3.3-1.4-.9-.9-2.1-1.4-3.4-1.4-2.7,0-5,2.2-5,4.8,0,2.8,2.2,5.1,5,5.1s2.7-.6,3.6-1.6c.8-.9,2-1.3,3.2-1.3h.1c1.2,0,2.4.6,3.3,1.4.9.9,2.1,1.4,3.4,1.4,2.7,0,5-2.2,5-4.8,0-2.8-2.2-5.1-5-5.1s-2.7.6-3.6,1.6c-.8.9-2,1.3-3.2,1.3Z"/>
          <path class="st33" d="M111.5,359.6h-.1c-1.2,0-2.4-.6-3.3-1.4-.9-.9-2.1-1.4-3.4-1.4-2.7,0-5,2.2-5,4.8,0,2.8,2.2,5.1,5,5.1s2.7-.6,3.6-1.6c.8-.9,2-1.3,3.2-1.3h.1c1.2,0,2.4.6,3.3,1.4.9.9,2.1,1.4,3.4,1.4,2.7,0,5-2.2,5-4.8,0-2.8-2.2-5.1-5-5.1s-2.7.6-3.6,1.6c-.8.9-2,1.3-3.2,1.3Z"/>
          <path class="st33" d="M106.7,368.6h0c0-1.4.6-2.5,1.4-3.4.9-.9,1.4-2.1,1.4-3.4,0-2.7-2.2-5-4.8-5-2.8,0-5.1,2.2-5.1,5s.6,2.7,1.6,3.6c.9.8,1.3,2,1.3,3.2h0c0,1.4-.6,2.5-1.4,3.4-.9.9-1.4,2.1-1.4,3.4,0,2.7,2.2,5,4.8,5,2.8,0,5.1-2.2,5.1-5s-.6-2.7-1.6-3.6c-.9-.8-1.3-2-1.3-3.2Z"/>
        </g>
      </g>
      <path class="st23" d="M154.7,350.9h7.5c1.1,0,2-.9,2-2v-7.5c0-1.1-.9-2-2-2h-7.5c-1.1,0-2,.9-2,2v7.5c0,.4.1.8.3,1.1l-10.8,10.8c-.5-.4-1.1-.6-1.8-.6h-11c-.7,0-1.3.2-1.8.6l-10.8-10.8c.2-.3.3-.7.3-1.1v-7.5c0-1.1-.9-2-2-2h-7.5c-1.1,0-2,.9-2,2v7.5c0,1.1.9,2,2,2h7.5c.4,0,.8-.1,1.1-.3l10.8,10.8c-.4.5-.6,1.1-.6,1.8v11c0,.7.2,1.3.6,1.8l-10.8,10.8c-.3-.2-.7-.3-1.1-.3h-7.5c-1.1,0-2,.9-2,2v7.5c0,1.1.9,2,2,2h7.5c1.1,0,2-.9,2-2v-7.5c0-.4-.1-.8-.3-1.1l10.8-10.8c.5.4,1.1.6,1.8.6h11c.7,0,1.3-.2,1.8-.6l10.8,10.8c-.2.3-.3.7-.3,1.1v7.5c0,1.1.9,2,2,2h7.5c1.1,0,2-.9,2-2v-7.5c0-1.1-.9-2-2-2h-7.5c-.4,0-.8.1-1.1.3l-10.8-10.8c.4-.5.6-1.1.6-1.8v-11c0-.7-.2-1.3-.6-1.8l10.8-10.8c.3.2.7.3,1.1.3Z"/>
      <g>
        <path class="st33" d="M175.7,348.7c-2.5,0-4.5-2-4.5-4.5s2-4.5,4.5-4.5,4.5,2,4.5,4.5-2,4.5-4.5,4.5ZM175.7,340.4c-2.1,0-3.9,1.7-3.9,3.9s1.7,3.9,3.9,3.9,3.9-1.7,3.9-3.9-1.7-3.9-3.9-3.9Z"/>
        <path class="st33" d="M177,346.6l-1-1.5c-.1,0-.2,0-.3,0h-1.2v1.5h-.7v-4.9h1.9c.6,0,1.1.2,1.5.5.4.3.5.7.5,1.2s0,.7-.3,1c-.2.3-.4.5-.8.6l1.2,1.6h-.8ZM176.6,344.3c.2-.2.3-.5.3-.8s-.1-.6-.3-.8c-.2-.2-.6-.3-1-.3h-1.2v2.2h1.2c.4,0,.8,0,1-.3Z"/>
      </g>
    </g>
  </g>
  <g>
    <path class="st56" d="M22,13.6l1.4,1.4c.2.2.6.2.8,0l1.4-1.4c.2-.2.2-.6,0-.8l-1.4-1.4c-.2-.2-.6-.2-.8,0l-1.4,1.4c0,0-.1.2-.1.3h-4.2c0-.2-.1-.3-.2-.5l-2.1-2.1c-.1-.1-.3-.2-.5-.2v-4.2c0,0,.2,0,.3-.1l1.4-1.4c.2-.2.2-.6,0-.8l-1.4-1.4c-.2-.2-.6-.2-.8,0l-1.4,1.4c-.2.2-.2.6,0,.8l1.4,1.4c0,0,.2.1.3.1v4.2c-.2,0-.3.1-.5.2l-2.1,2.1c-.1.1-.2.3-.2.5h-4.2c0,0,0-.2-.1-.3l-1.4-1.4c-.2-.2-.6-.2-.8,0l-1.4,1.4c-.2.2-.2.6,0,.8l1.4,1.4c.2.2.6.2.8,0l1.4-1.4c0,0,.1-.2.1-.3h4.2c0,.2.1.3.2.5l2.1,2.1c.1.1.3.2.5.2v4.2c0,0-.2,0-.3.1l-1.4,1.4c-.2.2-.2.6,0,.8l1.4,1.4c.2.2.6.2.8,0l1.4-1.4c.2-.2.2-.6,0-.8l-1.4-1.4c0,0-.2-.1-.3-.1v-4.2c.2,0,.3-.1.5-.2l2.1-2.1c.1-.1.2-.3.2-.5h4.2c0,0,0,.2.1.3Z"/>
    <g>
      <circle class="st48" cx="16.1" cy="9.2" r=".9"/>
      <circle class="st54" cx="18.6" cy="6.7" r=".9"/>
      <circle class="st35" cx="18.7" cy="11.8" r=".9"/>
      <circle class="st55" cx="21.2" cy="9.3" r=".9"/>
      <rect class="st29" x="17.3" y="6" width=".4" height="3.5" transform="translate(10.6 -10.1) rotate(45)"/>
      <rect class="st41" x="19.7" y="5.9" width=".4" height="4.1" transform="translate(39.6 -.5) rotate(135)"/>
      <rect class="st45" x="19.9" y="8.6" width=".4" height="3.5" transform="translate(13.2 -11.2) rotate(45)"/>
    </g>
    <g>
      <circle class="st20" cx="18.7" cy="14.5" r=".9"/>
      <circle class="st39" cx="21.3" cy="17.1" r=".9"/>
      <circle class="st30" cx="16.1" cy="17.2" r=".9"/>
      <circle class="st36" cx="18.6" cy="19.7" r=".9"/>
      <rect class="st52" x="20" y="14.2" width=".4" height="3.5" transform="translate(45.7 13) rotate(135)"/>
      <rect class="st27" x="19.7" y="16.3" width=".4" height="4.1" transform="translate(21 45.5) rotate(-135)"/>
      <rect class="st22" x="17.3" y="16.9" width=".4" height="3.5" transform="translate(43.1 19.4) rotate(135)"/>
    </g>
    <g>
      <circle class="st42" cx="13.4" cy="17.2" r=".9"/>
      <circle class="st40" cx="10.9" cy="19.7" r=".9"/>
      <circle class="st37" cx="10.8" cy="14.5" r=".9"/>
      <circle class="st47" cx="8.3" cy="17.1" r=".9"/>
      <rect class="st19" x="11.8" y="16.9" width=".4" height="3.5" transform="translate(7.3 40.2) rotate(-135)"/>
      <rect class="st15" x="9.4" y="16.3" width=".4" height="4.1" transform="translate(-10.2 12.2) rotate(-45)"/>
      <rect class="st8" x="9.2" y="14.2" width=".4" height="3.5" transform="translate(4.7 33.9) rotate(-135)"/>
    </g>
    <g>
      <circle class="st26" cx="10.7" cy="11.8" r=".9"/>
      <circle class="st6" cx="8.2" cy="9.3" r=".9"/>
      <circle class="st21" cx="13.4" cy="9.2" r=".9"/>
      <circle class="st51" cx="10.9" cy="6.7" r=".9"/>
      <rect class="st7" x="9.1" y="8.6" width=".4" height="3.5" transform="translate(-4.6 9.6) rotate(-45)"/>
      <rect class="st43" x="9.3" y="5.9" width=".4" height="4.1" transform="translate(8.4 -4.4) rotate(45)"/>
      <rect class="st59" x="11.7" y="6" width=".4" height="3.5" transform="translate(-2 10.7) rotate(-45)"/>
    </g>
  </g>
  <path class="st16" d="M14.5,13.8v-1.4h-.9c0,0-.1,0-.2,0s0,0,0-.2,0-.1,0-.2.1,0,.2,0h2.2c0,0,.1,0,.2,0,0,0,0,0,0,.2s0,.1,0,.2c0,0-.1,0-.2,0h-.8v2.6c0,0,0,.1,0,.2,0,0-.1,0-.2,0s-.1,0-.2,0c0,0,0-.1,0-.2v-1.2"/>
</svg>