<?xml version="1.0" encoding="UTF-8"?>
<svg id="Layer_1" xmlns="http://www.w3.org/2000/svg" version="1.1" viewBox="0 0 138 27">
  <!-- Generator: Adobe Illustrator 29.0.1, SVG Export Plug-In . SVG Version: 2.1.0 Build 192)  -->
  <defs>
    <style>
      .st0 {
        fill: #fff;
        font-family: GillSansMT-Bold, 'Gill Sans MT';
        font-size: 19.5px;
        font-weight: 700;
      }

      .st1 {
        display: none;
      }

      .st2 {
        fill: #304698;
      }

      .st3, .st4 {
        fill: #4a6cf7;
      }

      .st4 {
        isolation: isolate;
        opacity: .5;
      }
    </style>
  </defs>
  <g class="st1">
    <path class="st3" d="M0,0c13.8,0,25,11.2,25,25H2c-1.1,0-2-.9-2-2V0Z"/>
    <path class="st4" d="M6,25C6,11.2,17.2,0,31,0v23c0,1.1-.9,2-2,2H6Z"/>
  </g>
  <text class="st0" transform="translate(32.5 19.6) scale(.9 1)"><tspan x="0" y="0">Novameka</tspan></text>
  <text/>
  <g>
    <polygon class="st3" points="15.3 10.9 14.4 11.9 16 13.5 9 20.5 1.9 13.5 9 6.5 10.5 8 7.4 11 9.4 13 10.3 12.1 9.3 11 11.4 8.9 12.4 9.9 13.4 9 12.4 8 16.4 4 17.4 5 18.3 4.1 16.4 2.1 11.4 7 9 4.5 0 13.5 9 22.5 17.9 13.5 15.3 10.9"/>
    <polygon class="st2" points="27.8 13.5 18.8 4.5 9.8 13.5 12.4 16.1 13.4 15.1 11.8 13.5 18.8 6.5 25.9 13.5 18.8 20.5 17.3 19 20.4 16 18.4 14 17.5 14.9 18.5 16 16.4 18.1 15.3 17.1 14.4 18 15.4 19 11.4 23 10.4 22 9.4 22.9 11.4 24.9 16.4 20 18.8 22.5 27.8 13.5"/>
  </g>
</svg>