<?xml version="1.0" encoding="UTF-8"?>
<svg id="Layer_1" xmlns="http://www.w3.org/2000/svg" version="1.1" xmlns:xlink="http://www.w3.org/1999/xlink" viewBox="0 0 138 27">
  <!-- Generator: Adobe Illustrator 29.0.1, SVG Export Plug-In . SVG Version: 2.1.0 Build 192)  -->
  <defs>
    <style>
      .st0, .st1 {
        font-family: ToadstoolRound, 'Toadstool Round';
        font-size: 35.3px;
      }

      .st0, .st1, .st2, .st3, .st4, .st5 {
        isolation: isolate;
      }

      .st0, .st6 {
        fill: #4a6cf7;
      }

      .st7 {
        fill: url(#linear-gradient2);
      }

      .st8 {
        fill: url(#linear-gradient36);
      }

      .st9 {
        fill: url(#linear-gradient39);
      }

      .st10 {
        fill: url(#linear-gradient34);
      }

      .st11 {
        fill: url(#linear-gradient33);
      }

      .st12, .st13, .st14 {
        fill: #050a19;
      }

      .st15 {
        fill: url(#linear-gradient12);
      }

      .st15, .st16, .st13, .st17, .st18, .st19 {
        stroke-miterlimit: 10;
      }

      .st15, .st16, .st17, .st18, .st19 {
        stroke: #2cffea;
        stroke-width: .2px;
      }

      .st20 {
        fill: #0a216d;
      }

      .st21 {
        fill: url(#linear-gradient32);
      }

      .st22 {
        fill: url(#linear-gradient21);
      }

      .st23 {
        fill: url(#linear-gradient37);
      }

      .st24 {
        fill: url(#linear-gradient27);
      }

      .st16 {
        fill: url(#linear-gradient11);
      }

      .st1, .st25, .st5 {
        fill: #fff;
      }

      .st2, .st26, .st14 {
        display: none;
      }

      .st27 {
        fill: url(#linear-gradient35);
      }

      .st28 {
        fill: url(#linear-gradient26);
      }

      .st29 {
        fill: url(#linear-gradient1);
      }

      .st30 {
        fill: url(#linear-gradient18);
      }

      .st31 {
        fill: url(#linear-gradient23);
      }

      .st32 {
        fill: url(#linear-gradient8);
      }

      .st3 {
        font-family: ArialMT, Arial;
        font-size: 12.1px;
      }

      .st3, .st33 {
        fill: #f69f05;
      }

      .st34 {
        fill: url(#radial-gradient);
      }

      .st35 {
        fill: url(#linear-gradient16);
      }

      .st36 {
        fill: url(#linear-gradient24);
      }

      .st37 {
        fill: url(#linear-gradient30);
      }

      .st38 {
        fill: url(#radial-gradient1);
      }

      .st13 {
        stroke: #fff;
      }

      .st39 {
        fill: url(#linear-gradient22);
      }

      .st40 {
        fill: url(#linear-gradient29);
      }

      .st41 {
        fill: url(#linear-gradient19);
      }

      .st42 {
        fill: url(#linear-gradient28);
      }

      .st43 {
        fill: url(#linear-gradient40);
      }

      .st44 {
        fill: url(#linear-gradient7);
      }

      .st45 {
        fill: url(#linear-gradient20);
      }

      .st46 {
        fill: url(#linear-gradient4);
      }

      .st47 {
        fill: url(#linear-gradient31);
      }

      .st48 {
        fill: url(#linear-gradient14);
      }

      .st49 {
        fill: url(#linear-gradient5);
      }

      .st50 {
        fill: url(#linear-gradient3);
      }

      .st17 {
        fill: url(#linear-gradient9);
      }

      .st51 {
        fill: url(#linear-gradient38);
      }

      .st52 {
        fill: url(#linear-gradient25);
      }

      .st53 {
        fill: #304698;
      }

      .st54 {
        fill: url(#linear-gradient15);
      }

      .st55 {
        fill: url(#linear-gradient17);
      }

      .st56 {
        fill: url(#radial-gradient2);
      }

      .st57 {
        fill: url(#linear-gradient6);
      }

      .st5 {
        font-family: Arial-BoldMT, Arial;
        font-size: 21.7px;
        font-weight: 700;
      }

      .st18 {
        fill: url(#linear-gradient13);
      }

      .st58 {
        fill: url(#linear-gradient);
      }

      .st19 {
        fill: url(#linear-gradient10);
      }

      .st59 {
        fill: url(#linear-gradient41);
      }
    </style>
    <linearGradient id="linear-gradient" x1=".6" y1="991.8" x2="19.4" y2="973" gradientTransform="translate(0 -972)" gradientUnits="userSpaceOnUse">
      <stop offset="0" stop-color="#49baff"/>
      <stop offset=".2" stop-color="#49b3fe"/>
      <stop offset=".5" stop-color="#49a1fc"/>
      <stop offset=".8" stop-color="#4983f9"/>
      <stop offset="1" stop-color="#4a6cf7"/>
    </linearGradient>
    <linearGradient id="linear-gradient1" x1="-2.6" y1="988.6" x2="16.2" y2="969.8" gradientTransform="translate(0 -972)" gradientUnits="userSpaceOnUse">
      <stop offset="0" stop-color="#49baff"/>
      <stop offset=".2" stop-color="#49b3fe"/>
      <stop offset=".5" stop-color="#49a1fc"/>
      <stop offset=".8" stop-color="#4983f9"/>
      <stop offset="1" stop-color="#4a6cf7"/>
    </linearGradient>
    <linearGradient id="linear-gradient2" x1="1.5" y1="992.7" x2="20.3" y2="973.9" gradientTransform="translate(0 -972)" gradientUnits="userSpaceOnUse">
      <stop offset="0" stop-color="#49baff"/>
      <stop offset=".2" stop-color="#49b3fe"/>
      <stop offset=".5" stop-color="#49a1fc"/>
      <stop offset=".8" stop-color="#4983f9"/>
      <stop offset="1" stop-color="#4a6cf7"/>
    </linearGradient>
    <linearGradient id="linear-gradient3" x1="10.9" y1="1002.1" x2="29.7" y2="983.4" gradientTransform="translate(0 -972)" gradientUnits="userSpaceOnUse">
      <stop offset="0" stop-color="#49baff"/>
      <stop offset=".2" stop-color="#49b3fe"/>
      <stop offset=".5" stop-color="#49a1fc"/>
      <stop offset=".8" stop-color="#4983f9"/>
      <stop offset="1" stop-color="#4a6cf7"/>
    </linearGradient>
    <linearGradient id="linear-gradient4" x1="7.7" y1="999" x2="26.6" y2="980.2" gradientTransform="translate(0 -972)" gradientUnits="userSpaceOnUse">
      <stop offset="0" stop-color="#49baff"/>
      <stop offset=".2" stop-color="#49b3fe"/>
      <stop offset=".5" stop-color="#49a1fc"/>
      <stop offset=".8" stop-color="#4983f9"/>
      <stop offset="1" stop-color="#4a6cf7"/>
    </linearGradient>
    <linearGradient id="linear-gradient5" x1="6.8" y1="998" x2="25.6" y2="979.2" gradientTransform="translate(0 -972)" gradientUnits="userSpaceOnUse">
      <stop offset="0" stop-color="#49baff"/>
      <stop offset=".2" stop-color="#49b3fe"/>
      <stop offset=".5" stop-color="#49a1fc"/>
      <stop offset=".8" stop-color="#4983f9"/>
      <stop offset="1" stop-color="#4a6cf7"/>
    </linearGradient>
    <linearGradient id="linear-gradient6" x1="7.8" y1="999.1" x2="26.7" y2="980.3" gradientTransform="translate(0 -972)" gradientUnits="userSpaceOnUse">
      <stop offset="0" stop-color="#49baff"/>
      <stop offset=".2" stop-color="#49b3fe"/>
      <stop offset=".5" stop-color="#49a1fc"/>
      <stop offset=".8" stop-color="#4983f9"/>
      <stop offset="1" stop-color="#4a6cf7"/>
    </linearGradient>
    <linearGradient id="linear-gradient7" x1=".7" y1="991.9" x2="19.5" y2="973.1" gradientTransform="translate(0 -972)" gradientUnits="userSpaceOnUse">
      <stop offset="0" stop-color="#49baff"/>
      <stop offset=".2" stop-color="#49b3fe"/>
      <stop offset=".5" stop-color="#49a1fc"/>
      <stop offset=".8" stop-color="#4983f9"/>
      <stop offset="1" stop-color="#4a6cf7"/>
    </linearGradient>
    <linearGradient id="linear-gradient8" x1=".5" y1="991.7" x2="19.4" y2="973" gradientTransform="translate(0 -972)" gradientUnits="userSpaceOnUse">
      <stop offset="0" stop-color="#49baff"/>
      <stop offset=".2" stop-color="#49b3fe"/>
      <stop offset=".5" stop-color="#49a1fc"/>
      <stop offset=".8" stop-color="#4983f9"/>
      <stop offset="1" stop-color="#4a6cf7"/>
    </linearGradient>
    <radialGradient id="radial-gradient" cx="14" cy="985.5" fx="14" fy="985.5" r="27.8" gradientTransform="translate(0 -972)" gradientUnits="userSpaceOnUse">
      <stop offset="0" stop-color="#fff"/>
      <stop offset="0" stop-color="#f8f9fe"/>
      <stop offset=".3" stop-color="#e6ebfd"/>
      <stop offset=".5" stop-color="#c8d2fc"/>
      <stop offset=".7" stop-color="#9fb1fa"/>
      <stop offset=".9" stop-color="#6a86f8"/>
      <stop offset="1" stop-color="#4a6cf7"/>
    </radialGradient>
    <linearGradient id="linear-gradient9" x1="10.2" y1="18.4" x2="16.6" y2="23.1" gradientTransform="translate(0 28) scale(1 -1)" gradientUnits="userSpaceOnUse">
      <stop offset="0" stop-color="#49baff"/>
      <stop offset=".2" stop-color="#49b3fe"/>
      <stop offset=".5" stop-color="#49a1fc"/>
      <stop offset=".8" stop-color="#4983f9"/>
      <stop offset="1" stop-color="#4a6cf7"/>
    </linearGradient>
    <linearGradient id="linear-gradient10" x1="10.1" y1="5.6" x2="16.5" y2="10.3" gradientTransform="translate(0 28) scale(1 -1)" gradientUnits="userSpaceOnUse">
      <stop offset="0" stop-color="#49baff"/>
      <stop offset=".2" stop-color="#49b3fe"/>
      <stop offset=".5" stop-color="#49a1fc"/>
      <stop offset=".8" stop-color="#4983f9"/>
      <stop offset="1" stop-color="#4a6cf7"/>
    </linearGradient>
    <linearGradient id="linear-gradient11" x1="16.6" y1="12.1" x2="23" y2="16.7" gradientTransform="translate(0 28) scale(1 -1)" gradientUnits="userSpaceOnUse">
      <stop offset="0" stop-color="#49baff"/>
      <stop offset=".2" stop-color="#49b3fe"/>
      <stop offset=".5" stop-color="#49a1fc"/>
      <stop offset=".8" stop-color="#4983f9"/>
      <stop offset="1" stop-color="#4a6cf7"/>
    </linearGradient>
    <linearGradient id="linear-gradient12" x1="22.7" y1="17.1" x2="22.7" y2="17.1" gradientTransform="translate(0 28) scale(1 -1)" gradientUnits="userSpaceOnUse">
      <stop offset="0" stop-color="#49baff"/>
      <stop offset=".2" stop-color="#49b3fe"/>
      <stop offset=".5" stop-color="#49a1fc"/>
      <stop offset=".8" stop-color="#4983f9"/>
      <stop offset="1" stop-color="#4a6cf7"/>
    </linearGradient>
    <linearGradient id="linear-gradient13" x1="3.7" y1="12.1" x2="10.2" y2="16.7" gradientTransform="translate(0 28) scale(1 -1)" gradientUnits="userSpaceOnUse">
      <stop offset="0" stop-color="#49baff"/>
      <stop offset=".2" stop-color="#49b3fe"/>
      <stop offset=".5" stop-color="#49a1fc"/>
      <stop offset=".8" stop-color="#4983f9"/>
      <stop offset="1" stop-color="#4a6cf7"/>
    </linearGradient>
    <radialGradient id="radial-gradient1" cx="13.3" cy="14.5" fx="13.3" fy="14.5" r="22.6" gradientTransform="translate(0 28) scale(1 -1)" gradientUnits="userSpaceOnUse">
      <stop offset="0" stop-color="#fff"/>
      <stop offset="0" stop-color="#fafbfe"/>
      <stop offset=".3" stop-color="#eef1fe"/>
      <stop offset=".4" stop-color="#dae1fd"/>
      <stop offset=".6" stop-color="#becafc"/>
      <stop offset=".7" stop-color="#99acfa"/>
      <stop offset=".9" stop-color="#6d88f8"/>
      <stop offset="1" stop-color="#4a6cf7"/>
    </radialGradient>
    <radialGradient id="radial-gradient2" cx="232.4" cy="461.2" fx="232.4" fy="461.2" r="22.6" gradientTransform="translate(-475.8 174.9) rotate(45) scale(1 -1)" gradientUnits="userSpaceOnUse">
      <stop offset="0" stop-color="#fff"/>
      <stop offset="0" stop-color="#fafbfe"/>
      <stop offset=".3" stop-color="#eef1fe"/>
      <stop offset=".4" stop-color="#dae1fd"/>
      <stop offset=".6" stop-color="#becafc"/>
      <stop offset=".7" stop-color="#99acfa"/>
      <stop offset=".9" stop-color="#6d88f8"/>
      <stop offset="1" stop-color="#4a6cf7"/>
    </radialGradient>
    <linearGradient id="linear-gradient14" x1="223.2" y1="458.1" x2="240.6" y2="474.4" gradientTransform="translate(-475.8 174.9) rotate(45) scale(1 -1)" gradientUnits="userSpaceOnUse">
      <stop offset="0" stop-color="#49baff"/>
      <stop offset=".2" stop-color="#49b3fe"/>
      <stop offset=".5" stop-color="#49a1fc"/>
      <stop offset=".8" stop-color="#4983f9"/>
      <stop offset="1" stop-color="#4a6cf7"/>
    </linearGradient>
    <linearGradient id="linear-gradient15" x1="221.5" y1="459.9" x2="238.9" y2="476.2" gradientTransform="translate(-475.8 174.9) rotate(45) scale(1 -1)" gradientUnits="userSpaceOnUse">
      <stop offset="0" stop-color="#49baff"/>
      <stop offset=".2" stop-color="#49b3fe"/>
      <stop offset=".5" stop-color="#49a1fc"/>
      <stop offset=".8" stop-color="#4983f9"/>
      <stop offset="1" stop-color="#4a6cf7"/>
    </linearGradient>
    <linearGradient id="linear-gradient16" x1="224.9" y1="456.2" x2="242.4" y2="472.6" gradientTransform="translate(-475.8 174.9) rotate(45) scale(1 -1)" gradientUnits="userSpaceOnUse">
      <stop offset="0" stop-color="#49baff"/>
      <stop offset=".2" stop-color="#49b3fe"/>
      <stop offset=".5" stop-color="#49a1fc"/>
      <stop offset=".8" stop-color="#4983f9"/>
      <stop offset="1" stop-color="#4a6cf7"/>
    </linearGradient>
    <linearGradient id="linear-gradient17" x1="223.1" y1="458.1" x2="240.6" y2="474.4" gradientTransform="translate(-475.8 174.9) rotate(45) scale(1 -1)" gradientUnits="userSpaceOnUse">
      <stop offset="0" stop-color="#49baff"/>
      <stop offset=".2" stop-color="#49b3fe"/>
      <stop offset=".5" stop-color="#49a1fc"/>
      <stop offset=".8" stop-color="#4983f9"/>
      <stop offset="1" stop-color="#4a6cf7"/>
    </linearGradient>
    <linearGradient id="linear-gradient18" x1="222.2" y1="459.1" x2="239.6" y2="475.5" gradientTransform="translate(-449.6 -222.9) rotate(90) scale(1 -1)" gradientUnits="userSpaceOnUse">
      <stop offset="0" stop-color="#49baff"/>
      <stop offset=".2" stop-color="#49b3fe"/>
      <stop offset=".5" stop-color="#49a1fc"/>
      <stop offset=".8" stop-color="#4983f9"/>
      <stop offset="1" stop-color="#4a6cf7"/>
    </linearGradient>
    <linearGradient id="linear-gradient19" x1="222.3" y1="459" x2="239.7" y2="475.4" gradientTransform="translate(-448.7 -224.5) rotate(90) scale(1 -1)" gradientUnits="userSpaceOnUse">
      <stop offset="0" stop-color="#49baff"/>
      <stop offset=".2" stop-color="#49b3fe"/>
      <stop offset=".5" stop-color="#49a1fc"/>
      <stop offset=".8" stop-color="#4983f9"/>
      <stop offset="1" stop-color="#4a6cf7"/>
    </linearGradient>
    <linearGradient id="linear-gradient20" x1="223.9" y1="457.4" x2="241.4" y2="473.8" gradientTransform="translate(-447 -223.9) rotate(90) scale(1 -1)" gradientUnits="userSpaceOnUse">
      <stop offset="0" stop-color="#49baff"/>
      <stop offset=".2" stop-color="#49b3fe"/>
      <stop offset=".5" stop-color="#49a1fc"/>
      <stop offset=".8" stop-color="#4983f9"/>
      <stop offset="1" stop-color="#4a6cf7"/>
    </linearGradient>
    <linearGradient id="linear-gradient21" x1="226.8" y1="454.2" x2="244.2" y2="470.6" gradientTransform="translate(-475.8 174.9) rotate(45) scale(1 -1)" gradientUnits="userSpaceOnUse">
      <stop offset="0" stop-color="#49baff"/>
      <stop offset=".2" stop-color="#49b3fe"/>
      <stop offset=".5" stop-color="#49a1fc"/>
      <stop offset=".8" stop-color="#4983f9"/>
      <stop offset="1" stop-color="#4a6cf7"/>
    </linearGradient>
    <linearGradient id="linear-gradient22" x1="228.5" y1="452.4" x2="245.9" y2="468.8" gradientTransform="translate(-475.8 174.9) rotate(45) scale(1 -1)" gradientUnits="userSpaceOnUse">
      <stop offset="0" stop-color="#49baff"/>
      <stop offset=".2" stop-color="#49b3fe"/>
      <stop offset=".5" stop-color="#49a1fc"/>
      <stop offset=".8" stop-color="#4983f9"/>
      <stop offset="1" stop-color="#4a6cf7"/>
    </linearGradient>
    <linearGradient id="linear-gradient23" x1="228.6" y1="452.2" x2="246.1" y2="468.6" gradientTransform="translate(-475.8 174.9) rotate(45) scale(1 -1)" gradientUnits="userSpaceOnUse">
      <stop offset="0" stop-color="#49baff"/>
      <stop offset=".2" stop-color="#49b3fe"/>
      <stop offset=".5" stop-color="#49a1fc"/>
      <stop offset=".8" stop-color="#4983f9"/>
      <stop offset="1" stop-color="#4a6cf7"/>
    </linearGradient>
    <linearGradient id="linear-gradient24" x1="230.3" y1="450.5" x2="247.8" y2="466.8" gradientTransform="translate(-475.8 174.9) rotate(45) scale(1 -1)" gradientUnits="userSpaceOnUse">
      <stop offset="0" stop-color="#49baff"/>
      <stop offset=".2" stop-color="#49b3fe"/>
      <stop offset=".5" stop-color="#49a1fc"/>
      <stop offset=".8" stop-color="#4983f9"/>
      <stop offset="1" stop-color="#4a6cf7"/>
    </linearGradient>
    <linearGradient id="linear-gradient25" x1="227.8" y1="453.1" x2="245.3" y2="469.5" gradientTransform="translate(-442.9 -222.4) rotate(90) scale(1 -1)" gradientUnits="userSpaceOnUse">
      <stop offset="0" stop-color="#49baff"/>
      <stop offset=".2" stop-color="#49b3fe"/>
      <stop offset=".5" stop-color="#49a1fc"/>
      <stop offset=".8" stop-color="#4983f9"/>
      <stop offset="1" stop-color="#4a6cf7"/>
    </linearGradient>
    <linearGradient id="linear-gradient26" x1="229.5" y1="451.3" x2="246.9" y2="467.7" gradientTransform="translate(-441.2 -221.5) rotate(90) scale(1 -1)" gradientUnits="userSpaceOnUse">
      <stop offset="0" stop-color="#49baff"/>
      <stop offset=".2" stop-color="#49b3fe"/>
      <stop offset=".5" stop-color="#49a1fc"/>
      <stop offset=".8" stop-color="#4983f9"/>
      <stop offset="1" stop-color="#4a6cf7"/>
    </linearGradient>
    <linearGradient id="linear-gradient27" x1="229.6" y1="451.2" x2="247" y2="467.6" gradientTransform="translate(-441.9 -219.7) rotate(90) scale(1 -1)" gradientUnits="userSpaceOnUse">
      <stop offset="0" stop-color="#49baff"/>
      <stop offset=".2" stop-color="#49b3fe"/>
      <stop offset=".5" stop-color="#49a1fc"/>
      <stop offset=".8" stop-color="#4983f9"/>
      <stop offset="1" stop-color="#4a6cf7"/>
    </linearGradient>
    <linearGradient id="linear-gradient28" x1="228.8" y1="452.1" x2="246.3" y2="468.5" gradientTransform="translate(-475.8 174.9) rotate(45) scale(1 -1)" gradientUnits="userSpaceOnUse">
      <stop offset="0" stop-color="#49baff"/>
      <stop offset=".2" stop-color="#49b3fe"/>
      <stop offset=".5" stop-color="#49a1fc"/>
      <stop offset=".8" stop-color="#4983f9"/>
      <stop offset="1" stop-color="#4a6cf7"/>
    </linearGradient>
    <linearGradient id="linear-gradient29" x1="230.5" y1="450.3" x2="247.9" y2="466.6" gradientTransform="translate(-475.8 174.9) rotate(45) scale(1 -1)" gradientUnits="userSpaceOnUse">
      <stop offset="0" stop-color="#49baff"/>
      <stop offset=".2" stop-color="#49b3fe"/>
      <stop offset=".5" stop-color="#49a1fc"/>
      <stop offset=".8" stop-color="#4983f9"/>
      <stop offset="1" stop-color="#4a6cf7"/>
    </linearGradient>
    <linearGradient id="linear-gradient30" x1="227" y1="454" x2="244.4" y2="470.4" gradientTransform="translate(-475.8 174.9) rotate(45) scale(1 -1)" gradientUnits="userSpaceOnUse">
      <stop offset="0" stop-color="#49baff"/>
      <stop offset=".2" stop-color="#49b3fe"/>
      <stop offset=".5" stop-color="#49a1fc"/>
      <stop offset=".8" stop-color="#4983f9"/>
      <stop offset="1" stop-color="#4a6cf7"/>
    </linearGradient>
    <linearGradient id="linear-gradient31" x1="228.8" y1="452.1" x2="246.3" y2="468.5" gradientTransform="translate(-475.8 174.9) rotate(45) scale(1 -1)" gradientUnits="userSpaceOnUse">
      <stop offset="0" stop-color="#49baff"/>
      <stop offset=".2" stop-color="#49b3fe"/>
      <stop offset=".5" stop-color="#49a1fc"/>
      <stop offset=".8" stop-color="#4983f9"/>
      <stop offset="1" stop-color="#4a6cf7"/>
    </linearGradient>
    <linearGradient id="linear-gradient32" x1="229.7" y1="451.1" x2="247.2" y2="467.5" gradientTransform="translate(-443.4 -215.8) rotate(90) scale(1 -1)" gradientUnits="userSpaceOnUse">
      <stop offset="0" stop-color="#49baff"/>
      <stop offset=".2" stop-color="#49b3fe"/>
      <stop offset=".5" stop-color="#49a1fc"/>
      <stop offset=".8" stop-color="#4983f9"/>
      <stop offset="1" stop-color="#4a6cf7"/>
    </linearGradient>
    <linearGradient id="linear-gradient33" x1="229.6" y1="451.2" x2="247.1" y2="467.6" gradientTransform="translate(-444.3 -214.1) rotate(90) scale(1 -1)" gradientUnits="userSpaceOnUse">
      <stop offset="0" stop-color="#49baff"/>
      <stop offset=".2" stop-color="#49b3fe"/>
      <stop offset=".5" stop-color="#49a1fc"/>
      <stop offset=".8" stop-color="#4983f9"/>
      <stop offset="1" stop-color="#4a6cf7"/>
    </linearGradient>
    <linearGradient id="linear-gradient34" x1="228" y1="453" x2="245.4" y2="469.3" gradientTransform="translate(-446.1 -214.6) rotate(90) scale(1 -1)" gradientUnits="userSpaceOnUse">
      <stop offset="0" stop-color="#49baff"/>
      <stop offset=".2" stop-color="#49b3fe"/>
      <stop offset=".5" stop-color="#49a1fc"/>
      <stop offset=".8" stop-color="#4983f9"/>
      <stop offset="1" stop-color="#4a6cf7"/>
    </linearGradient>
    <linearGradient id="linear-gradient35" x1="225.1" y1="456" x2="242.6" y2="472.4" gradientTransform="translate(-475.8 174.9) rotate(45) scale(1 -1)" gradientUnits="userSpaceOnUse">
      <stop offset="0" stop-color="#49baff"/>
      <stop offset=".2" stop-color="#49b3fe"/>
      <stop offset=".5" stop-color="#49a1fc"/>
      <stop offset=".8" stop-color="#4983f9"/>
      <stop offset="1" stop-color="#4a6cf7"/>
    </linearGradient>
    <linearGradient id="linear-gradient36" x1="223.4" y1="457.8" x2="240.9" y2="474.2" gradientTransform="translate(-475.8 174.9) rotate(45) scale(1 -1)" gradientUnits="userSpaceOnUse">
      <stop offset="0" stop-color="#49baff"/>
      <stop offset=".2" stop-color="#49b3fe"/>
      <stop offset=".5" stop-color="#49a1fc"/>
      <stop offset=".8" stop-color="#4983f9"/>
      <stop offset="1" stop-color="#4a6cf7"/>
    </linearGradient>
    <linearGradient id="linear-gradient37" x1="223.3" y1="458" x2="240.8" y2="474.4" gradientTransform="translate(-475.8 174.9) rotate(45) scale(1 -1)" gradientUnits="userSpaceOnUse">
      <stop offset="0" stop-color="#49baff"/>
      <stop offset=".2" stop-color="#49b3fe"/>
      <stop offset=".5" stop-color="#49a1fc"/>
      <stop offset=".8" stop-color="#4983f9"/>
      <stop offset="1" stop-color="#4a6cf7"/>
    </linearGradient>
    <linearGradient id="linear-gradient38" x1="221.7" y1="459.7" x2="239.1" y2="476.1" gradientTransform="translate(-475.8 174.9) rotate(45) scale(1 -1)" gradientUnits="userSpaceOnUse">
      <stop offset="0" stop-color="#49baff"/>
      <stop offset=".2" stop-color="#49b3fe"/>
      <stop offset=".5" stop-color="#49a1fc"/>
      <stop offset=".8" stop-color="#4983f9"/>
      <stop offset="1" stop-color="#4a6cf7"/>
    </linearGradient>
    <linearGradient id="linear-gradient39" x1="224.1" y1="457" x2="241.6" y2="473.4" gradientTransform="translate(-450.1 -216.3) rotate(90) scale(1 -1)" gradientUnits="userSpaceOnUse">
      <stop offset="0" stop-color="#49baff"/>
      <stop offset=".2" stop-color="#49b3fe"/>
      <stop offset=".5" stop-color="#49a1fc"/>
      <stop offset=".8" stop-color="#4983f9"/>
      <stop offset="1" stop-color="#4a6cf7"/>
    </linearGradient>
    <linearGradient id="linear-gradient40" x1="222.5" y1="458.9" x2="239.9" y2="475.3" gradientTransform="translate(-451.8 -217.1) rotate(90) scale(1 -1)" gradientUnits="userSpaceOnUse">
      <stop offset="0" stop-color="#49baff"/>
      <stop offset=".2" stop-color="#49b3fe"/>
      <stop offset=".5" stop-color="#49a1fc"/>
      <stop offset=".8" stop-color="#4983f9"/>
      <stop offset="1" stop-color="#4a6cf7"/>
    </linearGradient>
    <linearGradient id="linear-gradient41" x1="222.4" y1="458.9" x2="239.8" y2="475.3" gradientTransform="translate(-451.1 -218.9) rotate(90) scale(1 -1)" gradientUnits="userSpaceOnUse">
      <stop offset="0" stop-color="#49baff"/>
      <stop offset=".2" stop-color="#49b3fe"/>
      <stop offset=".5" stop-color="#49a1fc"/>
      <stop offset=".8" stop-color="#4983f9"/>
      <stop offset="1" stop-color="#4a6cf7"/>
    </linearGradient>
  </defs>
  <rect class="st14" x="-98.9" y="-63.7" width="290.3" height="145.7"/>
  <g class="st26">
    <g class="st2">
      <g class="st2">
        <text class="st1" transform="translate(-23.4 -165)"><tspan x="0" y="0">LORAFLOW</tspan></text>
      </g>
    </g>
    <g class="st2">
      <g class="st2">
        <text class="st0" transform="translate(-24.5 -165)"><tspan x="0" y="0">LORA</tspan></text>
      </g>
    </g>
    <circle class="st13" cx="75.3" cy="-187.9" r="1.7"/>
    <circle class="st13" cx="83.7" cy="-187.9" r="1.7"/>
    <circle class="st13" cx="107.9" cy="-177.2" r="1.7"/>
    <circle class="st13" cx="123.4" cy="-188.4" r="1.7"/>
    <circle class="st13" cx="137.5" cy="-188.4" r="1.7"/>
    <circle class="st13" cx="151.1" cy="-188.4" r="1.7"/>
    <circle class="st13" cx="75.3" cy="-177.2" r="1.7"/>
    <circle class="st13" cx="93.8" cy="-166.7" r="1.7"/>
    <circle class="st13" cx="66.2" cy="-166.3" r="1.7"/>
  </g>
  <path class="st53" d="M106.5-30.8h.3-.3Z"/>
  <g class="st26">
    <g>
      <g>
        <g class="st4">
          <path class="st58" d="M17.2,7.3c.3.3.5.7.5,1.1,0,.9-.7,1.6-1.6,1.5-.8,0-1.5-.7-1.5-1.5s.2-.8.4-1.1.4-.6.4-1h0c0-.4-.1-.8-.4-1q-.1,0,0,0c-.3-.3-.6-.4-1-.4h0c-.4,0-.7,0-1,.4s-.2.2,0,0c-.3.3-.4.6-.4,1h0c0,.4.1.8.4,1,.3.3.5.7.5,1.1,0,.9-.7,1.6-1.6,1.5-.8,0-1.5-.7-1.5-1.5s.2-.8.4-1.1.4-.6.4-1h0c0-.4-.1-.8-.4-1h0s-.1,0-.2-.2c0,0,0-.2-.1-.2h0c0-.2-.1-.4-.1-.6h0v-.6s.1-.2.2-.3c.2-.2.4-.4.6-.5h.6c.3,0,.7,0,.9.3h.2c.3.3.6.4,1,.4h0c.4,0,.7,0,1-.4,0,0,.1,0,.2-.2h.9c.3,0,.7,0,.9.3h.2c.1,0,.2.3.3.5,0,.2.1.4.1.6h0v.2c0,.2-.1.4-.2.5h0v.2c-.4.3-.5.6-.5,1h0c0,.4.1.8.4,1h0Z"/>
          <path class="st29" d="M11.3,2.8c-.2,0-.5.3-.6.5.2-.2.4-.4.6-.5Z"/>
          <path class="st7" d="M17.4,5c0-.2.2-.3.2-.5,0,.2-.1.4-.2.5Z"/>
          <path class="st50" d="M17.3,23.8c-.2.2-.4.4-.6.5.2-.1.5-.3.6-.5Z"/>
          <path class="st46" d="M17.5,22.2c0,.2.1.4.1.6h0v.6c0,.1-.1.2-.2.3-.2.2-.4.4-.6.5-.2,0-.4.1-.6.1-.3,0-.7-.1-.9-.3,0,0-.1,0-.2-.1-.3-.3-.6-.4-1-.4h0c-.4,0-.7.1-1,.4,0,0-.1.1-.2.2h-.9c-.3,0-.7-.1-.9-.3,0,0-.1,0-.2-.1-.1-.1-.2-.3-.3-.5,0-.2-.1-.4-.1-.6h0v-.2c0-.2.1-.4.2-.5h0s0-.1.1-.2c.3-.3.4-.6.4-1h0c0-.4-.1-.8-.4-1-.3-.3-.5-.7-.5-1.1,0-.9.7-1.6,1.6-1.5.8,0,1.5.7,1.5,1.5s-.2.8-.4,1.1c-.3.3-.4.6-.4,1h0c0,.4.1.8.4,1q.1,0,0,0c.3.3.6.4,1,.4h0c.4,0,.7-.1,1-.4q.1-.1,0,0c.3-.3.4-.6.4-1h0c0-.4-.1-.8-.4-1-.3-.3-.5-.7-.5-1.1,0-.9.7-1.6,1.6-1.5.8,0,1.5.7,1.5,1.5s-.2.8-.4,1.1-.4.6-.4,1h0c0,.4.1.8.4,1h0l.2.2s0,.2.1.2h0Z"/>
          <path class="st49" d="M10.4,22.5c0-.2.1-.4.2-.5,0,.2-.2.3-.2.5Z"/>
        </g>
        <g>
          <path class="st57" d="M24.8,15c0,.2.1.4.1.6v.6s-.1.2-.2.3c0,0-.1.2-.2.2l-.2.2s-.2,0-.2.1c-.2,0-.4.1-.6.1h-.2c-.2,0-.4-.1-.5-.2l-.2-.2c-.3-.3-.6-.4-1-.4h0c-.4,0-.7.1-1,.4s-.7.5-1.1.5c-.9,0-1.5-.7-1.5-1.6s.7-1.5,1.6-1.5.8.2,1,.4c.3.3.6.4,1,.4h0c.4,0,.7-.1,1-.4h0c.3-.3.4-.7.4-1h0c0-.4-.1-.8-.4-1q-.1,0,0,0c-.3-.3-.6-.4-1-.4h0c-.4,0-.7.1-1,.4-.3.3-.7.5-1.1.5-.9,0-1.5-.7-1.5-1.6s.7-1.5,1.6-1.5.8.2,1,.4c.3.3.6.4,1,.4h0c.4,0,.7-.1,1-.4,0,0,.2-.1.2-.2,0,0,.2-.1.3-.2.2,0,.4-.1.7-.1s.5,0,.7.2h.1s.2.1.2.2c0,0,.1.1.2.2,0,0,0,.2.1.2,0,.2.1.4.1.6s0,0,0,.1v.2c0,.2-.1.4-.2.5,0,0,0,.1-.2.2-.3.3-.4.6-.4,1h0c0,.4.1.8.4,1h0s.1.1.2.2h0s.1.2.2.3c0,0-.4.3-.4.3Z"/>
          <path class="st44" d="M4,17c-.2,0-.3-.2-.5-.3,0,.1.3.3.5.3Z"/>
          <path class="st32" d="M10.4,15.7c0,.8-.7,1.5-1.5,1.5s-.8-.2-1-.4c-.3-.3-.6-.4-1-.4h0c-.4,0-.7.1-1,.4,0,0-.2.1-.2.2h-.2c0,.1-.2.1-.3.1h-1c-.2,0-.3-.2-.5-.3,0-.1-.2-.3-.3-.5v-.6c0-.2,0,0,0-.1v-.2c0-.2,0-.4.2-.5,0,0,0-.1.2-.2.3-.3.4-.6.4-1h0c0-.4,0-.8-.4-1-.3-.3-.5-.7-.5-1.1s0-.3,0-.4v-.4s0-.2.2-.2c0,0,.2-.1.2-.2,0,0,.2,0,.2-.1.2,0,.4-.1.6-.1h.2s.2,0,.3.1c0,0,.2,0,.2.1l.2.2c.3.3.6.4,1,.4h0c.4,0,.7-.1,1-.4.3-.3.7-.5,1.1-.5.9,0,1.6.7,1.5,1.6,0,.8-.7,1.5-1.5,1.5s-.8-.2-1-.4c-.3-.3-.6-.4-1-.4h0c-.4,0-.7.1-1,.4h0c-.3.3-.4.7-.4,1h0c0,.4,0,.8.4,1h0c.3.3.6.5,1,.5h0c.4,0,.7-.1,1-.4.3-.3.7-.5,1.1-.5.9,0,1.6.7,1.5,1.6,0,0,.3-.3.3-.3Z"/>
        </g>
      </g>
      <path class="st34" d="M20.1,8h2.3c.3,0,.6-.3.6-.6v-2.3c0-.3-.3-.6-.6-.6h-2.3c-.3,0-.6.3-.6.6v2.6l-3.3,3.3c-.2-.1-.3-.2-.5-.2h-3.4c-.2,0-.4,0-.5.2l-3.3-3.3v-2.6c0-.3-.3-.6-.6-.6h-2.3c-.3,0-.6.3-.6.6v2.3c0,.3.3.6.6.6h2.6l3.3,3.3c-.1.2-.2.3-.2.5v3.4c0,.2,0,.4.2.5l-3.3,3.3h-2.6c-.3,0-.6.3-.6.6v2.3c0,.3.3.6.6.6h2.3c.3,0,.6-.3.6-.6v-2.6l3.3-3.3c.2,0,.3.2.5.2h3.4c.2,0,.4,0,.5-.2l3.3,3.3v2.6c0,.3.3.6.6.6h2.3c.3,0,.6-.3.6-.6v-2.3c0-.3-.3-.6-.6-.6h-2.6l-3.3-3.3c.1-.2.2-.3.2-.5v-3.4c0-.2,0-.4-.2-.5l3.3-3.3s.2,0,.3,0Z"/>
    </g>
    <circle class="st20" cx="8.9" cy="11.4" r=".9"/>
    <circle class="st20" cx="16.1" cy="8.4" r=".9"/>
    <circle class="st20" cx="19.1" cy="15.6" r=".9"/>
    <circle class="st20" cx="11.9" cy="18.6" r=".9"/>
    <path class="st6" d="M14.2,15.5c0-1.1-.9-2-2-2,1.1,0,2-.9,2-2,0,1.1.9,2,2,2-1.1,0-2,.9-2,2Z"/>
  </g>
  <g class="st26">
    <g>
      <g>
        <g>
          <path class="st17" d="M16.1,8c.3.2.4.6.4,1,0,.8-.6,1.4-1.4,1.4s-1.3-.6-1.3-1.4.2-.7.4-.9.4-.5.4-.9h0c0-.4-.1-.7-.3-.9s0,0,0,0t0,0c-.2-.2-.6-.4-.9-.4h0c-.3,0-.6,0-.9.4h0c-.2.3-.4.6-.4.9h0c0,.4.1.7.4.9.3.2.4.6.4,1,0,.8-.6,1.4-1.4,1.4s-1.3-.6-1.3-1.4.1-.7.4-.9c.2-.2.4-.5.4-.9h0c0-.4-.1-.7-.3-.9h0s-.1,0-.2-.2c-.2-.2-.2-.5-.2-.8s0-.4.1-.5c0-.2.2-.3.3-.4s.3-.2.4-.3h1c.1,0,.2,0,.3.2h.1c.2.2.5.4.9.4h0c.3,0,.7,0,.9-.4,0,0,.1,0,.2-.2,0,0,.2,0,.2,0,.2,0,.3,0,.5,0s.4,0,.6,0c.2,0,.3.2.4.3.2.2.4.6.4,1s0,.4-.1.5c0,0,0,0-.1.2,0,0,0,0-.2.2-.2.2-.4.5-.4.9h0c0,.4.1.7.4.9h0Z"/>
          <path class="st19" d="M16.2,21c.2.2.3.5.3.9v.4h0c0,.2-.2.3-.3.4-.1.1-.3.2-.4.3-.2,0-.3.1-.5.1s-.4,0-.6-.1c0,0-.1,0-.2-.1,0,0-.1,0-.2-.1q0,0,0,0c-.2-.2-.6-.4-.9-.4h0c-.3,0-.6.1-.9.4-.2.3-.6.4-1,.4s-.2,0-.3,0h-.5s-.1,0-.2-.2c-.3-.3-.4-.6-.4-1s0-.4.1-.5c0,0,0-.1.1-.2,0,0,0-.1.2-.2.2-.2.4-.5.4-.9h0c0-.4-.1-.7-.4-.9-.3-.2-.4-.6-.4-1,0-.8.6-1.4,1.4-1.4s1.3.6,1.3,1.4-.2.7-.4.9c-.2.2-.4.5-.4.9h0c0,.4.1.7.3.9h0c.2.2.5.4.9.4h0c.3,0,.6-.1.9-.3q.2-.1,0,0c-.3.2,0,0,0,0,.2-.2.4-.5.4-.9h0c0-.4-.1-.7-.3-.9-.3-.2-.4-.6-.4-1,0-.8.6-1.4,1.4-1.4s1.3.6,1.3,1.4-.1.7-.4.9c-.2.2-.4.5-.4.9h0c0,.4.1.7.3.9h0v.2c.1,0,.2-.2.2-.2Z"/>
        </g>
        <g>
          <path class="st16" d="M22.8,14.8c0,.2.1.4.1.6,0,.3,0,.5-.2.8l-.2.2c-.3.2-.6.4-1,.4h-.4s-.1,0-.2-.1c0,0-.1,0-.2-.1-.2-.2-.6-.4-.9-.4h0c-.3,0-.7.1-.9.3-.2.3-.6.4-1,.4-.8,0-1.4-.6-1.4-1.4s.7-1.3,1.4-1.3.7.1.9.4c.2.2.6.4.9.4h0c.3,0,.7-.1.9-.4q.1-.2,0,0c-.2.3,0,0,0,0,.2-.2.4-.5.4-.9h0c0-.4-.1-.7-.4-.9q-.2-.1,0,0c-.2-.2-.6-.4-.9-.4h0c-.3,0-.7.1-.9.4-.2.3-.6.4-1,.4-.8,0-1.4-.6-1.4-1.4s.7-1.3,1.4-1.3.7.1.9.4c.2.2.6.4.9.4h0c.3,0,.7-.1.9-.3,0,0,.1-.1.2-.2,0,0,.1,0,.2-.1.2,0,.4-.1.6-.1s.4,0,.5.1c0,0,.2,0,.2.1,0,0,.1.1.2.2.1.1.2.3.3.4,0,.2.1.4.1.6s0,0,0,0v.5s0,.1-.1.2c0,0,0,.1-.1.2-.2.2-.4.6-.4.9h0c0,.4.1.7.3.9,0,0,.1.1.2.2,0,0,0,.1.1.2v-.3Z"/>
          <path class="st15" d="M22.8,11.1c0-.1-.2-.3-.3-.4.1.1.2.3.3.4Z"/>
          <path class="st18" d="M10.1,15.4c0,.7-.6,1.3-1.4,1.3s-.7-.1-.9-.4c-.2-.2-.5-.4-.9-.4h0c-.3,0-.6.1-.9.3l-.2.2h-.2c-.2,0-.4.1-.6.1h-.5l-.2-.2c0-.1-.2-.3-.3-.4,0-.2,0-.4,0-.5h0v-.6s0-.1,0-.2c0,0,0-.1,0-.2.2-.2.4-.6.4-.9h0c0-.4,0-.7-.3-.9,0,0-.2-.2-.2-.3h0c0-.3,0-.4,0-.6v-.5h0c0-.2.2-.3.3-.4,0-.1.3-.2.4-.3.2,0,.4-.1.6-.1s.4,0,.5.1c0,0,0,0,.2.1,0,0,0,0,.2.1.2.2.6.4.9.4h0c.3,0,.6-.1.9-.3.2-.3.6-.4,1-.4.8,0,1.4.6,1.4,1.4s-.6,1.3-1.4,1.3-.7-.1-.9-.4c-.2-.2-.5-.4-.9-.4h0c-.3,0-.6.1-.9.4q-.2.2,0,0c.3-.3,0,0,0,0-.2.2-.4.6-.4.9h0c0,.4,0,.7.4.9q.2.1,0,0c-.3-.2,0,0,0,0h0c.2.2.5.3.9.3h0c.3,0,.6-.1.9-.4.2-.3.6-.4,1-.4.8,0,1.4.6,1.4,1.4h-.3Z"/>
        </g>
      </g>
      <path class="st38" d="M18.7,8.7h2c.3,0,.6-.3.6-.6v-2c0-.3-.3-.6-.6-.6h-2c-.3,0-.6.3-.6.6v2.3l-2.9,2.9c-.1,0-.3-.2-.5-.2h-3c-.2,0-.3,0-.5.2l-2.9-2.9v-2.3c0-.3-.3-.6-.6-.6h-2c-.3,0-.6.3-.6.6v2c0,.3.3.6.6.6h2.3l2.9,2.9c0,.1-.2.3-.2.5v3c0,.2,0,.3.2.5l-2.9,2.9h-2.3c-.3,0-.6.3-.6.6v2c0,.3.3.6.6.6h2c.3,0,.6-.3.6-.6v-2.3l2.9-2.9c.1,0,.3.2.5.2h3c.2,0,.3,0,.5-.2l2.9,2.9v2.3c0,.3.3.6.6.6h2c.3,0,.6-.3.6-.6v-2c0-.3-.3-.6-.6-.6h-2.3l-2.9-2.9c0-.1.2-.3.2-.5v-3c0-.2,0-.3-.2-.5l2.9-2.9s.2,0,.3,0Z"/>
    </g>
  </g>
  <g>
    <g>
      <g class="st4">
        <text class="st5" transform="translate(81.8 435.2)"><tspan x="0" y="0">COMPANY</tspan></text>
      </g>
      <g class="st4">
        <text class="st3" transform="translate(97.2 450.1)"><tspan x="0" y="0">YOUR TAGLINE</tspan></text>
      </g>
    </g>
    <g>
      <g>
        <g>
          <path class="st33" d="M130.2,345.1h0c0-1.4.6-2.5,1.4-3.4.9-.9,1.4-2.1,1.4-3.4,0-2.7-2.2-5-4.8-5s-5.1,2.2-5.1,5,.6,2.7,1.6,3.6c.9.8,1.3,2,1.3,3.2h0c0,1.4-.6,2.5-1.4,3.4-.9.9-1.4,2.1-1.4,3.4,0,2.7,2.2,5,4.8,5s5.1-2.2,5.1-5-.6-2.7-1.6-3.6c-.9-.8-1.3-2-1.3-3.2h0Z"/>
          <path class="st33" d="M143.9,345.1h0c0-1.4.6-2.5,1.4-3.4.9-.9,1.4-2.1,1.4-3.4,0-2.7-2.2-5-4.8-5s-5.1,2.2-5.1,5,.6,2.7,1.6,3.6c.9.8,1.3,2,1.3,3.2h0c0,1.4-.6,2.5-1.4,3.4-.9.9-1.4,2.1-1.4,3.4,0,2.7,2.2,5,4.8,5s5.1-2.2,5.1-5-.6-2.7-1.6-3.6c-.9-.8-1.3-2-1.3-3.2Z"/>
          <path class="st33" d="M134.9,340.4h.1c1.2,0,2.4.6,3.3,1.4.9.9,2.1,1.4,3.4,1.4,2.7,0,5-2.2,5-4.8s-2.2-5.1-5-5.1-2.7.6-3.6,1.6c-.8.9-2,1.3-3.2,1.3h-.1c-1.2,0-2.4-.6-3.3-1.4-.9-.9-2.1-1.4-3.4-1.4-2.7,0-5,2.2-5,4.8s2.2,5.1,5,5.1,2.7-.6,3.6-1.6c.8-.9,2-1.3,3.2-1.3Z"/>
          <path class="st33" d="M139.6,392h0c0,1.4-.6,2.5-1.4,3.4-.9.9-1.4,2.1-1.4,3.4,0,2.7,2.2,5,4.8,5s5.1-2.2,5.1-5-.6-2.7-1.6-3.6c-.9-.8-1.3-2-1.3-3.2h0c0-1.4.6-2.5,1.4-3.4.9-.9,1.4-2.1,1.4-3.4,0-2.7-2.2-5-4.8-5s-5.1,2.2-5.1,5,.6,2.7,1.6,3.6c.9.8,1.3,2,1.3,3.2Z"/>
          <path class="st33" d="M125.9,392h0c0,1.4-.6,2.5-1.4,3.4-.9.9-1.4,2.1-1.4,3.4,0,2.7,2.2,5,4.8,5s5.1-2.2,5.1-5-.6-2.7-1.6-3.6c-.9-.8-1.3-2-1.3-3.2h0c0-1.4.6-2.5,1.4-3.4.9-.9,1.4-2.1,1.4-3.4,0-2.7-2.2-5-4.8-5s-5.1,2.2-5.1,5,.6,2.7,1.6,3.6c.9.8,1.3,2,1.3,3.2h0Z"/>
          <path class="st33" d="M135,396.8h-.1c-1.2,0-2.4-.6-3.3-1.4-.9-.9-2.1-1.4-3.4-1.4-2.7,0-5,2.2-5,4.8s2.2,5.1,5,5.1,2.7-.6,3.6-1.6c.8-.9,2-1.3,3.2-1.3h.1c1.2,0,2.4.6,3.3,1.4.9.9,2.1,1.4,3.4,1.4,2.7,0,5-2.2,5-4.8s-2.2-5.1-5-5.1-2.7.6-3.6,1.6c-.8.9-2,1.3-3.2,1.3Z"/>
        </g>
        <g>
          <path class="st33" d="M158.4,363.8h.1c1.2,0,2.4.6,3.3,1.4.9.9,2.1,1.4,3.4,1.4,2.7,0,5-2.2,5-4.8s-2.2-5.1-5-5.1-2.7.6-3.6,1.6c-.8.9-2,1.3-3.2,1.3h-.1c-1.2,0-2.4-.6-3.3-1.4-.9-.9-2.1-1.4-3.4-1.4-2.7,0-5,2.2-5,4.8s2.2,5.1,5,5.1,2.7-.6,3.6-1.6c.8-.9,2-1.3,3.2-1.3Z"/>
          <path class="st33" d="M158.4,377.5h.1c1.2,0,2.4.6,3.3,1.4.9.9,2.1,1.4,3.4,1.4,2.7,0,5-2.2,5-4.8s-2.2-5.1-5-5.1-2.7.6-3.6,1.6c-.8.9-2,1.3-3.2,1.3h-.1c-1.2,0-2.4-.6-3.3-1.4-.9-.9-2.1-1.4-3.4-1.4-2.7,0-5,2.2-5,4.8s2.2,5.1,5,5.1,2.7-.6,3.6-1.6c.8-.9,2-1.3,3.2-1.3Z"/>
          <path class="st33" d="M163.1,368.5h0c0,1.4-.6,2.5-1.4,3.4-.9.9-1.4,2.1-1.4,3.4,0,2.7,2.2,5,4.8,5s5.1-2.2,5.1-5-.6-2.7-1.6-3.6c-.9-.8-1.3-2-1.3-3.2h0c0-1.4.6-2.5,1.4-3.4.9-.9,1.4-2.1,1.4-3.4,0-2.7-2.2-5-4.8-5s-5.1,2.2-5.1,5,.6,2.7,1.6,3.6c.9.8,1.3,2,1.3,3.2Z"/>
          <path class="st33" d="M111.5,373.3h0c-1.2,0-2.4-.6-3.3-1.4-.9-.9-2.1-1.4-3.4-1.4-2.7,0-5,2.2-5,4.8s2.2,5.1,5,5.1,2.7-.6,3.6-1.6c.8-.9,2-1.3,3.2-1.3h0c1.2,0,2.4.6,3.3,1.4.9.9,2.1,1.4,3.4,1.4,2.7,0,5-2.2,5-4.8s-2.2-5.1-5-5.1-2.7.6-3.6,1.6c-.8.9-2,1.3-3.2,1.3Z"/>
          <path class="st33" d="M111.5,359.6h0c-1.2,0-2.4-.6-3.3-1.4-.9-.9-2.1-1.4-3.4-1.4-2.7,0-5,2.2-5,4.8s2.2,5.1,5,5.1,2.7-.6,3.6-1.6c.8-.9,2-1.3,3.2-1.3h0c1.2,0,2.4.6,3.3,1.4.9.9,2.1,1.4,3.4,1.4,2.7,0,5-2.2,5-4.8s-2.2-5.1-5-5.1-2.7.6-3.6,1.6c-.8.9-2,1.3-3.2,1.3Z"/>
          <path class="st33" d="M106.7,368.6h0c0-1.4.6-2.5,1.4-3.4.9-.9,1.4-2.1,1.4-3.4,0-2.7-2.2-5-4.8-5s-5.1,2.2-5.1,5,.6,2.7,1.6,3.6c.9.8,1.3,2,1.3,3.2h0c0,1.4-.6,2.5-1.4,3.4-.9.9-1.4,2.1-1.4,3.4,0,2.7,2.2,5,4.8,5s5.1-2.2,5.1-5-.6-2.7-1.6-3.6c-.9-.8-1.3-2-1.3-3.2Z"/>
        </g>
      </g>
      <path class="st25" d="M154.7,350.9h7.5c1.1,0,2-.9,2-2v-7.5c0-1.1-.9-2-2-2h-7.5c-1.1,0-2,.9-2,2v7.5c0,.4.1.8.3,1.1l-10.8,10.8c-.5-.4-1.1-.6-1.8-.6h-11c-.7,0-1.3.2-1.8.6l-10.8-10.8c.2-.3.3-.7.3-1.1v-7.5c0-1.1-.9-2-2-2h-7.5c-1.1,0-2,.9-2,2v7.5c0,1.1.9,2,2,2h7.5c.4,0,.8-.1,1.1-.3l10.8,10.8c-.4.5-.6,1.1-.6,1.8v11c0,.7.2,1.3.6,1.8l-10.8,10.8c-.3-.2-.7-.3-1.1-.3h-7.5c-1.1,0-2,.9-2,2v7.5c0,1.1.9,2,2,2h7.5c1.1,0,2-.9,2-2v-7.5c0-.4,0-.8-.3-1.1l10.8-10.8c.5.4,1.1.6,1.8.6h11c.7,0,1.3-.2,1.8-.6l10.8,10.8c-.2.3-.3.7-.3,1.1v7.5c0,1.1.9,2,2,2h7.5c1.1,0,2-.9,2-2v-7.5c0-1.1-.9-2-2-2h-7.5c-.4,0-.8.1-1.1.3l-10.8-10.8c.4-.5.6-1.1.6-1.8v-11c0-.7-.2-1.3-.6-1.8l10.8-10.8c.3.2.7.3,1.1.3Z"/>
      <g>
        <path class="st33" d="M175.7,348.7c-2.5,0-4.5-2-4.5-4.5s2-4.5,4.5-4.5,4.5,2,4.5,4.5-2,4.5-4.5,4.5ZM175.7,340.4c-2.1,0-3.9,1.7-3.9,3.9s1.7,3.9,3.9,3.9,3.9-1.7,3.9-3.9-1.7-3.9-3.9-3.9Z"/>
        <path class="st33" d="M177,346.6l-1-1.5h-1.5v1.5h-.7v-4.9h1.9c.6,0,1.1.2,1.5.5s.5.7.5,1.2,0,.7-.3,1c-.2.3-.4.5-.8.6l1.2,1.6h-.8,0ZM176.6,344.3c.2-.2.3-.5.3-.8s-.1-.6-.3-.8c-.2-.2-.6-.3-1-.3h-1.2v2.2h1.2c.4,0,.8,0,1-.3h0Z"/>
      </g>
    </g>
  </g>
  <g>
    <path class="st56" d="M22,13.6l1.4,1.4c.2.2.6.2.8,0l1.4-1.4c.2-.2.2-.6,0-.8l-1.4-1.4c-.2-.2-.6-.2-.8,0l-1.4,1.4s-.1.2-.1.3h-4.2c0-.2-.1-.3-.2-.5l-2.1-2.1c-.1-.1-.3-.2-.5-.2v-4.2s.2,0,.3,0l1.4-1.4c.2-.2.2-.6,0-.8l-1.4-1.4c-.2-.2-.6-.2-.8,0l-1.4,1.4c-.2.2-.2.6,0,.8l1.4,1.4s.2,0,.3,0v4.2c-.2,0-.3.1-.5.2l-2.1,2.1c-.1.1-.2.3-.2.5h-4.2s0-.2,0-.3l-1.4-1.4c-.2-.2-.6-.2-.8,0l-1.4,1.4c-.2.2-.2.6,0,.8l1.4,1.4c.2.2.6.2.8,0l1.4-1.4s0-.2,0-.3h4.2c0,.2.1.3.2.5l2.1,2.1c.1.1.3.2.5.2v4.2s-.2,0-.3.1l-1.4,1.4c-.2.2-.2.6,0,.8l1.4,1.4c.2.2.6.2.8,0l1.4-1.4c.2-.2.2-.6,0-.8l-1.4-1.4s-.2-.1-.3-.1v-4.2c.2,0,.3-.1.5-.2l2.1-2.1c.1-.1.2-.3.2-.5h4.2s0,.2,0,.3Z"/>
    <g>
      <circle class="st48" cx="16.1" cy="9.2" r=".9"/>
      <circle class="st54" cx="18.6" cy="6.7" r=".9"/>
      <circle class="st35" cx="18.7" cy="11.8" r=".9"/>
      <circle class="st55" cx="21.2" cy="9.3" r=".9"/>
      <rect class="st30" x="15.7" y="7.6" width="3.5" height=".4" transform="translate(-.4 14.6) rotate(-45)"/>
      <rect class="st41" x="19.7" y="5.9" width=".4" height="4.1" transform="translate(.2 16.4) rotate(-45)"/>
      <rect class="st45" x="18.3" y="10.1" width="3.5" height=".4" transform="translate(-1.4 17.2) rotate(-45)"/>
    </g>
    <g>
      <circle class="st22" cx="18.7" cy="14.5" r=".9"/>
      <circle class="st39" cx="21.3" cy="17.1" r=".9"/>
      <circle class="st31" cx="16.1" cy="17.2" r=".9"/>
      <circle class="st36" cx="18.6" cy="19.7" r=".9"/>
      <rect class="st52" x="19.9" y="14.3" width=".4" height="3.5" transform="translate(-5.4 18.9) rotate(-45)"/>
      <rect class="st28" x="17.9" y="18.3" width="4.1" height=".4" transform="translate(-7.2 19.5) rotate(-45)"/>
      <rect class="st24" x="17.3" y="16.8" width=".4" height="3.5" transform="translate(-8 17.8) rotate(-45)"/>
    </g>
    <g>
      <circle class="st42" cx="13.4" cy="17.2" r=".9"/>
      <circle class="st40" cx="10.9" cy="19.7" r=".9"/>
      <circle class="st37" cx="10.8" cy="14.5" r=".9"/>
      <circle class="st47" cx="8.3" cy="17.1" r=".9"/>
      <rect class="st21" x="10.3" y="18.3" width="3.5" height=".4" transform="translate(-9.6 13.9) rotate(-45)"/>
      <rect class="st11" x="9.4" y="16.3" width=".4" height="4.1" transform="translate(-10.2 12.1) rotate(-45)"/>
      <rect class="st10" x="7.6" y="15.8" width="3.5" height=".4" transform="translate(-8.6 11.3) rotate(-45)"/>
    </g>
    <g>
      <circle class="st27" cx="10.7" cy="11.8" r=".9"/>
      <circle class="st8" cx="8.2" cy="9.3" r=".9"/>
      <circle class="st23" cx="13.4" cy="9.2" r=".9"/>
      <circle class="st51" cx="10.9" cy="6.7" r=".9"/>
      <rect class="st9" x="9.1" y="8.6" width=".4" height="3.5" transform="translate(-4.6 9.6) rotate(-45)"/>
      <rect class="st43" x="7.4" y="7.7" width="4.1" height=".4" transform="translate(-2.8 9) rotate(-45)"/>
      <rect class="st59" x="11.7" y="6" width=".4" height="3.5" transform="translate(-2 10.7) rotate(-45)"/>
    </g>
  </g>
  <path class="st12" d="M14.5,13.8v-1.4h-1.1c0,0,0,0,0-.2v-.2c0,0,.1,0,.2,0h2.4v.4h-1v2.8h-.4v-1.4"/>
  <g>
    <path class="st25" d="M33.5,17.7c-.2,0-.3,0-.5-.2-.1-.1-.2-.3-.2-.5v-7.2h-2.2c-.2,0-.3,0-.4-.2-.1-.1-.2-.3-.2-.4s0-.3.2-.4c.1-.1.3-.2.4-.2h5.8c.2,0,.3,0,.4.2.1.1.2.3.2.4s0,.3-.2.4c-.1.1-.3.2-.4.2h-2.2v7.2c0,.2,0,.3-.2.5-.1.1-.3.2-.5.2Z"/>
    <path class="st25" d="M41.6,17.9c-.9,0-1.6-.2-2.3-.6-.7-.4-1.2-1-1.6-1.7-.4-.7-.6-1.5-.6-2.4s.1-1.3.3-1.9c.2-.6.5-1.1.9-1.5.4-.4.9-.7,1.4-.9.5-.2,1.1-.3,1.7-.3s1.2.1,1.8.3c.5.2,1,.6,1.4,1,.4.4.7.9.9,1.5.2.6.3,1.2.3,1.9s-.2,1.7-.6,2.4c-.4.7-.9,1.2-1.6,1.6-.7.4-1.4.6-2.3.6ZM41.6,16.6c.4,0,.9,0,1.2-.2.7-.3,1.3-.9,1.6-1.8.2-.4.2-.9.2-1.4s-.1-1.3-.4-1.8-.6-.9-1.1-1.2c-.5-.3-1-.4-1.6-.4s-1.2.1-1.6.4c-.5.3-.8.7-1.1,1.2s-.4,1.1-.4,1.8.1,1.3.4,1.8.6.9,1.1,1.2,1,.4,1.6.4Z"/>
    <path class="st25" d="M52.2,17.7c-.3,0-.5-.1-.6-.4l-1.6-3.4h-1v3.1c0,.2,0,.3-.2.5s-.3.2-.4.2-.3,0-.5-.2-.2-.3-.2-.5v-7.7c0-.2,0-.3.2-.5.1-.1.3-.2.5-.2h2c.4,0,.7,0,1,.2s.6.3.8.6c.2.2.4.5.5.8.1.3.2.7.2,1s0,.7-.2,1c-.1.3-.3.6-.5.9-.2.2-.5.4-.8.6,0,0,0,0,0,0l1.5,3c0,0,0,.2,0,.3,0,.2,0,.3-.2.5-.1.1-.3.2-.5.2ZM50.3,12.7c.4,0,.7-.1.9-.4.2-.3.3-.6.3-1s0-.5-.1-.7c0-.2-.2-.4-.4-.5-.2-.1-.4-.2-.7-.2h-1.4v2.8h1.4Z"/>
    <path class="st25" d="M61.4,17.7c-.3,0-.5-.1-.6-.4l-.8-2h-3.3l-.8,2c-.1.3-.3.4-.6.4s-.3,0-.5-.2c-.1-.1-.2-.3-.2-.4s0-.2,0-.2l3.2-7.9c0-.2.2-.3.4-.3s.3,0,.4.3l3.2,7.9c0,0,0,.2,0,.2,0,.2,0,.3-.2.4-.1.1-.3.2-.4.2ZM59.5,14.1l-1.2-2.9-1.2,2.9h2.4Z"/>
    <path class="st6" d="M64.4,17.7c-.2,0-.3,0-.5-.2-.1-.1-.2-.3-.2-.5v-7.8c0-.2,0-.3.2-.5s.3-.2.5-.2h3.4c.2,0,.3,0,.4.2.1.1.2.3.2.4s0,.3-.2.4c-.1.1-.3.2-.4.2h-2.8v2.7h2.6c.2,0,.3,0,.4.2s.2.3.2.4,0,.3-.2.4c-.1.1-.3.2-.4.2h-2.6v3.3c0,.2,0,.3-.2.4-.1.1-.3.2-.4.2Z"/>
    <path class="st6" d="M74.4,17.7h-3.5c-.2,0-.3,0-.5-.2-.1-.1-.2-.3-.2-.5v-7.7c0-.2,0-.3.2-.5.1-.1.3-.2.5-.2s.3,0,.5.2c.1.1.2.3.2.5v7.2h2.9c.2,0,.3,0,.4.2.1.1.2.3.2.4s0,.3-.2.4c-.1.1-.3.2-.4.2Z"/>
    <path class="st6" d="M79.6,17.9c-.9,0-1.6-.2-2.3-.6-.7-.4-1.2-1-1.6-1.7-.4-.7-.6-1.5-.6-2.4s.1-1.3.3-1.9c.2-.6.5-1.1.9-1.5.4-.4.9-.7,1.4-.9.5-.2,1.1-.3,1.7-.3s1.2.1,1.8.3c.5.2,1,.6,1.4,1,.4.4.7.9.9,1.5.2.6.3,1.2.3,1.9s-.2,1.7-.6,2.4c-.4.7-.9,1.2-1.6,1.6-.7.4-1.4.6-2.3.6ZM79.6,16.6c.5,0,.9,0,1.2-.2.7-.3,1.3-.9,1.6-1.8.2-.4.2-.9.2-1.4s-.1-1.3-.4-1.8-.6-.9-1.1-1.2c-.5-.3-1-.4-1.6-.4s-1.2.1-1.6.4c-.5.3-.8.7-1.1,1.2-.3.5-.4,1.1-.4,1.8s.1,1.3.4,1.8.6.9,1.1,1.2,1,.4,1.6.4Z"/>
    <path class="st6" d="M92.7,17.7c-.2,0-.4-.1-.4-.3l-1.9-5.7-2,5.7c0,.2-.2.3-.4.3s-.3-.1-.4-.3l-2.8-7.9c0,0,0-.1,0-.2,0-.2,0-.3.2-.4s.3-.2.4-.2.3,0,.4.1c.1,0,.2.2.2.3l2,5.8,2-5.9c0-.2.2-.3.4-.3s.4.1.4.3l1.9,5.8,2.1-5.8c.1-.3.3-.4.6-.4s.3,0,.4.2c.1.1.2.3.2.4s0,.1,0,.2l-2.9,7.9c0,.2-.2.3-.4.3Z"/>
  </g>
</svg>