<?xml version="1.0" encoding="UTF-8"?>
<svg id="Layer_1" xmlns="http://www.w3.org/2000/svg" version="1.1" viewBox="0 0 138 27">
  <!-- Generator: Adobe Illustrator 29.0.1, SVG Export Plug-In . SVG Version: 2.1.0 Build 192)  -->
  <defs>
    <style>
      .st0 {
        fill: #fff;
      }

      .st1 {
        display: none;
      }

      .st2 {
        fill: #4a6cf7;
      }

      .st3 {
        fill: #130c59;
      }
    </style>
  </defs>
  <rect class="st1" x="-.3" width="138.3" height="27"/>
  <g>
    <path class="st0" d="M29.2,18c-.2,0-.3,0-.5-.2,0-.1-.2-.3-.2-.5v-7.2h-2.2c-.2,0-.3,0-.4-.2-.1-.1-.2-.3-.2-.4s0-.3.2-.4c.1-.1.3-.2.4-.2h5.8c.2,0,.3,0,.4.2,0,.1.2.3.2.4s0,.3-.2.4c0,.1-.3.2-.4.2h-2.2v7.2c0,.2,0,.3-.2.5,0,.1-.3.2-.5.2Z"/>
    <path class="st0" d="M37.3,18.2c-.9,0-1.6-.2-2.3-.6s-1.2-1-1.6-1.7c-.4-.7-.6-1.5-.6-2.4s0-1.3.3-1.9c.2-.6.5-1.1,1-1.5.4-.4.9-.7,1.4-.9s1.1-.3,1.7-.3,1.2.1,1.8.3c.5.2,1,.6,1.4,1s.7.9.9,1.5.3,1.2.3,1.9-.2,1.7-.6,2.4c-.4.7-.9,1.2-1.6,1.6-.7.4-1.4.6-2.3.6h.2,0ZM37.3,16.9c.5,0,.9,0,1.3-.2.8-.3,1.3-.9,1.6-1.8.2-.4.2-.9.2-1.4s0-1.3-.4-1.8-.6-.9-1.1-1.2-1-.4-1.6-.4-1.2.1-1.6.4c-.5.3-.8.7-1.1,1.2s-.4,1.1-.4,1.8,0,1.3.4,1.8.6.9,1.1,1.2,1,.4,1.6.4Z"/>
    <path class="st0" d="M47.9,18c-.3,0-.5-.1-.6-.4l-1.6-3.4h-1v3.1c0,.2,0,.3-.2.5s-.3.2-.4.2-.3,0-.5-.2-.2-.3-.2-.5v-7.8c0-.2,0-.3.2-.5,0-.1.3-.2.5-.2h2c.4,0,.7,0,1.1.2s.6.3.8.6c.2.2.4.5.5.8s.2.7.2,1,0,.7-.2,1c0,.3-.3.6-.5.9-.2.2-.5.4-.8.6h0l1.5,3v.3c0,.2,0,.3-.2.5,0,.1-.3.2-.5.2h0ZM46.1,13c.4,0,.7-.1.9-.4.2-.3.3-.6.3-1v-.7c0-.2-.2-.4-.4-.5s-.4-.2-.7-.2h-1.4v2.8h1.4,0Z"/>
    <path class="st0" d="M57.2,18c-.3,0-.5-.1-.6-.4l-.8-2h-3.3l-.8,2c0,.3-.3.4-.6.4s-.3,0-.5-.2c0-.1-.2-.3-.2-.4v-.2l3.2-7.9c0-.2.2-.3.4-.3s.3,0,.4.3l3.2,7.9v.2c0,.2,0,.3-.2.4,0,.1-.3.2-.4.2,0,0,.2,0,.2,0ZM55.2,14.4l-1.2-2.9-1.2,2.9h2.4Z"/>
    <path class="st2" d="M60.2,18c-.2,0-.3,0-.5-.2,0-.1-.2-.3-.2-.5v-7.8c0-.2,0-.3.2-.5s.3-.2.5-.2h3.4c.2,0,.3,0,.4.2,0,.1.2.3.2.4s0,.3-.2.4c0,.1-.3.2-.4.2h-2.8v2.7h2.6c.2,0,.3,0,.4.2s.2.3.2.4,0,.3-.2.4c0,.1-.3.2-.4.2h-2.6v3.3c0,.2,0,.3-.2.4,0,.1-.3.2-.4.2,0,0,0,.2,0,.2Z"/>
    <path class="st2" d="M70.1,18h-3.5c-.2,0-.3,0-.5-.2s-.2-.3-.2-.5v-7.8c0-.2,0-.3.2-.5,0-.1.3-.2.5-.2s.3,0,.5.2c0,.1.2.3.2.5v7.2h2.9c.2,0,.3,0,.4.2,0,.1.2.3.2.4s0,.3-.2.4c0,.1-.3.2-.4.2h0Z"/>
    <path class="st2" d="M75.4,18.2c-.9,0-1.6-.2-2.3-.6-.7-.4-1.2-1-1.6-1.7s-.6-1.5-.6-2.4,0-1.3.3-1.9c.2-.6.5-1.1,1-1.5.4-.4.9-.7,1.4-.9s1.1-.3,1.7-.3,1.2.1,1.8.3c.5.2,1,.6,1.4,1s.7.9.9,1.5c.2.6.3,1.2.3,1.9s-.2,1.7-.6,2.4c-.4.7-.9,1.2-1.6,1.6s-1.4.6-2.3.6c0,0,.2,0,.2,0ZM75.4,16.9c.5,0,.9,0,1.3-.2.8-.3,1.3-.9,1.6-1.8.2-.4.2-.9.2-1.4s0-1.3-.4-1.8-.6-.9-1.1-1.2-1-.4-1.6-.4-1.2.1-1.6.4c-.5.3-.8.7-1.1,1.2-.3.5-.4,1.1-.4,1.8s0,1.3.4,1.8.6.9,1.1,1.2,1,.4,1.6.4Z"/>
    <path class="st2" d="M88.5,18c-.2,0-.4-.1-.4-.3l-1.9-5.7-2,5.7c0,.2-.2.3-.4.3s-.3-.1-.4-.3l-2.8-7.9v-.2c0-.2,0-.3.2-.4s.3-.2.4-.2.3,0,.4.1c0,0,.2.2.2.3l2,5.8,2-5.9c0-.2.2-.3.4-.3s.4.1.4.3l1.9,5.9,2.1-5.8c0-.3.3-.4.6-.4s.3,0,.4.2c0,.1.2.3.2.4v.2l-2.9,7.9c0,.2-.2.3-.4.3h0Z"/>
  </g>
  <g class="st1">
    <path class="st2" d="M17.3,11.2v-3.7c-.4-3-2.9-5.3-6-5.3s-4.4,1.4-5.4,3.4h2.2c.8-1,1.9-1.6,3.2-1.6,2,0,3.7,1.5,4.1,3.4v3.8c-.8.3-1.4,1.2-1.4,2.1s.6,1.8,1.4,2.1c.3.1.6.2.9.2s.6,0,.9-.2c.8-.3,1.4-1.2,1.4-2.1s-.6-1.8-1.4-2.1c0,0,.1,0,.1,0ZM17.3,14.4c-.2.2-.6.4-.9.4s-.7-.1-.9-.4c-.3-.2-.5-.6-.5-1s.2-.8.5-1c.2-.2.6-.4.9-.4s.7.1.9.4c.3.2.5.6.5,1s-.2.8-.5,1Z"/>
    <path class="st2" d="M13.4,7.5c-.3-.8-1.2-1.4-2.1-1.4s-1.8.6-2.1,1.4h-3.8C2.4,7.9,0,10.4,0,13.5s1.4,4.4,3.4,5.4v-2.2c-1-.8-1.6-1.9-1.6-3.2,0-2,1.5-3.7,3.4-4.1h3.9c.3.8,1.2,1.4,2.1,1.4s1.8-.6,2.1-1.4c.1-.3.2-.6.2-.9s0-.6-.2-.9h.1ZM12.3,9.3c-.2.3-.6.5-1,.5s-.8-.2-1-.5-.3-.6-.3-.9.1-.7.4-.9c.2-.3.6-.5,1-.5s.8.2,1,.5c.2.2.4.6.4.9s-.1.7-.3.9c0,0-.2,0-.2,0Z"/>
    <path class="st2" d="M19.1,8.1v2.2c1,.8,1.6,1.9,1.6,3.2,0,2-1.5,3.7-3.4,4.1h-3.9c-.3-.8-1.2-1.4-2.1-1.4s-1.8.6-2.1,1.4c-.1.3-.2.6-.2.9s0,.6.2.9c.3.8,1.2,1.4,2.1,1.4s1.8-.6,2.1-1.4h3.8c3-.4,5.3-2.9,5.3-6s-1.4-4.4-3.4-5.4h0ZM11.3,20c-.4,0-.8-.2-1-.5-.2-.2-.3-.6-.3-.9s.1-.7.4-.9c.2-.3.6-.5,1-.5s.8.2,1,.5.4.6.4.9-.1.7-.3.9c-.3.3-.6.5-1,.5,0,0-.2,0-.2,0Z"/>
    <path class="st2" d="M14.6,21.3c-.8,1-1.9,1.6-3.3,1.6-2,0-3.7-1.5-4.1-3.4v-4.1c.8-.3,1.4-1.2,1.4-2.1s-.6-1.8-1.4-2.1c-.3-.1-.6-.2-.9-.2s-.6,0-.9.2c-.8.3-1.4,1.2-1.4,2.1s.6,1.8,1.4,2.1v4c.4,3,2.9,5.3,6,5.3s4.4-1.4,5.4-3.4c0,0-2.2,0-2.2,0ZM4.8,13.4c0-.4.2-.8.5-1,.2-.2.6-.4.9-.4s.7.1.9.4c.3.2.5.6.5,1s-.2.8-.5,1c-.2.2-.6.4-.9.4s-.7-.1-.9-.4c-.3-.2-.5-.6-.5-1Z"/>
  </g>
  <g>
    <path class="st2" d="M6.3,9.8c0,0,0,0,0-.1.8-.5,1.6-.9,2.4-1.4,0,0,0,0,.1,0,.6.3,1.2.7,1.8,1,0,0,0,0,0,.1-.7.4-1.4.8-2.1,1.2-.2.1-.3.3-.3.6v7.3c0,.3.1.4.3.6,1,.6,2.1,1.2,3.1,1.8.5.3,1-.1.9-.6v-3.2c0,0,0-.1,0-.1.6-.3,1.2-.7,1.8-1,0,0,.1,0,.1,0v5.7c0,0,0,.1,0,.1-.8.5-1.6.9-2.4,1.4,0,0-.1,0-.2,0-1.8-1.1-3.7-2.1-5.5-3.2-.1,0-.1,0-.1-.2v-10.1h0Z"/>
    <path class="st2" d="M0,6.2c0,0,0-.1.1-.2,1.7-1,3.4-2,5.1-3,.2,0,.4-.3.6-.3.8.5,6.6,3.8,8.7,5,0,0,0,0,0,.2,0,.9,0,1.8,0,2.7,0,0,0,.1,0,.2-.6.3-1.2.7-1.7,1,0,0-.1,0-.1,0,0-.9,0-1.7,0-2.6-.1-.4-.6-.6-1-.8-1.3-.7-5-2.9-5.6-3.3-.2-.1-.4-.1-.7,0-.6.3-1.2.7-1.8,1-.5.3-1.1.5-1.5,1-.2.3-.1.7.2.8.9.6,1.9,1.1,2.8,1.6,0,0,0,0,0,.1,0,.7,0,1.4,0,2.1,0,0,0,0,0,0-1.6-1-3.3-1.9-4.9-2.9,0,0,0,0,0-.1,0-.5,0-2.3,0-2.7h0Z"/>
    <path class="st2" d="M20.9,10.8c-1.5,1.1-7.5,4.3-8.8,5.2,0,0-.1,0-.2,0-.8-.5-1.6-.9-2.3-1.4-.1,0-.1,0-.1-.2v-1.9c0-.1,0-.1.1,0,.7.4,1.4.8,2.1,1.2.2.1.4.1.6,0,1.5-.8,5.7-3.3,6.3-3.6.2-.1.3-.3.3-.6,0-1.2,0-2.4,0-3.6,0-.4-.5-.8-.9-.6-1,.5-1.9,1.1-2.8,1.6-.2,0-.7-.4-.9-.5-.3-.2-.6-.4-.9-.6,0,0,0,0,0-.1,1.4-.8,2.8-1.6,4.2-2.4.2,0,.6-.5.8-.4.8.5,1.6.9,2.4,1.4,0,0,0,0,0,.2,0,1.1,0,5.4,0,6.4h0Z"/>
  </g>
  <g class="st1">
    <ellipse class="st2" cx="15.4" cy="5.7" rx="2.4" ry="1.4"/>
    <ellipse class="st2" cx="3.9" cy="10.3" rx="1.6" ry="2.7" transform="translate(-4.6 3.4) rotate(-30.2)"/>
    <ellipse class="st2" cx="13.6" cy="17.8" rx="2.7" ry="1.6" transform="translate(-8.7 19.9) rotate(-58.1)"/>
    <ellipse class="st3" cx="3.9" cy="10.3" rx=".9" ry="1.5" transform="translate(-4.6 3.4) rotate(-30.2)"/>
    <ellipse class="st3" cx="15.4" cy="5.7" rx="1.4" ry=".8"/>
    <ellipse class="st3" cx="13.6" cy="17.8" rx="1.6" ry=".9" transform="translate(-8.7 19.9) rotate(-58.1)"/>
  </g>
</svg>