<?xml version="1.0" encoding="UTF-8"?>
<svg id="Layer_1" xmlns="http://www.w3.org/2000/svg" version="1.1" viewBox="0 0 138 27">
  <!-- Generator: Adobe Illustrator 29.0.1, SVG Export Plug-In . SVG Version: 2.1.0 Build 192)  -->
  <defs>
    <style>
      .st0 {
        fill: #fff;
      }

      .st1 {
        fill: #4a6cf7;
      }
    </style>
  </defs>
  <g>
    <path class="st0" d="M22,13.6l1.4,1.4c.2.2.6.2.8,0l1.4-1.4c.2-.2.2-.6,0-.8l-1.4-1.4c-.2-.2-.6-.2-.8,0l-1.4,1.4s-.1.2-.1.3h-4.2c0-.2-.1-.3-.2-.5l-2.1-2.1c-.1-.1-.3-.2-.5-.2v-4.2h.3l1.4-1.4c.2-.2.2-.6,0-.8l-1.4-1.4c-.2-.2-.6-.2-.8,0l-1.4,1.4c-.2.2-.2.6,0,.8l1.4,1.4h.3v4.2c-.2,0-.3.1-.5.2l-2.1,2.1c-.1.1-.2.3-.2.5h-4.2v-.3l-1.4-1.4c-.2-.2-.6-.2-.8,0l-1.4,1.4c-.2.2-.2.6,0,.8l1.4,1.4c.2.2.6.2.8,0l1.4-1.4v-.3h4.2c0,.2.1.3.2.5l2.1,2.1c.1.1.3.2.5.2v4.2s-.2,0-.3.1l-1.4,1.4c-.2.2-.2.6,0,.8l1.4,1.4c.2.2.6.2.8,0l1.4-1.4c.2-.2.2-.6,0-.8l-1.4-1.4s-.2-.1-.3-.1v-4.2c.2,0,.3-.1.5-.2l2.1-2.1c.1-.1.2-.3.2-.5h4.2v.3h0Z"/>
    <g>
      <circle class="st0" cx="16.1" cy="9.2" r=".9"/>
      <circle class="st0" cx="18.6" cy="6.7" r=".9"/>
      <circle class="st0" cx="18.7" cy="11.8" r=".9"/>
      <circle class="st0" cx="21.2" cy="9.3" r=".9"/>
      <rect class="st0" x="15.7" y="7.6" width="3.5" height=".4" transform="translate(-.4 14.6) rotate(-45)"/>
      <rect class="st0" x="19.7" y="5.9" width=".4" height="4.1" transform="translate(.2 16.4) rotate(-45)"/>
      <rect class="st0" x="18.3" y="10.1" width="3.5" height=".4" transform="translate(-1.4 17.2) rotate(-45)"/>
    </g>
    <g>
      <circle class="st0" cx="18.7" cy="14.5" r=".9"/>
      <circle class="st0" cx="21.3" cy="17.1" r=".9"/>
      <circle class="st0" cx="16.1" cy="17.2" r=".9"/>
      <circle class="st0" cx="18.6" cy="19.7" r=".9"/>
      <rect class="st0" x="20" y="14.3" width=".4" height="3.5" transform="translate(-5.4 19) rotate(-45)"/>
      <rect class="st0" x="17.9" y="18.3" width="4.1" height=".4" transform="translate(-7.2 19.5) rotate(-45)"/>
      <rect class="st0" x="17.3" y="16.8" width=".4" height="3.5" transform="translate(-8 17.8) rotate(-45)"/>
    </g>
    <g>
      <circle class="st0" cx="13.4" cy="17.2" r=".9"/>
      <circle class="st0" cx="10.9" cy="19.7" r=".9"/>
      <circle class="st0" cx="10.8" cy="14.5" r=".9"/>
      <circle class="st0" cx="8.3" cy="17.1" r=".9"/>
      <rect class="st0" x="10.3" y="18.3" width="3.5" height=".4" transform="translate(-9.5 13.9) rotate(-45)"/>
      <rect class="st0" x="9.4" y="16.2" width=".4" height="4.1" transform="translate(-10.1 12.1) rotate(-45)"/>
      <rect class="st0" x="7.6" y="15.8" width="3.5" height=".4" transform="translate(-8.6 11.3) rotate(-45)"/>
    </g>
    <g>
      <circle class="st0" cx="10.7" cy="11.8" r=".9"/>
      <circle class="st0" cx="8.2" cy="9.3" r=".9"/>
      <circle class="st0" cx="13.4" cy="9.2" r=".9"/>
      <circle class="st0" cx="10.9" cy="6.7" r=".9"/>
      <rect class="st0" x="9.1" y="8.6" width=".4" height="3.5" transform="translate(-4.6 9.6) rotate(-45)"/>
      <rect class="st0" x="7.4" y="7.7" width="4.1" height=".4" transform="translate(-2.8 9) rotate(-45)"/>
      <rect class="st0" x="11.7" y="6" width=".4" height="3.5" transform="translate(-2 10.7) rotate(-45)"/>
    </g>
  </g>
  <g>
    <path class="st0" d="M33.2,18c-.2,0-.3,0-.5-.2,0-.1-.2-.3-.2-.5v-7.2h-2.2c-.2,0-.3,0-.4-.2-.1-.1-.2-.3-.2-.4s0-.3.2-.4c.1-.1.3-.2.4-.2h5.8c.2,0,.3,0,.4.2,0,.1.2.3.2.4s0,.3-.2.4c0,.1-.3.2-.4.2h-2.2v7.2c0,.2,0,.3-.2.5,0,.1-.3.2-.5.2Z"/>
    <path class="st0" d="M41.3,18.2c-.9,0-1.6-.2-2.3-.6s-1.2-1-1.6-1.7c-.4-.7-.6-1.5-.6-2.4s0-1.3.3-1.9c.2-.6.5-1.1,1-1.5.4-.4.9-.7,1.4-.9s1.1-.3,1.7-.3,1.2.1,1.8.3c.5.2,1,.6,1.4,1s.7.9.9,1.5.3,1.2.3,1.9-.2,1.7-.6,2.4c-.4.7-.9,1.2-1.6,1.6-.7.4-1.4.6-2.3.6h.2ZM41.3,16.9c.5,0,.9,0,1.3-.2.8-.3,1.3-.9,1.6-1.8.2-.4.2-.9.2-1.4s0-1.3-.4-1.8-.6-.9-1.1-1.2-1-.4-1.6-.4-1.2.1-1.6.4c-.5.3-.8.7-1.1,1.2s-.4,1.1-.4,1.8,0,1.3.4,1.8.6.9,1.1,1.2,1,.4,1.6.4Z"/>
    <path class="st0" d="M51.9,18c-.3,0-.5-.1-.6-.4l-1.6-3.4h-1v3.1c0,.2,0,.3-.2.5s-.3.2-.4.2-.3,0-.5-.2-.2-.3-.2-.5v-7.8c0-.2,0-.3.2-.5,0-.1.3-.2.5-.2h2c.4,0,.7,0,1.1.2s.6.3.8.6c.2.2.4.5.5.8s.2.7.2,1,0,.7-.2,1c0,.3-.3.6-.5.9-.2.2-.5.4-.8.6h0l1.5,3v.3c0,.2,0,.3-.2.5,0,.1-.3.2-.5.2h0ZM50.1,13c.4,0,.7-.1.9-.4.2-.3.3-.6.3-1s0-.5,0-.7c0-.2-.2-.4-.4-.5s-.4-.2-.7-.2h-1.4v2.8s1.4,0,1.4,0Z"/>
    <path class="st0" d="M61.2,18c-.3,0-.5-.1-.6-.4l-.8-2h-3.3l-.8,2c0,.3-.3.4-.6.4s-.3,0-.5-.2c0-.1-.2-.3-.2-.4v-.2l3.2-7.9c0-.2.2-.3.4-.3s.3,0,.4.3l3.2,7.9v.2c0,.2,0,.3-.2.4,0,.1-.3.2-.4.2h.2ZM59.2,14.4l-1.2-2.9-1.2,2.9h2.4Z"/>
    <path class="st1" d="M64.2,18c-.2,0-.3,0-.5-.2,0-.1-.2-.3-.2-.5v-7.8c0-.2,0-.3.2-.5s.3-.2.5-.2h3.4c.2,0,.3,0,.4.2,0,.1.2.3.2.4s0,.3-.2.4c0,.1-.3.2-.4.2h-2.8v2.7h2.6c.2,0,.3,0,.4.2s.2.3.2.4,0,.3-.2.4c0,.1-.3.2-.4.2h-2.6v3.3c0,.2,0,.3-.2.4,0,.1-.3.2-.4.2v.2Z"/>
    <path class="st1" d="M74.1,18h-3.5c-.2,0-.3,0-.5-.2s-.2-.3-.2-.5v-7.8c0-.2,0-.3.2-.5,0-.1.3-.2.5-.2s.3,0,.5.2c0,.1.2.3.2.5v7.2h2.9c.2,0,.3,0,.4.2,0,.1.2.3.2.4s0,.3-.2.4c0,.1-.3.2-.4.2h0Z"/>
    <path class="st1" d="M79.4,18.2c-.9,0-1.6-.2-2.3-.6-.7-.4-1.2-1-1.6-1.7s-.6-1.5-.6-2.4,0-1.3.3-1.9c.2-.6.5-1.1,1-1.5.4-.4.9-.7,1.4-.9s1.1-.3,1.7-.3,1.2.1,1.8.3c.5.2,1,.6,1.4,1s.7.9.9,1.5c.2.6.3,1.2.3,1.9s-.2,1.7-.6,2.4c-.4.7-.9,1.2-1.6,1.6s-1.4.6-2.3.6h.2ZM79.4,16.9c.5,0,.9,0,1.3-.2.8-.3,1.3-.9,1.6-1.8.2-.4.2-.9.2-1.4s0-1.3-.4-1.8-.6-.9-1.1-1.2-1-.4-1.6-.4-1.2.1-1.6.4c-.5.3-.8.7-1.1,1.2-.3.5-.4,1.1-.4,1.8s0,1.3.4,1.8.6.9,1.1,1.2,1,.4,1.6.4Z"/>
    <path class="st1" d="M92.5,18c-.2,0-.4-.1-.4-.3l-1.9-5.7-2,5.7c0,.2-.2.3-.4.3s-.3-.1-.4-.3l-2.8-7.9v-.2c0-.2,0-.3.2-.4s.3-.2.4-.2.3,0,.4.1c0,0,.2.2.2.3l2,5.8,2-5.9c0-.2.2-.3.4-.3s.4.1.4.3l1.9,5.9,2.1-5.8c0-.3.3-.4.6-.4s.3,0,.4.2c0,.1.2.3.2.4v.2l-2.9,7.9c0,.2-.2.3-.4.3h0Z"/>
  </g>
</svg>