<?xml version="1.0" encoding="UTF-8"?>
<svg id="Layer_1" xmlns="http://www.w3.org/2000/svg" version="1.1" xmlns:xlink="http://www.w3.org/1999/xlink" viewBox="0 0 138 27">
  <!-- Generator: Adobe Illustrator 29.0.1, SVG Export Plug-In . SVG Version: 2.1.0 Build 192)  -->
  <defs>
    <style>
      .st0 {
        fill: url(#linear-gradient2);
      }

      .st1 {
        fill: url(#linear-gradient10);
      }

      .st2 {
        fill: url(#linear-gradient21);
      }

      .st3 {
        fill: url(#linear-gradient27);
      }

      .st4 {
        fill: #fff;
      }

      .st5 {
        fill: url(#linear-gradient26);
      }

      .st6 {
        fill: url(#linear-gradient1);
      }

      .st7 {
        fill: url(#linear-gradient9);
      }

      .st8 {
        fill: url(#linear-gradient18);
      }

      .st9 {
        fill: url(#linear-gradient23);
      }

      .st10 {
        fill: url(#linear-gradient8);
      }

      .st11 {
        fill: url(#linear-gradient11);
      }

      .st12 {
        fill: url(#linear-gradient16);
      }

      .st13 {
        fill: url(#linear-gradient24);
      }

      .st14 {
        fill: url(#linear-gradient22);
      }

      .st15 {
        fill: url(#linear-gradient19);
      }

      .st16 {
        fill: url(#linear-gradient12);
      }

      .st17 {
        fill: url(#linear-gradient7);
      }

      .st18 {
        fill: url(#linear-gradient20);
      }

      .st19 {
        fill: url(#linear-gradient4);
      }

      .st20 {
        fill: url(#linear-gradient14);
      }

      .st21 {
        fill: url(#linear-gradient5);
      }

      .st22 {
        fill: url(#linear-gradient3);
      }

      .st23 {
        fill: url(#linear-gradient25);
      }

      .st24 {
        fill: url(#linear-gradient15);
      }

      .st25 {
        fill: url(#linear-gradient17);
      }

      .st26 {
        fill: url(#linear-gradient6);
      }

      .st27 {
        fill: #4a6cf7;
      }

      .st28 {
        fill: url(#linear-gradient13);
      }

      .st29 {
        fill: url(#linear-gradient);
      }
    </style>
    <linearGradient id="linear-gradient" x1="4.6" y1="7.2" x2="18" y2="20.6" gradientTransform="translate(0 28) scale(1 -1)" gradientUnits="userSpaceOnUse">
      <stop offset="0" stop-color="#003a7f"/>
      <stop offset="1" stop-color="#000"/>
    </linearGradient>
    <linearGradient id="linear-gradient1" x1="4.6" y1="7.2" x2="18" y2="20.6" gradientTransform="translate(0 28) scale(1 -1)" gradientUnits="userSpaceOnUse">
      <stop offset="0" stop-color="#003a7f"/>
      <stop offset="1" stop-color="#000"/>
    </linearGradient>
    <linearGradient id="linear-gradient2" x1="7.1" y1="4.6" x2="20.6" y2="18.1" gradientTransform="translate(0 28) scale(1 -1)" gradientUnits="userSpaceOnUse">
      <stop offset="0" stop-color="#003a7f"/>
      <stop offset="1" stop-color="#000"/>
    </linearGradient>
    <linearGradient id="linear-gradient3" x1="7.1" y1="4.6" x2="20.6" y2="18.1" gradientTransform="translate(0 28) scale(1 -1)" gradientUnits="userSpaceOnUse">
      <stop offset="0" stop-color="#003a7f"/>
      <stop offset="1" stop-color="#000"/>
    </linearGradient>
    <linearGradient id="linear-gradient4" x1="4.6" y1="7.2" x2="18" y2="20.6" gradientTransform="translate(-9.2 9.7) rotate(45) scale(1 -1)" gradientUnits="userSpaceOnUse">
      <stop offset="0" stop-color="#003a7f"/>
      <stop offset="1" stop-color="#000"/>
    </linearGradient>
    <linearGradient id="linear-gradient5" x1="5.8" y1="6" x2="19.3" y2="19.4" gradientTransform="translate(-8.3 8) rotate(45) scale(1 -1)" gradientUnits="userSpaceOnUse">
      <stop offset="0" stop-color="#003a7f"/>
      <stop offset="1" stop-color="#000"/>
    </linearGradient>
    <linearGradient id="linear-gradient6" x1="7.1" y1="4.6" x2="20.6" y2="18.1" gradientTransform="translate(-6.7 8.6) rotate(45) scale(1 -1)" gradientUnits="userSpaceOnUse">
      <stop offset="0" stop-color="#003a7f"/>
      <stop offset="1" stop-color="#000"/>
    </linearGradient>
    <linearGradient id="linear-gradient7" x1="8.5" y1="3.3" x2="22" y2="16.7" gradientTransform="translate(0 28) scale(1 -1)" gradientUnits="userSpaceOnUse">
      <stop offset="0" stop-color="#003a7f"/>
      <stop offset="1" stop-color="#000"/>
    </linearGradient>
    <linearGradient id="linear-gradient8" x1="11.1" y1=".7" x2="24.5" y2="14.2" gradientTransform="translate(0 28) scale(1 -1)" gradientUnits="userSpaceOnUse">
      <stop offset="0" stop-color="#003a7f"/>
      <stop offset="1" stop-color="#000"/>
    </linearGradient>
    <linearGradient id="linear-gradient9" x1="8.5" y1="3.3" x2="22" y2="16.7" gradientTransform="translate(0 28) scale(1 -1)" gradientUnits="userSpaceOnUse">
      <stop offset="0" stop-color="#003a7f"/>
      <stop offset="1" stop-color="#000"/>
    </linearGradient>
    <linearGradient id="linear-gradient10" x1="11.1" y1=".7" x2="24.5" y2="14.2" gradientTransform="translate(0 28) scale(1 -1)" gradientUnits="userSpaceOnUse">
      <stop offset="0" stop-color="#003a7f"/>
      <stop offset="1" stop-color="#000"/>
    </linearGradient>
    <linearGradient id="linear-gradient11" x1="10" y1="1.8" x2="23.4" y2="15.2" gradientTransform="translate(-2.6 10.3) rotate(45) scale(1 -1)" gradientUnits="userSpaceOnUse">
      <stop offset="0" stop-color="#003a7f"/>
      <stop offset="1" stop-color="#000"/>
    </linearGradient>
    <linearGradient id="linear-gradient12" x1="11.1" y1=".7" x2="24.5" y2="14.2" gradientTransform="translate(-.9 11.2) rotate(45) scale(1 -1)" gradientUnits="userSpaceOnUse">
      <stop offset="0" stop-color="#003a7f"/>
      <stop offset="1" stop-color="#000"/>
    </linearGradient>
    <linearGradient id="linear-gradient13" x1="10" y1="1.8" x2="23.4" y2="15.2" gradientTransform="translate(-1.6 12.8) rotate(45) scale(1 -1)" gradientUnits="userSpaceOnUse">
      <stop offset="0" stop-color="#003a7f"/>
      <stop offset="1" stop-color="#000"/>
    </linearGradient>
    <linearGradient id="linear-gradient14" x1="7.2" y1="4.6" x2="20.6" y2="18" gradientTransform="translate(0 28) scale(1 -1)" gradientUnits="userSpaceOnUse">
      <stop offset="0" stop-color="#003a7f"/>
      <stop offset="1" stop-color="#000"/>
    </linearGradient>
    <linearGradient id="linear-gradient15" x1="7.2" y1="4.6" x2="20.6" y2="18" gradientTransform="translate(0 28) scale(1 -1)" gradientUnits="userSpaceOnUse">
      <stop offset="0" stop-color="#003a7f"/>
      <stop offset="1" stop-color="#000"/>
    </linearGradient>
    <linearGradient id="linear-gradient16" x1="4.6" y1="7.3" x2="17.9" y2="20.6" gradientTransform="translate(0 28) scale(1 -1)" gradientUnits="userSpaceOnUse">
      <stop offset="0" stop-color="#003a7f"/>
      <stop offset="1" stop-color="#000"/>
    </linearGradient>
    <linearGradient id="linear-gradient17" x1="4.6" y1="7.2" x2="18" y2="20.6" gradientTransform="translate(0 28) scale(1 -1)" gradientUnits="userSpaceOnUse">
      <stop offset="0" stop-color="#003a7f"/>
      <stop offset="1" stop-color="#000"/>
    </linearGradient>
    <linearGradient id="linear-gradient18" x1="7.2" y1="4.6" x2="20.6" y2="18" gradientTransform="translate(-3.1 16.7) rotate(45) scale(1 -1)" gradientUnits="userSpaceOnUse">
      <stop offset="0" stop-color="#003a7f"/>
      <stop offset="1" stop-color="#000"/>
    </linearGradient>
    <linearGradient id="linear-gradient19" x1="5.9" y1="5.9" x2="19.3" y2="19.3" gradientTransform="translate(-4 18.4) rotate(45) scale(1 -1)" gradientUnits="userSpaceOnUse">
      <stop offset="0" stop-color="#003a7f"/>
      <stop offset="1" stop-color="#000"/>
    </linearGradient>
    <linearGradient id="linear-gradient20" x1="4.6" y1="7.2" x2="18" y2="20.6" gradientTransform="translate(-5.7 17.9) rotate(45) scale(1 -1)" gradientUnits="userSpaceOnUse">
      <stop offset="0" stop-color="#003a7f"/>
      <stop offset="1" stop-color="#000"/>
    </linearGradient>
    <linearGradient id="linear-gradient21" x1="3.1" y1="8.7" x2="16.6" y2="22.1" gradientTransform="translate(0 28) scale(1 -1)" gradientUnits="userSpaceOnUse">
      <stop offset="0" stop-color="#003a7f"/>
      <stop offset="1" stop-color="#000"/>
    </linearGradient>
    <linearGradient id="linear-gradient22" x1=".6" y1="11.1" x2="14.1" y2="24.6" gradientTransform="translate(0 28) scale(1 -1)" gradientUnits="userSpaceOnUse">
      <stop offset="0" stop-color="#003a7f"/>
      <stop offset="1" stop-color="#000"/>
    </linearGradient>
    <linearGradient id="linear-gradient23" x1="3.2" y1="8.6" x2="16.6" y2="22" gradientTransform="translate(0 28) scale(1 -1)" gradientUnits="userSpaceOnUse">
      <stop offset="0" stop-color="#003a7f"/>
      <stop offset="1" stop-color="#000"/>
    </linearGradient>
    <linearGradient id="linear-gradient24" x1=".6" y1="11.1" x2="14.1" y2="24.6" gradientTransform="translate(0 28) scale(1 -1)" gradientUnits="userSpaceOnUse">
      <stop offset="0" stop-color="#003a7f"/>
      <stop offset="1" stop-color="#000"/>
    </linearGradient>
    <linearGradient id="linear-gradient25" x1="1.7" y1="10.1" x2="15.2" y2="23.5" gradientTransform="translate(-9.7 16.2) rotate(45) scale(1 -1)" gradientUnits="userSpaceOnUse">
      <stop offset="0" stop-color="#003a7f"/>
      <stop offset="1" stop-color="#000"/>
    </linearGradient>
    <linearGradient id="linear-gradient26" x1=".5" y1="11.2" x2="14" y2="24.7" gradientTransform="translate(-11.5 15.4) rotate(45) scale(1 -1)" gradientUnits="userSpaceOnUse">
      <stop offset="0" stop-color="#003a7f"/>
      <stop offset="1" stop-color="#000"/>
    </linearGradient>
    <linearGradient id="linear-gradient27" x1="1.7" y1="10.1" x2="15.2" y2="23.5" gradientTransform="translate(-10.8 13.6) rotate(45) scale(1 -1)" gradientUnits="userSpaceOnUse">
      <stop offset="0" stop-color="#003a7f"/>
      <stop offset="1" stop-color="#000"/>
    </linearGradient>
  </defs>
  <g>
    <path class="st27" d="M22,13.6l1.4,1.4c.2.2.6.2.8,0l1.4-1.4c.2-.2.2-.6,0-.8l-1.4-1.4c-.2-.2-.6-.2-.8,0l-1.4,1.4s-.1.2-.1.3h-4.2c0-.2-.1-.3-.2-.5l-2.1-2.1c-.1-.1-.3-.2-.5-.2v-4.2s.2,0,.3,0l1.4-1.4c.2-.2.2-.6,0-.8l-1.4-1.4c-.2-.2-.6-.2-.8,0l-1.4,1.4c-.2.2-.2.6,0,.8l1.4,1.4s.2,0,.3,0v4.2c-.2,0-.3.1-.5.2l-2.1,2.1c-.1.1-.2.3-.2.5h-4.2s0-.2,0-.3l-1.4-1.4c-.2-.2-.6-.2-.8,0l-1.4,1.4c-.2.2-.2.6,0,.8l1.4,1.4c.2.2.6.2.8,0l1.4-1.4s0-.2,0-.3h4.2c0,.2.1.3.2.5l2.1,2.1c.1.1.3.2.5.2v4.2s-.2,0-.3.1l-1.4,1.4c-.2.2-.2.6,0,.8l1.4,1.4c.2.2.6.2.8,0l1.4-1.4c.2-.2.2-.6,0-.8l-1.4-1.4s-.2-.1-.3-.1v-4.2c.2,0,.3-.1.5-.2l2.1-2.1c.1-.1.2-.3.2-.5h4.2s0,.2,0,.3Z"/>
    <g>
      <circle class="st29" cx="16.1" cy="9.2" r=".9"/>
      <circle class="st6" cx="18.6" cy="6.7" r=".9"/>
      <circle class="st0" cx="18.7" cy="11.8" r=".9"/>
      <circle class="st22" cx="21.2" cy="9.3" r=".9"/>
      <rect class="st19" x="15.7" y="7.6" width="3.5" height=".4" transform="translate(-.4 14.6) rotate(-45)"/>
      <rect class="st21" x="19.7" y="5.9" width=".4" height="4.1" transform="translate(.2 16.4) rotate(-45)"/>
      <rect class="st26" x="18.3" y="10.1" width="3.5" height=".4" transform="translate(-1.4 17.2) rotate(-45)"/>
    </g>
    <g>
      <circle class="st17" cx="18.7" cy="14.5" r=".9"/>
      <circle class="st10" cx="21.3" cy="17.1" r=".9"/>
      <circle class="st7" cx="16.1" cy="17.2" r=".9"/>
      <circle class="st1" cx="18.6" cy="19.7" r=".9"/>
      <rect class="st11" x="19.9" y="14.3" width=".4" height="3.5" transform="translate(-5.4 18.9) rotate(-45)"/>
      <rect class="st16" x="17.9" y="18.3" width="4.1" height=".4" transform="translate(-7.2 19.5) rotate(-45)"/>
      <rect class="st28" x="17.3" y="16.8" width=".4" height="3.5" transform="translate(-8 17.8) rotate(-45)"/>
    </g>
    <g>
      <circle class="st20" cx="13.4" cy="17.2" r=".9"/>
      <circle class="st24" cx="10.9" cy="19.7" r=".9"/>
      <circle class="st12" cx="10.8" cy="14.5" r=".9"/>
      <circle class="st25" cx="8.3" cy="17.1" r=".9"/>
      <rect class="st8" x="10.3" y="18.3" width="3.5" height=".4" transform="translate(-9.6 13.9) rotate(-45)"/>
      <rect class="st15" x="9.4" y="16.3" width=".4" height="4.1" transform="translate(-10.2 12.1) rotate(-45)"/>
      <rect class="st18" x="7.6" y="15.8" width="3.5" height=".4" transform="translate(-8.6 11.3) rotate(-45)"/>
    </g>
    <g>
      <circle class="st2" cx="10.7" cy="11.8" r=".9"/>
      <circle class="st14" cx="8.2" cy="9.3" r=".9"/>
      <circle class="st9" cx="13.4" cy="9.2" r=".9"/>
      <circle class="st13" cx="10.9" cy="6.7" r=".9"/>
      <rect class="st23" x="9.1" y="8.6" width=".4" height="3.5" transform="translate(-4.6 9.6) rotate(-45)"/>
      <rect class="st5" x="7.4" y="7.7" width="4.1" height=".4" transform="translate(-2.8 9) rotate(-45)"/>
      <rect class="st3" x="11.7" y="6" width=".4" height="3.5" transform="translate(-2 10.7) rotate(-45)"/>
    </g>
  </g>
  <path class="st4" d="M14.5,13.8v-1.4h-1.1c0,0,0,0,0-.2v-.2c0,0,.1,0,.2,0h2.4v.4h-1v2.8h-.4v-1.4"/>
  <g>
    <path d="M33.2,18c-.2,0-.3,0-.5-.2-.1-.1-.2-.3-.2-.5v-7.2h-2.2c-.2,0-.3,0-.4-.2-.1-.1-.2-.3-.2-.4s0-.3.2-.4c.1-.1.3-.2.4-.2h5.8c.2,0,.3,0,.4.2.1.1.2.3.2.4s0,.3-.2.4c-.1.1-.3.2-.4.2h-2.2v7.2c0,.2,0,.3-.2.5-.1.1-.3.2-.5.2Z"/>
    <path d="M41.3,18.2c-.9,0-1.6-.2-2.3-.6-.7-.4-1.2-1-1.6-1.7-.4-.7-.6-1.5-.6-2.4s.1-1.3.3-1.9c.2-.6.5-1.1,1-1.5.4-.4.9-.7,1.4-.9.5-.2,1.1-.3,1.7-.3s1.2.1,1.8.3c.5.2,1,.6,1.4,1,.4.4.7.9.9,1.5.2.6.3,1.2.3,1.9s-.2,1.7-.6,2.4c-.4.7-.9,1.2-1.6,1.6-.7.4-1.4.6-2.3.6ZM41.3,16.9c.5,0,.9,0,1.3-.2.8-.3,1.3-.9,1.6-1.8.2-.4.2-.9.2-1.4s-.1-1.3-.4-1.8-.6-.9-1.1-1.2c-.5-.3-1-.4-1.6-.4s-1.2.1-1.6.4c-.5.3-.8.7-1.1,1.2s-.4,1.1-.4,1.8.1,1.3.4,1.8.6.9,1.1,1.2,1,.4,1.6.4Z"/>
    <path d="M51.9,18c-.3,0-.5-.1-.6-.4l-1.6-3.4h-1v3.1c0,.2,0,.3-.2.5s-.3.2-.4.2-.3,0-.5-.2-.2-.3-.2-.5v-7.8c0-.2,0-.3.2-.5.1-.1.3-.2.5-.2h2c.4,0,.7,0,1.1.2s.6.3.8.6c.2.2.4.5.5.8.1.3.2.7.2,1s0,.7-.2,1c-.1.3-.3.6-.5.9-.2.2-.5.4-.8.6,0,0,0,0,0,0l1.5,3c0,0,0,.2,0,.3,0,.2,0,.3-.2.5-.1.1-.3.2-.5.2ZM50.1,13c.4,0,.7-.1.9-.4.2-.3.3-.6.3-1s0-.5-.1-.7c0-.2-.2-.4-.4-.5-.2-.1-.4-.2-.7-.2h-1.4v2.8h1.4Z"/>
    <path d="M61.2,18c-.3,0-.5-.1-.6-.4l-.8-2h-3.3l-.8,2c-.1.3-.3.4-.6.4s-.3,0-.5-.2c-.1-.1-.2-.3-.2-.4s0-.2,0-.2l3.2-7.9c0-.2.2-.3.4-.3s.3,0,.4.3l3.2,7.9c0,0,0,.2,0,.2,0,.2,0,.3-.2.4-.1.1-.3.2-.4.2ZM59.2,14.4l-1.2-2.9-1.2,2.9h2.4Z"/>
    <path class="st27" d="M64.2,18c-.2,0-.3,0-.5-.2-.1-.1-.2-.3-.2-.5v-7.8c0-.2,0-.3.2-.5s.3-.2.5-.2h3.4c.2,0,.3,0,.4.2.1.1.2.3.2.4s0,.3-.2.4c-.1.1-.3.2-.4.2h-2.8v2.7h2.6c.2,0,.3,0,.4.2s.2.3.2.4,0,.3-.2.4c-.1.1-.3.2-.4.2h-2.6v3.3c0,.2,0,.3-.2.4-.1.1-.3.2-.4.2Z"/>
    <path class="st27" d="M74.1,18h-3.5c-.2,0-.3,0-.5-.2-.1-.1-.2-.3-.2-.5v-7.8c0-.2,0-.3.2-.5.1-.1.3-.2.5-.2s.3,0,.5.2c.1.1.2.3.2.5v7.2h2.9c.2,0,.3,0,.4.2.1.1.2.3.2.4s0,.3-.2.4c-.1.1-.3.2-.4.2Z"/>
    <path class="st27" d="M79.4,18.2c-.9,0-1.6-.2-2.3-.6-.7-.4-1.2-1-1.6-1.7-.4-.7-.6-1.5-.6-2.4s.1-1.3.3-1.9c.2-.6.5-1.1,1-1.5.4-.4.9-.7,1.4-.9.5-.2,1.1-.3,1.7-.3s1.2.1,1.8.3c.5.2,1,.6,1.4,1,.4.4.7.9.9,1.5.2.6.3,1.2.3,1.9s-.2,1.7-.6,2.4c-.4.7-.9,1.2-1.6,1.6-.7.4-1.4.6-2.3.6ZM79.4,16.9c.5,0,.9,0,1.3-.2.8-.3,1.3-.9,1.6-1.8.2-.4.2-.9.2-1.4s-.1-1.3-.4-1.8-.6-.9-1.1-1.2c-.5-.3-1-.4-1.6-.4s-1.2.1-1.6.4c-.5.3-.8.7-1.1,1.2-.3.5-.4,1.1-.4,1.8s.1,1.3.4,1.8.6.9,1.1,1.2,1,.4,1.6.4Z"/>
    <path class="st27" d="M92.5,18c-.2,0-.4-.1-.4-.3l-1.9-5.7-2,5.7c0,.2-.2.3-.4.3s-.3-.1-.4-.3l-2.8-7.9c0,0,0-.1,0-.2,0-.2,0-.3.2-.4s.3-.2.4-.2.3,0,.4.1c.1,0,.2.2.2.3l2,5.8,2-5.9c0-.2.2-.3.4-.3s.4.1.4.3l1.9,5.9,2.1-5.8c.1-.3.3-.4.6-.4s.3,0,.4.2c.1.1.2.3.2.4s0,.1,0,.2l-2.9,7.9c0,.2-.2.3-.4.3Z"/>
  </g>
</svg>